{"glyphs":{"0":{"ha":734,"x_min":68,"x_max":667,"o":"m 232 978 l 256 978 q 298 916 298 951 q 256 861 286 878 l 232 861 q 191 924 191 888 q 232 978 202 962 m 355 978 l 380 978 q 420 916 420 951 q 380 861 409 878 l 355 861 q 314 924 314 888 q 355 978 326 962 m 478 978 l 503 978 q 544 916 544 951 q 503 861 532 878 l 478 861 q 437 924 437 888 q 478 978 448 962 m 109 835 l 134 835 q 174 772 174 808 q 134 718 163 734 l 109 718 q 68 781 68 745 q 109 835 79 818 m 601 835 l 626 835 q 667 772 667 808 q 626 718 655 734 l 601 718 q 560 781 560 745 q 601 835 571 818 m 109 691 l 134 691 q 174 628 174 664 q 134 574 163 591 l 109 574 q 68 637 68 602 q 109 691 79 674 m 601 691 l 626 691 q 667 628 667 664 q 626 574 655 591 l 601 574 q 560 637 560 602 q 601 691 571 674 m 109 547 l 134 547 q 174 485 174 521 q 134 431 163 448 l 109 431 q 68 494 68 458 q 109 547 79 530 m 601 547 l 626 547 q 667 485 667 521 q 626 431 655 448 l 601 431 q 560 494 560 458 q 601 547 571 530 m 109 404 l 134 404 q 174 341 174 377 q 134 287 163 304 l 109 287 q 68 350 68 314 q 109 404 79 387 m 601 404 l 626 404 q 667 341 667 377 q 626 287 655 304 l 601 287 q 560 350 560 314 q 601 404 571 387 m 109 260 l 134 260 q 174 197 174 233 q 134 144 163 161 l 109 144 q 68 206 68 170 q 109 260 79 243 m 601 260 l 626 260 q 667 197 667 233 q 626 144 655 161 l 601 144 q 560 206 560 170 q 601 260 571 243 m 232 117 l 256 117 q 298 54 298 90 q 256 0 286 17 l 232 0 q 191 63 191 27 q 232 117 202 100 m 355 117 l 380 117 q 420 54 420 90 q 380 0 409 17 l 355 0 q 314 63 314 27 q 355 117 326 100 m 478 117 l 503 117 q 544 54 544 90 q 503 0 532 17 l 478 0 q 437 63 437 27 q 478 117 448 100 z "},"1":{"ha":734,"x_min":314,"x_max":420,"o":"m 355 978 l 380 978 q 420 916 420 951 q 380 861 409 878 l 355 861 q 314 924 314 888 q 355 978 326 962 m 355 835 l 380 835 q 420 772 420 808 q 380 718 409 734 l 355 718 q 314 781 314 745 q 355 835 326 818 m 355 691 l 380 691 q 420 628 420 664 q 380 574 409 591 l 355 574 q 314 637 314 602 q 355 691 326 674 m 355 547 l 380 547 q 420 485 420 521 q 380 431 409 448 l 355 431 q 314 494 314 458 q 355 547 326 530 m 355 404 l 380 404 q 420 341 420 377 q 380 287 409 304 l 355 287 q 314 350 314 314 q 355 404 326 387 m 355 260 l 380 260 q 420 197 420 233 q 380 144 409 161 l 355 144 q 314 206 314 170 q 355 260 326 243 m 355 117 l 380 117 q 420 54 420 90 q 380 0 409 17 l 355 0 q 314 63 314 27 q 355 117 326 100 z "},"2":{"ha":734,"x_min":68,"x_max":667,"o":"m 109 978 l 134 978 q 174 916 174 951 q 134 861 163 878 l 109 861 q 68 924 68 888 q 109 978 79 962 m 232 978 l 256 978 q 298 916 298 951 q 256 861 286 878 l 232 861 q 191 924 191 888 q 232 978 202 962 m 355 978 l 380 978 q 420 916 420 951 q 380 861 409 878 l 355 861 q 314 924 314 888 q 355 978 326 962 m 478 978 l 503 978 q 544 916 544 951 q 503 861 532 878 l 478 861 q 437 924 437 888 q 478 978 448 962 m 601 835 l 626 835 q 667 772 667 808 q 626 718 655 734 l 601 718 q 560 781 560 745 q 601 835 571 818 m 601 691 l 626 691 q 667 628 667 664 q 626 574 655 591 l 601 574 q 560 637 560 602 q 601 691 571 674 m 232 547 l 256 547 q 298 485 298 521 q 256 431 286 448 l 232 431 q 191 494 191 458 q 232 547 202 530 m 355 547 l 380 547 q 420 485 420 521 q 380 431 409 448 l 355 431 q 314 494 314 458 q 355 547 326 530 m 478 547 l 503 547 q 544 485 544 521 q 503 431 532 448 l 478 431 q 437 494 437 458 q 478 547 448 530 m 109 404 l 134 404 q 174 341 174 377 q 134 287 163 304 l 109 287 q 68 350 68 314 q 109 404 79 387 m 109 260 l 134 260 q 174 197 174 233 q 134 144 163 161 l 109 144 q 68 206 68 170 q 109 260 79 243 m 109 117 l 134 117 q 174 54 174 90 q 134 0 163 17 l 109 0 q 68 63 68 27 q 109 117 79 100 m 232 117 l 256 117 q 298 54 298 90 q 256 0 286 17 l 232 0 q 191 63 191 27 q 232 117 202 100 m 355 117 l 380 117 q 420 54 420 90 q 380 0 409 17 l 355 0 q 314 63 314 27 q 355 117 326 100 m 478 117 l 503 117 q 544 54 544 90 q 503 0 532 17 l 478 0 q 437 63 437 27 q 478 117 448 100 m 601 117 l 626 117 q 667 54 667 90 q 626 0 655 17 l 601 0 q 560 63 560 27 q 601 117 571 100 z "},"3":{"ha":734,"x_min":68,"x_max":667,"o":"m 109 978 l 134 978 q 174 916 174 951 q 134 861 163 878 l 109 861 q 68 924 68 888 q 109 978 79 962 m 232 978 l 256 978 q 298 916 298 951 q 256 861 286 878 l 232 861 q 191 924 191 888 q 232 978 202 962 m 355 978 l 380 978 q 420 916 420 951 q 380 861 409 878 l 355 861 q 314 924 314 888 q 355 978 326 962 m 478 978 l 503 978 q 544 916 544 951 q 503 861 532 878 l 478 861 q 437 924 437 888 q 478 978 448 962 m 601 835 l 626 835 q 667 772 667 808 q 626 718 655 734 l 601 718 q 560 781 560 745 q 601 835 571 818 m 601 691 l 626 691 q 667 628 667 664 q 626 574 655 591 l 601 574 q 560 637 560 602 q 601 691 571 674 m 109 547 l 134 547 q 174 485 174 521 q 134 431 163 448 l 109 431 q 68 494 68 458 q 109 547 79 530 m 232 547 l 256 547 q 298 485 298 521 q 256 431 286 448 l 232 431 q 191 494 191 458 q 232 547 202 530 m 355 547 l 380 547 q 420 485 420 521 q 380 431 409 448 l 355 431 q 314 494 314 458 q 355 547 326 530 m 478 547 l 503 547 q 544 485 544 521 q 503 431 532 448 l 478 431 q 437 494 437 458 q 478 547 448 530 m 601 404 l 626 404 q 667 341 667 377 q 626 287 655 304 l 601 287 q 560 350 560 314 q 601 404 571 387 m 601 260 l 626 260 q 667 197 667 233 q 626 144 655 161 l 601 144 q 560 206 560 170 q 601 260 571 243 m 109 117 l 134 117 q 174 54 174 90 q 134 0 163 17 l 109 0 q 68 63 68 27 q 109 117 79 100 m 232 117 l 256 117 q 298 54 298 90 q 256 0 286 17 l 232 0 q 191 63 191 27 q 232 117 202 100 m 355 117 l 380 117 q 420 54 420 90 q 380 0 409 17 l 355 0 q 314 63 314 27 q 355 117 326 100 m 478 117 l 503 117 q 544 54 544 90 q 503 0 532 17 l 478 0 q 437 63 437 27 q 478 117 448 100 z "},"4":{"ha":734,"x_min":68,"x_max":667,"o":"m 109 978 l 134 978 q 174 916 174 951 q 134 861 163 878 l 109 861 q 68 924 68 888 q 109 978 79 962 m 601 978 l 626 978 q 667 916 667 951 q 626 861 655 878 l 601 861 q 560 924 560 888 q 601 978 571 962 m 109 835 l 134 835 q 174 772 174 808 q 134 718 163 734 l 109 718 q 68 781 68 745 q 109 835 79 818 m 601 835 l 626 835 q 667 772 667 808 q 626 718 655 734 l 601 718 q 560 781 560 745 q 601 835 571 818 m 109 691 l 134 691 q 174 628 174 664 q 134 574 163 591 l 109 574 q 68 637 68 602 q 109 691 79 674 m 601 691 l 626 691 q 667 628 667 664 q 626 574 655 591 l 601 574 q 560 637 560 602 q 601 691 571 674 m 109 547 l 134 547 q 174 485 174 521 q 134 431 163 448 l 109 431 q 68 494 68 458 q 109 547 79 530 m 232 547 l 256 547 q 298 485 298 521 q 256 431 286 448 l 232 431 q 191 494 191 458 q 232 547 202 530 m 355 547 l 380 547 q 420 485 420 521 q 380 431 409 448 l 355 431 q 314 494 314 458 q 355 547 326 530 m 478 547 l 503 547 q 544 485 544 521 q 503 431 532 448 l 478 431 q 437 494 437 458 q 478 547 448 530 m 601 547 l 626 547 q 667 485 667 521 q 626 431 655 448 l 601 431 q 560 494 560 458 q 601 547 571 530 m 601 404 l 626 404 q 667 341 667 377 q 626 287 655 304 l 601 287 q 560 350 560 314 q 601 404 571 387 m 601 260 l 626 260 q 667 197 667 233 q 626 144 655 161 l 601 144 q 560 206 560 170 q 601 260 571 243 m 601 117 l 626 117 q 667 54 667 90 q 626 0 655 17 l 601 0 q 560 63 560 27 q 601 117 571 100 z "},"5":{"ha":734,"x_min":68,"x_max":667,"o":"m 109 978 l 134 978 q 174 916 174 951 q 134 861 163 878 l 109 861 q 68 924 68 888 q 109 978 79 962 m 232 978 l 256 978 q 298 916 298 951 q 256 861 286 878 l 232 861 q 191 924 191 888 q 232 978 202 962 m 355 978 l 380 978 q 420 916 420 951 q 380 861 409 878 l 355 861 q 314 924 314 888 q 355 978 326 962 m 478 978 l 503 978 q 544 916 544 951 q 503 861 532 878 l 478 861 q 437 924 437 888 q 478 978 448 962 m 601 978 l 626 978 q 667 916 667 951 q 626 861 655 878 l 601 861 q 560 924 560 888 q 601 978 571 962 m 109 835 l 134 835 q 174 772 174 808 q 134 718 163 734 l 109 718 q 68 781 68 745 q 109 835 79 818 m 109 691 l 134 691 q 174 628 174 664 q 134 574 163 591 l 109 574 q 68 637 68 602 q 109 691 79 674 m 109 547 l 134 547 q 174 485 174 521 q 134 431 163 448 l 109 431 q 68 494 68 458 q 109 547 79 530 m 232 547 l 256 547 q 298 485 298 521 q 256 431 286 448 l 232 431 q 191 494 191 458 q 232 547 202 530 m 355 547 l 380 547 q 420 485 420 521 q 380 431 409 448 l 355 431 q 314 494 314 458 q 355 547 326 530 m 478 547 l 503 547 q 544 485 544 521 q 503 431 532 448 l 478 431 q 437 494 437 458 q 478 547 448 530 m 601 404 l 626 404 q 667 341 667 377 q 626 287 655 304 l 601 287 q 560 350 560 314 q 601 404 571 387 m 601 260 l 626 260 q 667 197 667 233 q 626 144 655 161 l 601 144 q 560 206 560 170 q 601 260 571 243 m 232 117 l 256 117 q 298 54 298 90 q 256 0 286 17 l 232 0 q 191 63 191 27 q 232 117 202 100 m 355 117 l 380 117 q 420 54 420 90 q 380 0 409 17 l 355 0 q 314 63 314 27 q 355 117 326 100 m 478 117 l 503 117 q 544 54 544 90 q 503 0 532 17 l 478 0 q 437 63 437 27 q 478 117 448 100 m 109 117 l 134 117 q 174 54 174 90 q 134 0 163 17 l 109 0 q 68 63 68 27 q 109 117 79 100 z "},"6":{"ha":734,"x_min":68,"x_max":667,"o":"m 232 978 l 256 978 q 298 916 298 951 q 256 861 286 878 l 232 861 q 191 924 191 888 q 232 978 202 962 m 355 978 l 380 978 q 420 916 420 951 q 380 861 409 878 l 355 861 q 314 924 314 888 q 355 978 326 962 m 478 978 l 503 978 q 544 916 544 951 q 503 861 532 878 l 478 861 q 437 924 437 888 q 478 978 448 962 m 109 835 l 134 835 q 174 772 174 808 q 134 718 163 734 l 109 718 q 68 781 68 745 q 109 835 79 818 m 109 691 l 134 691 q 174 628 174 664 q 134 574 163 591 l 109 574 q 68 637 68 602 q 109 691 79 674 m 109 547 l 134 547 q 174 485 174 521 q 134 431 163 448 l 109 431 q 68 494 68 458 q 109 547 79 530 m 232 547 l 256 547 q 298 485 298 521 q 256 431 286 448 l 232 431 q 191 494 191 458 q 232 547 202 530 m 355 547 l 380 547 q 420 485 420 521 q 380 431 409 448 l 355 431 q 314 494 314 458 q 355 547 326 530 m 478 547 l 503 547 q 544 485 544 521 q 503 431 532 448 l 478 431 q 437 494 437 458 q 478 547 448 530 m 109 404 l 134 404 q 174 341 174 377 q 134 287 163 304 l 109 287 q 68 350 68 314 q 109 404 79 387 m 601 404 l 626 404 q 667 341 667 377 q 626 287 655 304 l 601 287 q 560 350 560 314 q 601 404 571 387 m 109 260 l 134 260 q 174 197 174 233 q 134 144 163 161 l 109 144 q 68 206 68 170 q 109 260 79 243 m 601 260 l 626 260 q 667 197 667 233 q 626 144 655 161 l 601 144 q 560 206 560 170 q 601 260 571 243 m 232 117 l 256 117 q 298 54 298 90 q 256 0 286 17 l 232 0 q 191 63 191 27 q 232 117 202 100 m 355 117 l 380 117 q 420 54 420 90 q 380 0 409 17 l 355 0 q 314 63 314 27 q 355 117 326 100 m 478 117 l 503 117 q 544 54 544 90 q 503 0 532 17 l 478 0 q 437 63 437 27 q 478 117 448 100 m 601 978 l 626 978 q 667 916 667 951 q 626 861 655 878 l 601 861 q 560 924 560 888 q 601 978 571 962 z "},"7":{"ha":734,"x_min":68,"x_max":667,"o":"m 109 978 l 134 978 q 174 916 174 951 q 134 861 163 878 l 109 861 q 68 924 68 888 q 109 978 79 962 m 232 978 l 256 978 q 298 916 298 951 q 256 861 286 878 l 232 861 q 191 924 191 888 q 232 978 202 962 m 355 978 l 380 978 q 420 916 420 951 q 380 861 409 878 l 355 861 q 314 924 314 888 q 355 978 326 962 m 478 978 l 503 978 q 544 916 544 951 q 503 861 532 878 l 478 861 q 437 924 437 888 q 478 978 448 962 m 601 978 l 626 978 q 667 916 667 951 q 626 861 655 878 l 601 861 q 560 924 560 888 q 601 978 571 962 m 601 835 l 626 835 q 667 772 667 808 q 626 718 655 734 l 601 718 q 560 781 560 745 q 601 835 571 818 m 601 691 l 626 691 q 667 628 667 664 q 626 574 655 591 l 601 574 q 560 637 560 602 q 601 691 571 674 m 478 547 l 503 547 q 544 485 544 521 q 503 431 532 448 l 478 431 q 437 494 437 458 q 478 547 448 530 m 355 404 l 380 404 q 420 341 420 377 q 380 287 409 304 l 355 287 q 314 350 314 314 q 355 404 326 387 m 232 260 l 256 260 q 298 197 298 233 q 256 144 286 161 l 232 144 q 191 206 191 170 q 232 260 202 243 m 109 117 l 134 117 q 174 54 174 90 q 134 0 163 17 l 109 0 q 68 63 68 27 q 109 117 79 100 z "},"8":{"ha":734,"x_min":68,"x_max":667,"o":"m 232 978 l 256 978 q 298 916 298 951 q 256 861 286 878 l 232 861 q 191 924 191 888 q 232 978 202 962 m 355 978 l 380 978 q 420 916 420 951 q 380 861 409 878 l 355 861 q 314 924 314 888 q 355 978 326 962 m 478 978 l 503 978 q 544 916 544 951 q 503 861 532 878 l 478 861 q 437 924 437 888 q 478 978 448 962 m 109 835 l 134 835 q 174 772 174 808 q 134 718 163 734 l 109 718 q 68 781 68 745 q 109 835 79 818 m 601 835 l 626 835 q 667 772 667 808 q 626 718 655 734 l 601 718 q 560 781 560 745 q 601 835 571 818 m 109 691 l 134 691 q 174 628 174 664 q 134 574 163 591 l 109 574 q 68 637 68 602 q 109 691 79 674 m 601 691 l 626 691 q 667 628 667 664 q 626 574 655 591 l 601 574 q 560 637 560 602 q 601 691 571 674 m 232 547 l 256 547 q 298 485 298 521 q 256 431 286 448 l 232 431 q 191 494 191 458 q 232 547 202 530 m 355 547 l 380 547 q 420 485 420 521 q 380 431 409 448 l 355 431 q 314 494 314 458 q 355 547 326 530 m 478 547 l 503 547 q 544 485 544 521 q 503 431 532 448 l 478 431 q 437 494 437 458 q 478 547 448 530 m 109 404 l 134 404 q 174 341 174 377 q 134 287 163 304 l 109 287 q 68 350 68 314 q 109 404 79 387 m 601 404 l 626 404 q 667 341 667 377 q 626 287 655 304 l 601 287 q 560 350 560 314 q 601 404 571 387 m 109 260 l 134 260 q 174 197 174 233 q 134 144 163 161 l 109 144 q 68 206 68 170 q 109 260 79 243 m 601 260 l 626 260 q 667 197 667 233 q 626 144 655 161 l 601 144 q 560 206 560 170 q 601 260 571 243 m 232 117 l 256 117 q 298 54 298 90 q 256 0 286 17 l 232 0 q 191 63 191 27 q 232 117 202 100 m 355 117 l 380 117 q 420 54 420 90 q 380 0 409 17 l 355 0 q 314 63 314 27 q 355 117 326 100 m 478 117 l 503 117 q 544 54 544 90 q 503 0 532 17 l 478 0 q 437 63 437 27 q 478 117 448 100 z "},"9":{"ha":734,"x_min":68,"x_max":667,"o":"m 232 978 l 256 978 q 298 916 298 951 q 256 861 286 878 l 232 861 q 191 924 191 888 q 232 978 202 962 m 355 978 l 380 978 q 420 916 420 951 q 380 861 409 878 l 355 861 q 314 924 314 888 q 355 978 326 962 m 478 978 l 503 978 q 544 916 544 951 q 503 861 532 878 l 478 861 q 437 924 437 888 q 478 978 448 962 m 109 835 l 134 835 q 174 772 174 808 q 134 718 163 734 l 109 718 q 68 781 68 745 q 109 835 79 818 m 601 835 l 626 835 q 667 772 667 808 q 626 718 655 734 l 601 718 q 560 781 560 745 q 601 835 571 818 m 109 691 l 134 691 q 174 628 174 664 q 134 574 163 591 l 109 574 q 68 637 68 602 q 109 691 79 674 m 601 691 l 626 691 q 667 628 667 664 q 626 574 655 591 l 601 574 q 560 637 560 602 q 601 691 571 674 m 232 547 l 256 547 q 298 485 298 521 q 256 431 286 448 l 232 431 q 191 494 191 458 q 232 547 202 530 m 355 547 l 380 547 q 420 485 420 521 q 380 431 409 448 l 355 431 q 314 494 314 458 q 355 547 326 530 m 478 547 l 503 547 q 544 485 544 521 q 503 431 532 448 l 478 431 q 437 494 437 458 q 478 547 448 530 m 601 404 l 626 404 q 667 341 667 377 q 626 287 655 304 l 601 287 q 560 350 560 314 q 601 404 571 387 m 601 260 l 626 260 q 667 197 667 233 q 626 144 655 161 l 601 144 q 560 206 560 170 q 601 260 571 243 m 109 117 l 134 117 q 174 54 174 90 q 134 0 163 17 l 109 0 q 68 63 68 27 q 109 117 79 100 m 232 117 l 256 117 q 298 54 298 90 q 256 0 286 17 l 232 0 q 191 63 191 27 q 232 117 202 100 m 355 117 l 380 117 q 420 54 420 90 q 380 0 409 17 l 355 0 q 314 63 314 27 q 355 117 326 100 m 478 117 l 503 117 q 544 54 544 90 q 503 0 532 17 l 478 0 q 437 63 437 27 q 478 117 448 100 m 601 547 l 626 547 q 667 485 667 521 q 626 431 655 448 l 601 431 q 560 494 560 458 q 601 547 571 530 z "}," ":{"ha":734,"x_min":0,"x_max":0,"o":""},"!":{"ha":734,"x_min":314,"x_max":420,"o":"m 355 978 l 380 978 q 420 916 420 951 q 380 861 409 878 l 355 861 q 314 924 314 888 q 355 978 326 962 m 355 835 l 380 835 q 420 772 420 808 q 380 718 409 734 l 355 718 q 314 781 314 745 q 355 835 326 818 m 355 691 l 380 691 q 420 628 420 664 q 380 574 409 591 l 355 574 q 314 637 314 602 q 355 691 326 674 m 355 547 l 380 547 q 420 485 420 521 q 380 431 409 448 l 355 431 q 314 494 314 458 q 355 547 326 530 m 355 404 l 380 404 q 420 341 420 377 q 380 287 409 304 l 355 287 q 314 350 314 314 q 355 404 326 387 m 355 117 l 380 117 q 420 54 420 90 q 380 0 409 17 l 355 0 q 314 63 314 27 q 355 117 326 100 z "},"\"":{"ha":734,"x_min":191,"x_max":544,"o":"m 232 978 l 256 978 q 298 916 298 951 q 256 861 286 878 l 232 861 q 191 924 191 888 q 232 978 202 962 m 478 978 l 503 978 q 544 916 544 951 q 503 861 532 878 l 478 861 q 437 924 437 888 q 478 978 448 962 m 232 835 l 256 835 q 298 772 298 808 q 256 718 286 734 l 232 718 q 191 781 191 745 q 232 835 202 818 m 478 835 l 503 835 q 544 772 544 808 q 503 718 532 734 l 478 718 q 437 781 437 745 q 478 835 448 818 z "},"#":{"ha":734,"x_min":68,"x_max":667,"o":"m 232 978 l 256 978 q 298 916 298 951 q 256 861 286 878 l 232 861 q 191 924 191 888 q 232 978 202 962 m 478 978 l 503 978 q 544 916 544 951 q 503 861 532 878 l 478 861 q 437 924 437 888 q 478 978 448 962 m 232 835 l 256 835 q 298 772 298 808 q 256 718 286 734 l 232 718 q 191 781 191 745 q 232 835 202 818 m 478 835 l 503 835 q 544 772 544 808 q 503 718 532 734 l 478 718 q 437 781 437 745 q 478 835 448 818 m 109 691 l 134 691 q 174 628 174 664 q 134 574 163 591 l 109 574 q 68 637 68 602 q 109 691 79 674 m 232 691 l 256 691 q 298 628 298 664 q 256 574 286 591 l 232 574 q 191 637 191 602 q 232 691 202 674 m 355 691 l 380 691 q 420 628 420 664 q 380 574 409 591 l 355 574 q 314 637 314 602 q 355 691 326 674 m 478 691 l 503 691 q 544 628 544 664 q 503 574 532 591 l 478 574 q 437 637 437 602 q 478 691 448 674 m 601 691 l 626 691 q 667 628 667 664 q 626 574 655 591 l 601 574 q 560 637 560 602 q 601 691 571 674 m 232 547 l 256 547 q 298 485 298 521 q 256 431 286 448 l 232 431 q 191 494 191 458 q 232 547 202 530 m 478 547 l 503 547 q 544 485 544 521 q 503 431 532 448 l 478 431 q 437 494 437 458 q 478 547 448 530 m 109 404 l 134 404 q 174 341 174 377 q 134 287 163 304 l 109 287 q 68 350 68 314 q 109 404 79 387 m 232 404 l 256 404 q 298 341 298 377 q 256 287 286 304 l 232 287 q 191 350 191 314 q 232 404 202 387 m 355 404 l 380 404 q 420 341 420 377 q 380 287 409 304 l 355 287 q 314 350 314 314 q 355 404 326 387 m 478 404 l 503 404 q 544 341 544 377 q 503 287 532 304 l 478 287 q 437 350 437 314 q 478 404 448 387 m 601 404 l 626 404 q 667 341 667 377 q 626 287 655 304 l 601 287 q 560 350 560 314 q 601 404 571 387 m 232 260 l 256 260 q 298 197 298 233 q 256 144 286 161 l 232 144 q 191 206 191 170 q 232 260 202 243 m 478 260 l 503 260 q 544 197 544 233 q 503 144 532 161 l 478 144 q 437 206 437 170 q 478 260 448 243 m 232 117 l 256 117 q 298 54 298 90 q 256 0 286 17 l 232 0 q 191 63 191 27 q 232 117 202 100 m 478 117 l 503 117 q 544 54 544 90 q 503 0 532 17 l 478 0 q 437 63 437 27 q 478 117 448 100 z "},"$":{"ha":734,"x_min":68,"x_max":667,"o":"m 355 978 l 380 978 q 420 916 420 951 q 380 861 409 878 l 355 861 q 314 924 314 888 q 355 978 326 962 m 232 835 l 256 835 q 298 772 298 808 q 256 718 286 734 l 232 718 q 191 781 191 745 q 232 835 202 818 m 355 835 l 380 835 q 420 772 420 808 q 380 718 409 734 l 355 718 q 314 781 314 745 q 355 835 326 818 m 478 835 l 503 835 q 544 772 544 808 q 503 718 532 734 l 478 718 q 437 781 437 745 q 478 835 448 818 m 601 835 l 626 835 q 667 772 667 808 q 626 718 655 734 l 601 718 q 560 781 560 745 q 601 835 571 818 m 109 691 l 134 691 q 174 628 174 664 q 134 574 163 591 l 109 574 q 68 637 68 602 q 109 691 79 674 m 232 547 l 256 547 q 298 485 298 521 q 256 431 286 448 l 232 431 q 191 494 191 458 q 232 547 202 530 m 355 547 l 380 547 q 420 485 420 521 q 380 431 409 448 l 355 431 q 314 494 314 458 q 355 547 326 530 m 478 547 l 503 547 q 544 485 544 521 q 503 431 532 448 l 478 431 q 437 494 437 458 q 478 547 448 530 m 601 404 l 626 404 q 667 341 667 377 q 626 287 655 304 l 601 287 q 560 350 560 314 q 601 404 571 387 m 109 260 l 134 260 q 174 197 174 233 q 134 144 163 161 l 109 144 q 68 206 68 170 q 109 260 79 243 m 232 260 l 256 260 q 298 197 298 233 q 256 144 286 161 l 232 144 q 191 206 191 170 q 232 260 202 243 m 355 260 l 380 260 q 420 197 420 233 q 380 144 409 161 l 355 144 q 314 206 314 170 q 355 260 326 243 m 478 260 l 503 260 q 544 197 544 233 q 503 144 532 161 l 478 144 q 437 206 437 170 q 478 260 448 243 m 355 117 l 380 117 q 420 54 420 90 q 380 0 409 17 l 355 0 q 314 63 314 27 q 355 117 326 100 z "},"%":{"ha":734,"x_min":68,"x_max":667,"o":"m 601 835 l 626 835 q 667 772 667 808 q 626 718 655 734 l 601 718 q 560 781 560 745 q 601 835 571 818 m 478 691 l 503 691 q 544 628 544 664 q 503 574 532 591 l 478 574 q 437 637 437 602 q 478 691 448 674 m 355 547 l 380 547 q 420 485 420 521 q 380 431 409 448 l 355 431 q 314 494 314 458 q 355 547 326 530 m 232 404 l 256 404 q 298 341 298 377 q 256 287 286 304 l 232 287 q 191 350 191 314 q 232 404 202 387 m 109 260 l 134 260 q 174 197 174 233 q 134 144 163 161 l 109 144 q 68 206 68 170 q 109 260 79 243 m 109 978 l 134 978 q 174 916 174 951 q 134 861 163 878 l 109 861 q 68 924 68 888 q 109 978 79 962 m 232 978 l 256 978 q 298 916 298 951 q 256 861 286 878 l 232 861 q 191 924 191 888 q 232 978 202 962 m 109 835 l 134 835 q 174 772 174 808 q 134 718 163 734 l 109 718 q 68 781 68 745 q 109 835 79 818 m 232 835 l 256 835 q 298 772 298 808 q 256 718 286 734 l 232 718 q 191 781 191 745 q 232 835 202 818 m 478 260 l 503 260 q 544 197 544 233 q 503 144 532 161 l 478 144 q 437 206 437 170 q 478 260 448 243 m 601 260 l 626 260 q 667 197 667 233 q 626 144 655 161 l 601 144 q 560 206 560 170 q 601 260 571 243 m 478 117 l 503 117 q 544 54 544 90 q 503 0 532 17 l 478 0 q 437 63 437 27 q 478 117 448 100 m 601 117 l 626 117 q 667 54 667 90 q 626 0 655 17 l 601 0 q 560 63 560 27 q 601 117 571 100 z "},"&":{"ha":734,"x_min":68,"x_max":667,"o":"m 232 978 l 256 978 q 298 916 298 951 q 256 861 286 878 l 232 861 q 191 924 191 888 q 232 978 202 962 m 109 835 l 134 835 q 174 772 174 808 q 134 718 163 734 l 109 718 q 68 781 68 745 q 109 835 79 818 m 355 835 l 380 835 q 420 772 420 808 q 380 718 409 734 l 355 718 q 314 781 314 745 q 355 835 326 818 m 109 691 l 134 691 q 174 628 174 664 q 134 574 163 591 l 109 574 q 68 637 68 602 q 109 691 79 674 m 355 691 l 380 691 q 420 628 420 664 q 380 574 409 591 l 355 574 q 314 637 314 602 q 355 691 326 674 m 232 547 l 256 547 q 298 485 298 521 q 256 431 286 448 l 232 431 q 191 494 191 458 q 232 547 202 530 m 109 404 l 134 404 q 174 341 174 377 q 134 287 163 304 l 109 287 q 68 350 68 314 q 109 404 79 387 m 355 404 l 380 404 q 420 341 420 377 q 380 287 409 304 l 355 287 q 314 350 314 314 q 355 404 326 387 m 601 404 l 626 404 q 667 341 667 377 q 626 287 655 304 l 601 287 q 560 350 560 314 q 601 404 571 387 m 109 260 l 134 260 q 174 197 174 233 q 134 144 163 161 l 109 144 q 68 206 68 170 q 109 260 79 243 m 478 260 l 503 260 q 544 197 544 233 q 503 144 532 161 l 478 144 q 437 206 437 170 q 478 260 448 243 m 232 117 l 256 117 q 298 54 298 90 q 256 0 286 17 l 232 0 q 191 63 191 27 q 232 117 202 100 m 355 117 l 380 117 q 420 54 420 90 q 380 0 409 17 l 355 0 q 314 63 314 27 q 355 117 326 100 m 601 117 l 626 117 q 667 54 667 90 q 626 0 655 17 l 601 0 q 560 63 560 27 q 601 117 571 100 z "},"'":{"ha":734,"x_min":314,"x_max":544,"o":"m 355 978 l 380 978 q 420 916 420 951 q 380 861 409 878 l 355 861 q 314 924 314 888 q 355 978 326 962 m 478 978 l 503 978 q 544 916 544 951 q 503 861 532 878 l 478 861 q 437 924 437 888 q 478 978 448 962 m 355 835 l 380 835 q 420 772 420 808 q 380 718 409 734 l 355 718 q 314 781 314 745 q 355 835 326 818 m 478 835 l 503 835 q 544 772 544 808 q 503 718 532 734 l 478 718 q 437 781 437 745 q 478 835 448 818 m 478 691 l 503 691 q 544 628 544 664 q 503 574 532 591 l 478 574 q 437 637 437 602 q 478 691 448 674 m 355 547 l 380 547 q 420 485 420 521 q 380 431 409 448 l 355 431 q 314 494 314 458 q 355 547 326 530 z "},"(":{"ha":734,"x_min":191,"x_max":420,"o":"m 355 978 l 380 978 q 420 916 420 951 q 380 861 409 878 l 355 861 q 314 924 314 888 q 355 978 326 962 m 232 835 l 256 835 q 298 772 298 808 q 256 718 286 734 l 232 718 q 191 781 191 745 q 232 835 202 818 m 232 691 l 256 691 q 298 628 298 664 q 256 574 286 591 l 232 574 q 191 637 191 602 q 232 691 202 674 m 232 547 l 256 547 q 298 485 298 521 q 256 431 286 448 l 232 431 q 191 494 191 458 q 232 547 202 530 m 232 404 l 256 404 q 298 341 298 377 q 256 287 286 304 l 232 287 q 191 350 191 314 q 232 404 202 387 m 232 260 l 256 260 q 298 197 298 233 q 256 144 286 161 l 232 144 q 191 206 191 170 q 232 260 202 243 m 355 117 l 380 117 q 420 54 420 90 q 380 0 409 17 l 355 0 q 314 63 314 27 q 355 117 326 100 z "},")":{"ha":734,"x_min":314,"x_max":544,"o":"m 355 978 l 380 978 q 420 916 420 951 q 380 861 409 878 l 355 861 q 314 924 314 888 q 355 978 326 962 m 478 835 l 503 835 q 544 772 544 808 q 503 718 532 734 l 478 718 q 437 781 437 745 q 478 835 448 818 m 478 691 l 503 691 q 544 628 544 664 q 503 574 532 591 l 478 574 q 437 637 437 602 q 478 691 448 674 m 478 547 l 503 547 q 544 485 544 521 q 503 431 532 448 l 478 431 q 437 494 437 458 q 478 547 448 530 m 478 404 l 503 404 q 544 341 544 377 q 503 287 532 304 l 478 287 q 437 350 437 314 q 478 404 448 387 m 478 260 l 503 260 q 544 197 544 233 q 503 144 532 161 l 478 144 q 437 206 437 170 q 478 260 448 243 m 355 117 l 380 117 q 420 54 420 90 q 380 0 409 17 l 355 0 q 314 63 314 27 q 355 117 326 100 z "},"*":{"ha":734,"x_min":191,"x_max":544,"o":"m 232 978 l 256 978 q 298 916 298 951 q 256 861 286 878 l 232 861 q 191 924 191 888 q 232 978 202 962 m 478 978 l 503 978 q 544 916 544 951 q 503 861 532 878 l 478 861 q 437 924 437 888 q 478 978 448 962 m 355 835 l 380 835 q 420 772 420 808 q 380 718 409 734 l 355 718 q 314 781 314 745 q 355 835 326 818 m 232 691 l 256 691 q 298 628 298 664 q 256 574 286 591 l 232 574 q 191 637 191 602 q 232 691 202 674 m 478 691 l 503 691 q 544 628 544 664 q 503 574 532 591 l 478 574 q 437 637 437 602 q 478 691 448 674 z "},"+":{"ha":734,"x_min":68,"x_max":667,"o":"m 355 835 l 380 835 q 420 772 420 808 q 380 718 409 734 l 355 718 q 314 781 314 745 q 355 835 326 818 m 355 691 l 380 691 q 420 628 420 664 q 380 574 409 591 l 355 574 q 314 637 314 602 q 355 691 326 674 m 109 547 l 134 547 q 174 485 174 521 q 134 431 163 448 l 109 431 q 68 494 68 458 q 109 547 79 530 m 232 547 l 256 547 q 298 485 298 521 q 256 431 286 448 l 232 431 q 191 494 191 458 q 232 547 202 530 m 355 547 l 380 547 q 420 485 420 521 q 380 431 409 448 l 355 431 q 314 494 314 458 q 355 547 326 530 m 478 547 l 503 547 q 544 485 544 521 q 503 431 532 448 l 478 431 q 437 494 437 458 q 478 547 448 530 m 601 547 l 626 547 q 667 485 667 521 q 626 431 655 448 l 601 431 q 560 494 560 458 q 601 547 571 530 m 355 404 l 380 404 q 420 341 420 377 q 380 287 409 304 l 355 287 q 314 350 314 314 q 355 404 326 387 m 355 260 l 380 260 q 420 197 420 233 q 380 144 409 161 l 355 144 q 314 206 314 170 q 355 260 326 243 z "},",":{"ha":734,"x_min":314,"x_max":544,"o":"m 355 547 l 380 547 q 420 485 420 521 q 380 431 409 448 l 355 431 q 314 494 314 458 q 355 547 326 530 m 478 547 l 503 547 q 544 485 544 521 q 503 431 532 448 l 478 431 q 437 494 437 458 q 478 547 448 530 m 355 404 l 380 404 q 420 341 420 377 q 380 287 409 304 l 355 287 q 314 350 314 314 q 355 404 326 387 m 478 404 l 503 404 q 544 341 544 377 q 503 287 532 304 l 478 287 q 437 350 437 314 q 478 404 448 387 m 478 260 l 503 260 q 544 197 544 233 q 503 144 532 161 l 478 144 q 437 206 437 170 q 478 260 448 243 m 355 117 l 380 117 q 420 54 420 90 q 380 0 409 17 l 355 0 q 314 63 314 27 q 355 117 326 100 z "},"-":{"ha":734,"x_min":191,"x_max":544,"o":"m 232 547 l 256 547 q 298 485 298 521 q 256 431 286 448 l 232 431 q 191 494 191 458 q 232 547 202 530 m 355 547 l 380 547 q 420 485 420 521 q 380 431 409 448 l 355 431 q 314 494 314 458 q 355 547 326 530 m 478 547 l 503 547 q 544 485 544 521 q 503 431 532 448 l 478 431 q 437 494 437 458 q 478 547 448 530 z "},".":{"ha":734,"x_min":314,"x_max":544,"o":"m 355 260 l 380 260 q 420 197 420 233 q 380 144 409 161 l 355 144 q 314 206 314 170 q 355 260 326 243 m 478 260 l 503 260 q 544 197 544 233 q 503 144 532 161 l 478 144 q 437 206 437 170 q 478 260 448 243 m 355 117 l 380 117 q 420 54 420 90 q 380 0 409 17 l 355 0 q 314 63 314 27 q 355 117 326 100 m 478 117 l 503 117 q 544 54 544 90 q 503 0 532 17 l 478 0 q 437 63 437 27 q 478 117 448 100 z "},"/":{"ha":734,"x_min":68,"x_max":667,"o":"m 601 835 l 626 835 q 667 772 667 808 q 626 718 655 734 l 601 718 q 560 781 560 745 q 601 835 571 818 m 478 691 l 503 691 q 544 628 544 664 q 503 574 532 591 l 478 574 q 437 637 437 602 q 478 691 448 674 m 355 547 l 380 547 q 420 485 420 521 q 380 431 409 448 l 355 431 q 314 494 314 458 q 355 547 326 530 m 232 404 l 256 404 q 298 341 298 377 q 256 287 286 304 l 232 287 q 191 350 191 314 q 232 404 202 387 m 109 260 l 134 260 q 174 197 174 233 q 134 144 163 161 l 109 144 q 68 206 68 170 q 109 260 79 243 z "},":":{"ha":734,"x_min":314,"x_max":420,"o":"m 355 691 l 380 691 q 420 628 420 664 q 380 574 409 591 l 355 574 q 314 637 314 602 q 355 691 326 674 m 355 404 l 380 404 q 420 341 420 377 q 380 287 409 304 l 355 287 q 314 350 314 314 q 355 404 326 387 z "},";":{"ha":734,"x_min":191,"x_max":420,"o":"m 232 260 l 256 260 q 298 197 298 233 q 256 144 286 161 l 232 144 q 191 206 191 170 q 232 260 202 243 m 355 691 l 380 691 q 420 628 420 664 q 380 574 409 591 l 355 574 q 314 637 314 602 q 355 691 326 674 m 355 404 l 380 404 q 420 341 420 377 q 380 287 409 304 l 355 287 q 314 350 314 314 q 355 404 326 387 z "},"<":{"ha":734,"x_min":191,"x_max":544,"o":"m 478 835 l 503 835 q 544 772 544 808 q 503 718 532 734 l 478 718 q 437 781 437 745 q 478 835 448 818 m 355 691 l 380 691 q 420 628 420 664 q 380 574 409 591 l 355 574 q 314 637 314 602 q 355 691 326 674 m 232 547 l 256 547 q 298 485 298 521 q 256 431 286 448 l 232 431 q 191 494 191 458 q 232 547 202 530 m 355 404 l 380 404 q 420 341 420 377 q 380 287 409 304 l 355 287 q 314 350 314 314 q 355 404 326 387 m 478 260 l 503 260 q 544 197 544 233 q 503 144 532 161 l 478 144 q 437 206 437 170 q 478 260 448 243 z "},"=":{"ha":734,"x_min":68,"x_max":667,"o":"m 109 691 l 134 691 q 174 628 174 664 q 134 574 163 591 l 109 574 q 68 637 68 602 q 109 691 79 674 m 232 691 l 256 691 q 298 628 298 664 q 256 574 286 591 l 232 574 q 191 637 191 602 q 232 691 202 674 m 355 691 l 380 691 q 420 628 420 664 q 380 574 409 591 l 355 574 q 314 637 314 602 q 355 691 326 674 m 478 691 l 503 691 q 544 628 544 664 q 503 574 532 591 l 478 574 q 437 637 437 602 q 478 691 448 674 m 601 691 l 626 691 q 667 628 667 664 q 626 574 655 591 l 601 574 q 560 637 560 602 q 601 691 571 674 m 109 404 l 134 404 q 174 341 174 377 q 134 287 163 304 l 109 287 q 68 350 68 314 q 109 404 79 387 m 232 404 l 256 404 q 298 341 298 377 q 256 287 286 304 l 232 287 q 191 350 191 314 q 232 404 202 387 m 355 404 l 380 404 q 420 341 420 377 q 380 287 409 304 l 355 287 q 314 350 314 314 q 355 404 326 387 m 478 404 l 503 404 q 544 341 544 377 q 503 287 532 304 l 478 287 q 437 350 437 314 q 478 404 448 387 m 601 404 l 626 404 q 667 341 667 377 q 626 287 655 304 l 601 287 q 560 350 560 314 q 601 404 571 387 z "},">":{"ha":734,"x_min":191,"x_max":544,"o":"m 232 835 l 256 835 q 298 772 298 808 q 256 718 286 734 l 232 718 q 191 781 191 745 q 232 835 202 818 m 355 691 l 380 691 q 420 628 420 664 q 380 574 409 591 l 355 574 q 314 637 314 602 q 355 691 326 674 m 478 547 l 503 547 q 544 485 544 521 q 503 431 532 448 l 478 431 q 437 494 437 458 q 478 547 448 530 m 355 404 l 380 404 q 420 341 420 377 q 380 287 409 304 l 355 287 q 314 350 314 314 q 355 404 326 387 m 232 260 l 256 260 q 298 197 298 233 q 256 144 286 161 l 232 144 q 191 206 191 170 q 232 260 202 243 z "},"?":{"ha":734,"x_min":68,"x_max":667,"o":"m 232 978 l 256 978 q 298 916 298 951 q 256 861 286 878 l 232 861 q 191 924 191 888 q 232 978 202 962 m 355 978 l 380 978 q 420 916 420 951 q 380 861 409 878 l 355 861 q 314 924 314 888 q 355 978 326 962 m 478 978 l 503 978 q 544 916 544 951 q 503 861 532 878 l 478 861 q 437 924 437 888 q 478 978 448 962 m 601 835 l 626 835 q 667 772 667 808 q 626 718 655 734 l 601 718 q 560 781 560 745 q 601 835 571 818 m 601 691 l 626 691 q 667 628 667 664 q 626 574 655 591 l 601 574 q 560 637 560 602 q 601 691 571 674 m 355 117 l 380 117 q 420 54 420 90 q 380 0 409 17 l 355 0 q 314 63 314 27 q 355 117 326 100 m 109 835 l 134 835 q 174 772 174 808 q 134 718 163 734 l 109 718 q 68 781 68 745 q 109 835 79 818 m 478 547 l 503 547 q 544 485 544 521 q 503 431 532 448 l 478 431 q 437 494 437 458 q 478 547 448 530 m 355 404 l 380 404 q 420 341 420 377 q 380 287 409 304 l 355 287 q 314 350 314 314 q 355 404 326 387 z "},"@":{"ha":734,"x_min":68,"x_max":667,"o":"m 232 978 l 256 978 q 298 916 298 951 q 256 861 286 878 l 232 861 q 191 924 191 888 q 232 978 202 962 m 355 978 l 380 978 q 420 916 420 951 q 380 861 409 878 l 355 861 q 314 924 314 888 q 355 978 326 962 m 478 978 l 503 978 q 544 916 544 951 q 503 861 532 878 l 478 861 q 437 924 437 888 q 478 978 448 962 m 109 835 l 134 835 q 174 772 174 808 q 134 718 163 734 l 109 718 q 68 781 68 745 q 109 835 79 818 m 601 835 l 626 835 q 667 772 667 808 q 626 718 655 734 l 601 718 q 560 781 560 745 q 601 835 571 818 m 109 691 l 134 691 q 174 628 174 664 q 134 574 163 591 l 109 574 q 68 637 68 602 q 109 691 79 674 m 478 691 l 503 691 q 544 628 544 664 q 503 574 532 591 l 478 574 q 437 637 437 602 q 478 691 448 674 m 601 691 l 626 691 q 667 628 667 664 q 626 574 655 591 l 601 574 q 560 637 560 602 q 601 691 571 674 m 109 547 l 134 547 q 174 485 174 521 q 134 431 163 448 l 109 431 q 68 494 68 458 q 109 547 79 530 m 355 547 l 380 547 q 420 485 420 521 q 380 431 409 448 l 355 431 q 314 494 314 458 q 355 547 326 530 m 601 547 l 626 547 q 667 485 667 521 q 626 431 655 448 l 601 431 q 560 494 560 458 q 601 547 571 530 m 109 404 l 134 404 q 174 341 174 377 q 134 287 163 304 l 109 287 q 68 350 68 314 q 109 404 79 387 m 478 404 l 503 404 q 544 341 544 377 q 503 287 532 304 l 478 287 q 437 350 437 314 q 478 404 448 387 m 601 404 l 626 404 q 667 341 667 377 q 626 287 655 304 l 601 287 q 560 350 560 314 q 601 404 571 387 m 109 260 l 134 260 q 174 197 174 233 q 134 144 163 161 l 109 144 q 68 206 68 170 q 109 260 79 243 m 232 117 l 256 117 q 298 54 298 90 q 256 0 286 17 l 232 0 q 191 63 191 27 q 232 117 202 100 m 355 117 l 380 117 q 420 54 420 90 q 380 0 409 17 l 355 0 q 314 63 314 27 q 355 117 326 100 m 478 117 l 503 117 q 544 54 544 90 q 503 0 532 17 l 478 0 q 437 63 437 27 q 478 117 448 100 m 601 117 l 626 117 q 667 54 667 90 q 626 0 655 17 l 601 0 q 560 63 560 27 q 601 117 571 100 z "},"A":{"ha":734,"x_min":68,"x_max":667,"o":"m 232 978 l 256 978 q 298 916 298 951 q 256 861 286 878 l 232 861 q 191 924 191 888 q 232 978 202 962 m 355 978 l 380 978 q 420 916 420 951 q 380 861 409 878 l 355 861 q 314 924 314 888 q 355 978 326 962 m 478 978 l 503 978 q 544 916 544 951 q 503 861 532 878 l 478 861 q 437 924 437 888 q 478 978 448 962 m 109 835 l 134 835 q 174 772 174 808 q 134 718 163 734 l 109 718 q 68 781 68 745 q 109 835 79 818 m 601 835 l 626 835 q 667 772 667 808 q 626 718 655 734 l 601 718 q 560 781 560 745 q 601 835 571 818 m 109 691 l 134 691 q 174 628 174 664 q 134 574 163 591 l 109 574 q 68 637 68 602 q 109 691 79 674 m 601 691 l 626 691 q 667 628 667 664 q 626 574 655 591 l 601 574 q 560 637 560 602 q 601 691 571 674 m 109 547 l 134 547 q 174 485 174 521 q 134 431 163 448 l 109 431 q 68 494 68 458 q 109 547 79 530 m 232 547 l 256 547 q 298 485 298 521 q 256 431 286 448 l 232 431 q 191 494 191 458 q 232 547 202 530 m 355 547 l 380 547 q 420 485 420 521 q 380 431 409 448 l 355 431 q 314 494 314 458 q 355 547 326 530 m 478 547 l 503 547 q 544 485 544 521 q 503 431 532 448 l 478 431 q 437 494 437 458 q 478 547 448 530 m 601 547 l 626 547 q 667 485 667 521 q 626 431 655 448 l 601 431 q 560 494 560 458 q 601 547 571 530 m 109 404 l 134 404 q 174 341 174 377 q 134 287 163 304 l 109 287 q 68 350 68 314 q 109 404 79 387 m 601 404 l 626 404 q 667 341 667 377 q 626 287 655 304 l 601 287 q 560 350 560 314 q 601 404 571 387 m 109 260 l 134 260 q 174 197 174 233 q 134 144 163 161 l 109 144 q 68 206 68 170 q 109 260 79 243 m 601 260 l 626 260 q 667 197 667 233 q 626 144 655 161 l 601 144 q 560 206 560 170 q 601 260 571 243 m 109 117 l 134 117 q 174 54 174 90 q 134 0 163 17 l 109 0 q 68 63 68 27 q 109 117 79 100 m 601 117 l 626 117 q 667 54 667 90 q 626 0 655 17 l 601 0 q 560 63 560 27 q 601 117 571 100 z "},"B":{"ha":734,"x_min":68,"x_max":667,"o":"m 109 978 l 134 978 q 174 916 174 951 q 134 861 163 878 l 109 861 q 68 924 68 888 q 109 978 79 962 m 232 978 l 256 978 q 298 916 298 951 q 256 861 286 878 l 232 861 q 191 924 191 888 q 232 978 202 962 m 355 978 l 380 978 q 420 916 420 951 q 380 861 409 878 l 355 861 q 314 924 314 888 q 355 978 326 962 m 478 978 l 503 978 q 544 916 544 951 q 503 861 532 878 l 478 861 q 437 924 437 888 q 478 978 448 962 m 109 835 l 134 835 q 174 772 174 808 q 134 718 163 734 l 109 718 q 68 781 68 745 q 109 835 79 818 m 601 835 l 626 835 q 667 772 667 808 q 626 718 655 734 l 601 718 q 560 781 560 745 q 601 835 571 818 m 109 691 l 134 691 q 174 628 174 664 q 134 574 163 591 l 109 574 q 68 637 68 602 q 109 691 79 674 m 601 691 l 626 691 q 667 628 667 664 q 626 574 655 591 l 601 574 q 560 637 560 602 q 601 691 571 674 m 109 547 l 134 547 q 174 485 174 521 q 134 431 163 448 l 109 431 q 68 494 68 458 q 109 547 79 530 m 232 547 l 256 547 q 298 485 298 521 q 256 431 286 448 l 232 431 q 191 494 191 458 q 232 547 202 530 m 355 547 l 380 547 q 420 485 420 521 q 380 431 409 448 l 355 431 q 314 494 314 458 q 355 547 326 530 m 478 547 l 503 547 q 544 485 544 521 q 503 431 532 448 l 478 431 q 437 494 437 458 q 478 547 448 530 m 109 404 l 134 404 q 174 341 174 377 q 134 287 163 304 l 109 287 q 68 350 68 314 q 109 404 79 387 m 601 404 l 626 404 q 667 341 667 377 q 626 287 655 304 l 601 287 q 560 350 560 314 q 601 404 571 387 m 109 260 l 134 260 q 174 197 174 233 q 134 144 163 161 l 109 144 q 68 206 68 170 q 109 260 79 243 m 601 260 l 626 260 q 667 197 667 233 q 626 144 655 161 l 601 144 q 560 206 560 170 q 601 260 571 243 m 109 117 l 134 117 q 174 54 174 90 q 134 0 163 17 l 109 0 q 68 63 68 27 q 109 117 79 100 m 232 117 l 256 117 q 298 54 298 90 q 256 0 286 17 l 232 0 q 191 63 191 27 q 232 117 202 100 m 355 117 l 380 117 q 420 54 420 90 q 380 0 409 17 l 355 0 q 314 63 314 27 q 355 117 326 100 m 478 117 l 503 117 q 544 54 544 90 q 503 0 532 17 l 478 0 q 437 63 437 27 q 478 117 448 100 z "},"C":{"ha":734,"x_min":68,"x_max":667,"o":"m 232 978 l 256 978 q 298 916 298 951 q 256 861 286 878 l 232 861 q 191 924 191 888 q 232 978 202 962 m 355 978 l 380 978 q 420 916 420 951 q 380 861 409 878 l 355 861 q 314 924 314 888 q 355 978 326 962 m 478 978 l 503 978 q 544 916 544 951 q 503 861 532 878 l 478 861 q 437 924 437 888 q 478 978 448 962 m 109 835 l 134 835 q 174 772 174 808 q 134 718 163 734 l 109 718 q 68 781 68 745 q 109 835 79 818 m 601 835 l 626 835 q 667 772 667 808 q 626 718 655 734 l 601 718 q 560 781 560 745 q 601 835 571 818 m 109 691 l 134 691 q 174 628 174 664 q 134 574 163 591 l 109 574 q 68 637 68 602 q 109 691 79 674 m 109 547 l 134 547 q 174 485 174 521 q 134 431 163 448 l 109 431 q 68 494 68 458 q 109 547 79 530 m 109 404 l 134 404 q 174 341 174 377 q 134 287 163 304 l 109 287 q 68 350 68 314 q 109 404 79 387 m 109 260 l 134 260 q 174 197 174 233 q 134 144 163 161 l 109 144 q 68 206 68 170 q 109 260 79 243 m 601 260 l 626 260 q 667 197 667 233 q 626 144 655 161 l 601 144 q 560 206 560 170 q 601 260 571 243 m 232 117 l 256 117 q 298 54 298 90 q 256 0 286 17 l 232 0 q 191 63 191 27 q 232 117 202 100 m 355 117 l 380 117 q 420 54 420 90 q 380 0 409 17 l 355 0 q 314 63 314 27 q 355 117 326 100 m 478 117 l 503 117 q 544 54 544 90 q 503 0 532 17 l 478 0 q 437 63 437 27 q 478 117 448 100 z "},"D":{"ha":734,"x_min":68,"x_max":667,"o":"m 109 978 l 134 978 q 174 916 174 951 q 134 861 163 878 l 109 861 q 68 924 68 888 q 109 978 79 962 m 232 978 l 256 978 q 298 916 298 951 q 256 861 286 878 l 232 861 q 191 924 191 888 q 232 978 202 962 m 355 978 l 380 978 q 420 916 420 951 q 380 861 409 878 l 355 861 q 314 924 314 888 q 355 978 326 962 m 478 978 l 503 978 q 544 916 544 951 q 503 861 532 878 l 478 861 q 437 924 437 888 q 478 978 448 962 m 109 835 l 134 835 q 174 772 174 808 q 134 718 163 734 l 109 718 q 68 781 68 745 q 109 835 79 818 m 601 835 l 626 835 q 667 772 667 808 q 626 718 655 734 l 601 718 q 560 781 560 745 q 601 835 571 818 m 109 691 l 134 691 q 174 628 174 664 q 134 574 163 591 l 109 574 q 68 637 68 602 q 109 691 79 674 m 601 691 l 626 691 q 667 628 667 664 q 626 574 655 591 l 601 574 q 560 637 560 602 q 601 691 571 674 m 109 547 l 134 547 q 174 485 174 521 q 134 431 163 448 l 109 431 q 68 494 68 458 q 109 547 79 530 m 601 547 l 626 547 q 667 485 667 521 q 626 431 655 448 l 601 431 q 560 494 560 458 q 601 547 571 530 m 109 404 l 134 404 q 174 341 174 377 q 134 287 163 304 l 109 287 q 68 350 68 314 q 109 404 79 387 m 601 404 l 626 404 q 667 341 667 377 q 626 287 655 304 l 601 287 q 560 350 560 314 q 601 404 571 387 m 109 260 l 134 260 q 174 197 174 233 q 134 144 163 161 l 109 144 q 68 206 68 170 q 109 260 79 243 m 601 260 l 626 260 q 667 197 667 233 q 626 144 655 161 l 601 144 q 560 206 560 170 q 601 260 571 243 m 109 117 l 134 117 q 174 54 174 90 q 134 0 163 17 l 109 0 q 68 63 68 27 q 109 117 79 100 m 232 117 l 256 117 q 298 54 298 90 q 256 0 286 17 l 232 0 q 191 63 191 27 q 232 117 202 100 m 355 117 l 380 117 q 420 54 420 90 q 380 0 409 17 l 355 0 q 314 63 314 27 q 355 117 326 100 m 478 117 l 503 117 q 544 54 544 90 q 503 0 532 17 l 478 0 q 437 63 437 27 q 478 117 448 100 z "},"E":{"ha":734,"x_min":68,"x_max":667,"o":"m 109 978 l 134 978 q 174 916 174 951 q 134 861 163 878 l 109 861 q 68 924 68 888 q 109 978 79 962 m 232 978 l 256 978 q 298 916 298 951 q 256 861 286 878 l 232 861 q 191 924 191 888 q 232 978 202 962 m 355 978 l 380 978 q 420 916 420 951 q 380 861 409 878 l 355 861 q 314 924 314 888 q 355 978 326 962 m 478 978 l 503 978 q 544 916 544 951 q 503 861 532 878 l 478 861 q 437 924 437 888 q 478 978 448 962 m 601 978 l 626 978 q 667 916 667 951 q 626 861 655 878 l 601 861 q 560 924 560 888 q 601 978 571 962 m 109 835 l 134 835 q 174 772 174 808 q 134 718 163 734 l 109 718 q 68 781 68 745 q 109 835 79 818 m 109 691 l 134 691 q 174 628 174 664 q 134 574 163 591 l 109 574 q 68 637 68 602 q 109 691 79 674 m 109 547 l 134 547 q 174 485 174 521 q 134 431 163 448 l 109 431 q 68 494 68 458 q 109 547 79 530 m 232 547 l 256 547 q 298 485 298 521 q 256 431 286 448 l 232 431 q 191 494 191 458 q 232 547 202 530 m 355 547 l 380 547 q 420 485 420 521 q 380 431 409 448 l 355 431 q 314 494 314 458 q 355 547 326 530 m 478 547 l 503 547 q 544 485 544 521 q 503 431 532 448 l 478 431 q 437 494 437 458 q 478 547 448 530 m 109 404 l 134 404 q 174 341 174 377 q 134 287 163 304 l 109 287 q 68 350 68 314 q 109 404 79 387 m 109 260 l 134 260 q 174 197 174 233 q 134 144 163 161 l 109 144 q 68 206 68 170 q 109 260 79 243 m 109 117 l 134 117 q 174 54 174 90 q 134 0 163 17 l 109 0 q 68 63 68 27 q 109 117 79 100 m 232 117 l 256 117 q 298 54 298 90 q 256 0 286 17 l 232 0 q 191 63 191 27 q 232 117 202 100 m 355 117 l 380 117 q 420 54 420 90 q 380 0 409 17 l 355 0 q 314 63 314 27 q 355 117 326 100 m 478 117 l 503 117 q 544 54 544 90 q 503 0 532 17 l 478 0 q 437 63 437 27 q 478 117 448 100 m 601 117 l 626 117 q 667 54 667 90 q 626 0 655 17 l 601 0 q 560 63 560 27 q 601 117 571 100 z "},"F":{"ha":734,"x_min":68,"x_max":667,"o":"m 109 978 l 134 978 q 174 916 174 951 q 134 861 163 878 l 109 861 q 68 924 68 888 q 109 978 79 962 m 232 978 l 256 978 q 298 916 298 951 q 256 861 286 878 l 232 861 q 191 924 191 888 q 232 978 202 962 m 355 978 l 380 978 q 420 916 420 951 q 380 861 409 878 l 355 861 q 314 924 314 888 q 355 978 326 962 m 478 978 l 503 978 q 544 916 544 951 q 503 861 532 878 l 478 861 q 437 924 437 888 q 478 978 448 962 m 601 978 l 626 978 q 667 916 667 951 q 626 861 655 878 l 601 861 q 560 924 560 888 q 601 978 571 962 m 109 835 l 134 835 q 174 772 174 808 q 134 718 163 734 l 109 718 q 68 781 68 745 q 109 835 79 818 m 109 691 l 134 691 q 174 628 174 664 q 134 574 163 591 l 109 574 q 68 637 68 602 q 109 691 79 674 m 109 547 l 134 547 q 174 485 174 521 q 134 431 163 448 l 109 431 q 68 494 68 458 q 109 547 79 530 m 232 547 l 256 547 q 298 485 298 521 q 256 431 286 448 l 232 431 q 191 494 191 458 q 232 547 202 530 m 355 547 l 380 547 q 420 485 420 521 q 380 431 409 448 l 355 431 q 314 494 314 458 q 355 547 326 530 m 478 547 l 503 547 q 544 485 544 521 q 503 431 532 448 l 478 431 q 437 494 437 458 q 478 547 448 530 m 109 404 l 134 404 q 174 341 174 377 q 134 287 163 304 l 109 287 q 68 350 68 314 q 109 404 79 387 m 109 260 l 134 260 q 174 197 174 233 q 134 144 163 161 l 109 144 q 68 206 68 170 q 109 260 79 243 m 109 117 l 134 117 q 174 54 174 90 q 134 0 163 17 l 109 0 q 68 63 68 27 q 109 117 79 100 z "},"G":{"ha":734,"x_min":68,"x_max":667,"o":"m 232 978 l 256 978 q 298 916 298 951 q 256 861 286 878 l 232 861 q 191 924 191 888 q 232 978 202 962 m 355 978 l 380 978 q 420 916 420 951 q 380 861 409 878 l 355 861 q 314 924 314 888 q 355 978 326 962 m 478 978 l 503 978 q 544 916 544 951 q 503 861 532 878 l 478 861 q 437 924 437 888 q 478 978 448 962 m 109 835 l 134 835 q 174 772 174 808 q 134 718 163 734 l 109 718 q 68 781 68 745 q 109 835 79 818 m 601 835 l 626 835 q 667 772 667 808 q 626 718 655 734 l 601 718 q 560 781 560 745 q 601 835 571 818 m 109 691 l 134 691 q 174 628 174 664 q 134 574 163 591 l 109 574 q 68 637 68 602 q 109 691 79 674 m 109 547 l 134 547 q 174 485 174 521 q 134 431 163 448 l 109 431 q 68 494 68 458 q 109 547 79 530 m 355 547 l 380 547 q 420 485 420 521 q 380 431 409 448 l 355 431 q 314 494 314 458 q 355 547 326 530 m 478 547 l 503 547 q 544 485 544 521 q 503 431 532 448 l 478 431 q 437 494 437 458 q 478 547 448 530 m 601 547 l 626 547 q 667 485 667 521 q 626 431 655 448 l 601 431 q 560 494 560 458 q 601 547 571 530 m 109 404 l 134 404 q 174 341 174 377 q 134 287 163 304 l 109 287 q 68 350 68 314 q 109 404 79 387 m 601 404 l 626 404 q 667 341 667 377 q 626 287 655 304 l 601 287 q 560 350 560 314 q 601 404 571 387 m 109 260 l 134 260 q 174 197 174 233 q 134 144 163 161 l 109 144 q 68 206 68 170 q 109 260 79 243 m 601 260 l 626 260 q 667 197 667 233 q 626 144 655 161 l 601 144 q 560 206 560 170 q 601 260 571 243 m 232 117 l 256 117 q 298 54 298 90 q 256 0 286 17 l 232 0 q 191 63 191 27 q 232 117 202 100 m 355 117 l 380 117 q 420 54 420 90 q 380 0 409 17 l 355 0 q 314 63 314 27 q 355 117 326 100 m 478 117 l 503 117 q 544 54 544 90 q 503 0 532 17 l 478 0 q 437 63 437 27 q 478 117 448 100 z "},"H":{"ha":734,"x_min":68,"x_max":667,"o":"m 109 978 l 134 978 q 174 916 174 951 q 134 861 163 878 l 109 861 q 68 924 68 888 q 109 978 79 962 m 601 978 l 626 978 q 667 916 667 951 q 626 861 655 878 l 601 861 q 560 924 560 888 q 601 978 571 962 m 109 835 l 134 835 q 174 772 174 808 q 134 718 163 734 l 109 718 q 68 781 68 745 q 109 835 79 818 m 601 835 l 626 835 q 667 772 667 808 q 626 718 655 734 l 601 718 q 560 781 560 745 q 601 835 571 818 m 109 691 l 134 691 q 174 628 174 664 q 134 574 163 591 l 109 574 q 68 637 68 602 q 109 691 79 674 m 601 691 l 626 691 q 667 628 667 664 q 626 574 655 591 l 601 574 q 560 637 560 602 q 601 691 571 674 m 109 547 l 134 547 q 174 485 174 521 q 134 431 163 448 l 109 431 q 68 494 68 458 q 109 547 79 530 m 232 547 l 256 547 q 298 485 298 521 q 256 431 286 448 l 232 431 q 191 494 191 458 q 232 547 202 530 m 355 547 l 380 547 q 420 485 420 521 q 380 431 409 448 l 355 431 q 314 494 314 458 q 355 547 326 530 m 478 547 l 503 547 q 544 485 544 521 q 503 431 532 448 l 478 431 q 437 494 437 458 q 478 547 448 530 m 601 547 l 626 547 q 667 485 667 521 q 626 431 655 448 l 601 431 q 560 494 560 458 q 601 547 571 530 m 109 404 l 134 404 q 174 341 174 377 q 134 287 163 304 l 109 287 q 68 350 68 314 q 109 404 79 387 m 601 404 l 626 404 q 667 341 667 377 q 626 287 655 304 l 601 287 q 560 350 560 314 q 601 404 571 387 m 109 260 l 134 260 q 174 197 174 233 q 134 144 163 161 l 109 144 q 68 206 68 170 q 109 260 79 243 m 601 260 l 626 260 q 667 197 667 233 q 626 144 655 161 l 601 144 q 560 206 560 170 q 601 260 571 243 m 109 117 l 134 117 q 174 54 174 90 q 134 0 163 17 l 109 0 q 68 63 68 27 q 109 117 79 100 m 601 117 l 626 117 q 667 54 667 90 q 626 0 655 17 l 601 0 q 560 63 560 27 q 601 117 571 100 z "},"I":{"ha":734,"x_min":314,"x_max":420,"o":"m 355 978 l 380 978 q 420 916 420 951 q 380 861 409 878 l 355 861 q 314 924 314 888 q 355 978 326 962 m 355 835 l 380 835 q 420 772 420 808 q 380 718 409 734 l 355 718 q 314 781 314 745 q 355 835 326 818 m 355 691 l 380 691 q 420 628 420 664 q 380 574 409 591 l 355 574 q 314 637 314 602 q 355 691 326 674 m 355 547 l 380 547 q 420 485 420 521 q 380 431 409 448 l 355 431 q 314 494 314 458 q 355 547 326 530 m 355 404 l 380 404 q 420 341 420 377 q 380 287 409 304 l 355 287 q 314 350 314 314 q 355 404 326 387 m 355 260 l 380 260 q 420 197 420 233 q 380 144 409 161 l 355 144 q 314 206 314 170 q 355 260 326 243 m 355 117 l 380 117 q 420 54 420 90 q 380 0 409 17 l 355 0 q 314 63 314 27 q 355 117 326 100 z "},"J":{"ha":734,"x_min":68,"x_max":667,"o":"m 601 978 l 626 978 q 667 916 667 951 q 626 861 655 878 l 601 861 q 560 924 560 888 q 601 978 571 962 m 601 835 l 626 835 q 667 772 667 808 q 626 718 655 734 l 601 718 q 560 781 560 745 q 601 835 571 818 m 601 691 l 626 691 q 667 628 667 664 q 626 574 655 591 l 601 574 q 560 637 560 602 q 601 691 571 674 m 601 547 l 626 547 q 667 485 667 521 q 626 431 655 448 l 601 431 q 560 494 560 458 q 601 547 571 530 m 109 404 l 134 404 q 174 341 174 377 q 134 287 163 304 l 109 287 q 68 350 68 314 q 109 404 79 387 m 601 404 l 626 404 q 667 341 667 377 q 626 287 655 304 l 601 287 q 560 350 560 314 q 601 404 571 387 m 109 260 l 134 260 q 174 197 174 233 q 134 144 163 161 l 109 144 q 68 206 68 170 q 109 260 79 243 m 601 260 l 626 260 q 667 197 667 233 q 626 144 655 161 l 601 144 q 560 206 560 170 q 601 260 571 243 m 232 117 l 256 117 q 298 54 298 90 q 256 0 286 17 l 232 0 q 191 63 191 27 q 232 117 202 100 m 355 117 l 380 117 q 420 54 420 90 q 380 0 409 17 l 355 0 q 314 63 314 27 q 355 117 326 100 m 478 117 l 503 117 q 544 54 544 90 q 503 0 532 17 l 478 0 q 437 63 437 27 q 478 117 448 100 z "},"K":{"ha":734,"x_min":68,"x_max":667,"o":"m 109 978 l 134 978 q 174 916 174 951 q 134 861 163 878 l 109 861 q 68 924 68 888 q 109 978 79 962 m 601 978 l 626 978 q 667 916 667 951 q 626 861 655 878 l 601 861 q 560 924 560 888 q 601 978 571 962 m 109 835 l 134 835 q 174 772 174 808 q 134 718 163 734 l 109 718 q 68 781 68 745 q 109 835 79 818 m 478 835 l 503 835 q 544 772 544 808 q 503 718 532 734 l 478 718 q 437 781 437 745 q 478 835 448 818 m 109 691 l 134 691 q 174 628 174 664 q 134 574 163 591 l 109 574 q 68 637 68 602 q 109 691 79 674 m 355 691 l 380 691 q 420 628 420 664 q 380 574 409 591 l 355 574 q 314 637 314 602 q 355 691 326 674 m 109 547 l 134 547 q 174 485 174 521 q 134 431 163 448 l 109 431 q 68 494 68 458 q 109 547 79 530 m 232 547 l 256 547 q 298 485 298 521 q 256 431 286 448 l 232 431 q 191 494 191 458 q 232 547 202 530 m 109 404 l 134 404 q 174 341 174 377 q 134 287 163 304 l 109 287 q 68 350 68 314 q 109 404 79 387 m 355 404 l 380 404 q 420 341 420 377 q 380 287 409 304 l 355 287 q 314 350 314 314 q 355 404 326 387 m 109 260 l 134 260 q 174 197 174 233 q 134 144 163 161 l 109 144 q 68 206 68 170 q 109 260 79 243 m 478 260 l 503 260 q 544 197 544 233 q 503 144 532 161 l 478 144 q 437 206 437 170 q 478 260 448 243 m 109 117 l 134 117 q 174 54 174 90 q 134 0 163 17 l 109 0 q 68 63 68 27 q 109 117 79 100 m 601 117 l 626 117 q 667 54 667 90 q 626 0 655 17 l 601 0 q 560 63 560 27 q 601 117 571 100 z "},"L":{"ha":734,"x_min":68,"x_max":667,"o":"m 109 978 l 134 978 q 174 916 174 951 q 134 861 163 878 l 109 861 q 68 924 68 888 q 109 978 79 962 m 109 835 l 134 835 q 174 772 174 808 q 134 718 163 734 l 109 718 q 68 781 68 745 q 109 835 79 818 m 109 691 l 134 691 q 174 628 174 664 q 134 574 163 591 l 109 574 q 68 637 68 602 q 109 691 79 674 m 109 547 l 134 547 q 174 485 174 521 q 134 431 163 448 l 109 431 q 68 494 68 458 q 109 547 79 530 m 109 404 l 134 404 q 174 341 174 377 q 134 287 163 304 l 109 287 q 68 350 68 314 q 109 404 79 387 m 109 260 l 134 260 q 174 197 174 233 q 134 144 163 161 l 109 144 q 68 206 68 170 q 109 260 79 243 m 109 117 l 134 117 q 174 54 174 90 q 134 0 163 17 l 109 0 q 68 63 68 27 q 109 117 79 100 m 232 117 l 256 117 q 298 54 298 90 q 256 0 286 17 l 232 0 q 191 63 191 27 q 232 117 202 100 m 355 117 l 380 117 q 420 54 420 90 q 380 0 409 17 l 355 0 q 314 63 314 27 q 355 117 326 100 m 478 117 l 503 117 q 544 54 544 90 q 503 0 532 17 l 478 0 q 437 63 437 27 q 478 117 448 100 m 601 117 l 626 117 q 667 54 667 90 q 626 0 655 17 l 601 0 q 560 63 560 27 q 601 117 571 100 z "},"M":{"ha":734,"x_min":68,"x_max":667,"o":"m 109 978 l 134 978 q 174 916 174 951 q 134 861 163 878 l 109 861 q 68 924 68 888 q 109 978 79 962 m 601 978 l 626 978 q 667 916 667 951 q 626 861 655 878 l 601 861 q 560 924 560 888 q 601 978 571 962 m 109 835 l 134 835 q 174 772 174 808 q 134 718 163 734 l 109 718 q 68 781 68 745 q 109 835 79 818 m 232 835 l 256 835 q 298 772 298 808 q 256 718 286 734 l 232 718 q 191 781 191 745 q 232 835 202 818 m 478 835 l 503 835 q 544 772 544 808 q 503 718 532 734 l 478 718 q 437 781 437 745 q 478 835 448 818 m 601 835 l 626 835 q 667 772 667 808 q 626 718 655 734 l 601 718 q 560 781 560 745 q 601 835 571 818 m 109 691 l 134 691 q 174 628 174 664 q 134 574 163 591 l 109 574 q 68 637 68 602 q 109 691 79 674 m 355 691 l 380 691 q 420 628 420 664 q 380 574 409 591 l 355 574 q 314 637 314 602 q 355 691 326 674 m 601 691 l 626 691 q 667 628 667 664 q 626 574 655 591 l 601 574 q 560 637 560 602 q 601 691 571 674 m 109 547 l 134 547 q 174 485 174 521 q 134 431 163 448 l 109 431 q 68 494 68 458 q 109 547 79 530 m 355 547 l 380 547 q 420 485 420 521 q 380 431 409 448 l 355 431 q 314 494 314 458 q 355 547 326 530 m 601 547 l 626 547 q 667 485 667 521 q 626 431 655 448 l 601 431 q 560 494 560 458 q 601 547 571 530 m 109 404 l 134 404 q 174 341 174 377 q 134 287 163 304 l 109 287 q 68 350 68 314 q 109 404 79 387 m 601 404 l 626 404 q 667 341 667 377 q 626 287 655 304 l 601 287 q 560 350 560 314 q 601 404 571 387 m 109 260 l 134 260 q 174 197 174 233 q 134 144 163 161 l 109 144 q 68 206 68 170 q 109 260 79 243 m 601 260 l 626 260 q 667 197 667 233 q 626 144 655 161 l 601 144 q 560 206 560 170 q 601 260 571 243 m 109 117 l 134 117 q 174 54 174 90 q 134 0 163 17 l 109 0 q 68 63 68 27 q 109 117 79 100 m 601 117 l 626 117 q 667 54 667 90 q 626 0 655 17 l 601 0 q 560 63 560 27 q 601 117 571 100 z "},"N":{"ha":734,"x_min":68,"x_max":667,"o":"m 109 978 l 134 978 q 174 916 174 951 q 134 861 163 878 l 109 861 q 68 924 68 888 q 109 978 79 962 m 601 978 l 626 978 q 667 916 667 951 q 626 861 655 878 l 601 861 q 560 924 560 888 q 601 978 571 962 m 109 835 l 134 835 q 174 772 174 808 q 134 718 163 734 l 109 718 q 68 781 68 745 q 109 835 79 818 m 232 835 l 256 835 q 298 772 298 808 q 256 718 286 734 l 232 718 q 191 781 191 745 q 232 835 202 818 m 601 835 l 626 835 q 667 772 667 808 q 626 718 655 734 l 601 718 q 560 781 560 745 q 601 835 571 818 m 109 691 l 134 691 q 174 628 174 664 q 134 574 163 591 l 109 574 q 68 637 68 602 q 109 691 79 674 m 355 691 l 380 691 q 420 628 420 664 q 380 574 409 591 l 355 574 q 314 637 314 602 q 355 691 326 674 m 601 691 l 626 691 q 667 628 667 664 q 626 574 655 591 l 601 574 q 560 637 560 602 q 601 691 571 674 m 109 547 l 134 547 q 174 485 174 521 q 134 431 163 448 l 109 431 q 68 494 68 458 q 109 547 79 530 m 478 547 l 503 547 q 544 485 544 521 q 503 431 532 448 l 478 431 q 437 494 437 458 q 478 547 448 530 m 601 547 l 626 547 q 667 485 667 521 q 626 431 655 448 l 601 431 q 560 494 560 458 q 601 547 571 530 m 109 404 l 134 404 q 174 341 174 377 q 134 287 163 304 l 109 287 q 68 350 68 314 q 109 404 79 387 m 601 404 l 626 404 q 667 341 667 377 q 626 287 655 304 l 601 287 q 560 350 560 314 q 601 404 571 387 m 109 260 l 134 260 q 174 197 174 233 q 134 144 163 161 l 109 144 q 68 206 68 170 q 109 260 79 243 m 601 260 l 626 260 q 667 197 667 233 q 626 144 655 161 l 601 144 q 560 206 560 170 q 601 260 571 243 m 109 117 l 134 117 q 174 54 174 90 q 134 0 163 17 l 109 0 q 68 63 68 27 q 109 117 79 100 m 601 117 l 626 117 q 667 54 667 90 q 626 0 655 17 l 601 0 q 560 63 560 27 q 601 117 571 100 z "},"O":{"ha":734,"x_min":68,"x_max":667,"o":"m 232 978 l 256 978 q 298 916 298 951 q 256 861 286 878 l 232 861 q 191 924 191 888 q 232 978 202 962 m 355 978 l 380 978 q 420 916 420 951 q 380 861 409 878 l 355 861 q 314 924 314 888 q 355 978 326 962 m 478 978 l 503 978 q 544 916 544 951 q 503 861 532 878 l 478 861 q 437 924 437 888 q 478 978 448 962 m 109 835 l 134 835 q 174 772 174 808 q 134 718 163 734 l 109 718 q 68 781 68 745 q 109 835 79 818 m 601 835 l 626 835 q 667 772 667 808 q 626 718 655 734 l 601 718 q 560 781 560 745 q 601 835 571 818 m 109 691 l 134 691 q 174 628 174 664 q 134 574 163 591 l 109 574 q 68 637 68 602 q 109 691 79 674 m 601 691 l 626 691 q 667 628 667 664 q 626 574 655 591 l 601 574 q 560 637 560 602 q 601 691 571 674 m 109 547 l 134 547 q 174 485 174 521 q 134 431 163 448 l 109 431 q 68 494 68 458 q 109 547 79 530 m 601 547 l 626 547 q 667 485 667 521 q 626 431 655 448 l 601 431 q 560 494 560 458 q 601 547 571 530 m 109 404 l 134 404 q 174 341 174 377 q 134 287 163 304 l 109 287 q 68 350 68 314 q 109 404 79 387 m 601 404 l 626 404 q 667 341 667 377 q 626 287 655 304 l 601 287 q 560 350 560 314 q 601 404 571 387 m 109 260 l 134 260 q 174 197 174 233 q 134 144 163 161 l 109 144 q 68 206 68 170 q 109 260 79 243 m 601 260 l 626 260 q 667 197 667 233 q 626 144 655 161 l 601 144 q 560 206 560 170 q 601 260 571 243 m 232 117 l 256 117 q 298 54 298 90 q 256 0 286 17 l 232 0 q 191 63 191 27 q 232 117 202 100 m 355 117 l 380 117 q 420 54 420 90 q 380 0 409 17 l 355 0 q 314 63 314 27 q 355 117 326 100 m 478 117 l 503 117 q 544 54 544 90 q 503 0 532 17 l 478 0 q 437 63 437 27 q 478 117 448 100 z "},"P":{"ha":734,"x_min":68,"x_max":667,"o":"m 109 978 l 134 978 q 174 916 174 951 q 134 861 163 878 l 109 861 q 68 924 68 888 q 109 978 79 962 m 232 978 l 256 978 q 298 916 298 951 q 256 861 286 878 l 232 861 q 191 924 191 888 q 232 978 202 962 m 355 978 l 380 978 q 420 916 420 951 q 380 861 409 878 l 355 861 q 314 924 314 888 q 355 978 326 962 m 478 978 l 503 978 q 544 916 544 951 q 503 861 532 878 l 478 861 q 437 924 437 888 q 478 978 448 962 m 109 835 l 134 835 q 174 772 174 808 q 134 718 163 734 l 109 718 q 68 781 68 745 q 109 835 79 818 m 601 835 l 626 835 q 667 772 667 808 q 626 718 655 734 l 601 718 q 560 781 560 745 q 601 835 571 818 m 109 691 l 134 691 q 174 628 174 664 q 134 574 163 591 l 109 574 q 68 637 68 602 q 109 691 79 674 m 601 691 l 626 691 q 667 628 667 664 q 626 574 655 591 l 601 574 q 560 637 560 602 q 601 691 571 674 m 109 547 l 134 547 q 174 485 174 521 q 134 431 163 448 l 109 431 q 68 494 68 458 q 109 547 79 530 m 232 547 l 256 547 q 298 485 298 521 q 256 431 286 448 l 232 431 q 191 494 191 458 q 232 547 202 530 m 355 547 l 380 547 q 420 485 420 521 q 380 431 409 448 l 355 431 q 314 494 314 458 q 355 547 326 530 m 478 547 l 503 547 q 544 485 544 521 q 503 431 532 448 l 478 431 q 437 494 437 458 q 478 547 448 530 m 109 404 l 134 404 q 174 341 174 377 q 134 287 163 304 l 109 287 q 68 350 68 314 q 109 404 79 387 m 109 260 l 134 260 q 174 197 174 233 q 134 144 163 161 l 109 144 q 68 206 68 170 q 109 260 79 243 m 109 117 l 134 117 q 174 54 174 90 q 134 0 163 17 l 109 0 q 68 63 68 27 q 109 117 79 100 z "},"Q":{"ha":734,"x_min":68,"x_max":667,"o":"m 232 978 l 256 978 q 298 916 298 951 q 256 861 286 878 l 232 861 q 191 924 191 888 q 232 978 202 962 m 355 978 l 380 978 q 420 916 420 951 q 380 861 409 878 l 355 861 q 314 924 314 888 q 355 978 326 962 m 478 978 l 503 978 q 544 916 544 951 q 503 861 532 878 l 478 861 q 437 924 437 888 q 478 978 448 962 m 109 835 l 134 835 q 174 772 174 808 q 134 718 163 734 l 109 718 q 68 781 68 745 q 109 835 79 818 m 601 835 l 626 835 q 667 772 667 808 q 626 718 655 734 l 601 718 q 560 781 560 745 q 601 835 571 818 m 109 691 l 134 691 q 174 628 174 664 q 134 574 163 591 l 109 574 q 68 637 68 602 q 109 691 79 674 m 601 691 l 626 691 q 667 628 667 664 q 626 574 655 591 l 601 574 q 560 637 560 602 q 601 691 571 674 m 109 547 l 134 547 q 174 485 174 521 q 134 431 163 448 l 109 431 q 68 494 68 458 q 109 547 79 530 m 601 547 l 626 547 q 667 485 667 521 q 626 431 655 448 l 601 431 q 560 494 560 458 q 601 547 571 530 m 109 404 l 134 404 q 174 341 174 377 q 134 287 163 304 l 109 287 q 68 350 68 314 q 109 404 79 387 m 355 404 l 380 404 q 420 341 420 377 q 380 287 409 304 l 355 287 q 314 350 314 314 q 355 404 326 387 m 601 404 l 626 404 q 667 341 667 377 q 626 287 655 304 l 601 287 q 560 350 560 314 q 601 404 571 387 m 109 260 l 134 260 q 174 197 174 233 q 134 144 163 161 l 109 144 q 68 206 68 170 q 109 260 79 243 m 478 260 l 503 260 q 544 197 544 233 q 503 144 532 161 l 478 144 q 437 206 437 170 q 478 260 448 243 m 232 117 l 256 117 q 298 54 298 90 q 256 0 286 17 l 232 0 q 191 63 191 27 q 232 117 202 100 m 355 117 l 380 117 q 420 54 420 90 q 380 0 409 17 l 355 0 q 314 63 314 27 q 355 117 326 100 m 601 117 l 626 117 q 667 54 667 90 q 626 0 655 17 l 601 0 q 560 63 560 27 q 601 117 571 100 z "},"R":{"ha":734,"x_min":68,"x_max":667,"o":"m 109 978 l 134 978 q 174 916 174 951 q 134 861 163 878 l 109 861 q 68 924 68 888 q 109 978 79 962 m 232 978 l 256 978 q 298 916 298 951 q 256 861 286 878 l 232 861 q 191 924 191 888 q 232 978 202 962 m 355 978 l 380 978 q 420 916 420 951 q 380 861 409 878 l 355 861 q 314 924 314 888 q 355 978 326 962 m 478 978 l 503 978 q 544 916 544 951 q 503 861 532 878 l 478 861 q 437 924 437 888 q 478 978 448 962 m 109 835 l 134 835 q 174 772 174 808 q 134 718 163 734 l 109 718 q 68 781 68 745 q 109 835 79 818 m 601 835 l 626 835 q 667 772 667 808 q 626 718 655 734 l 601 718 q 560 781 560 745 q 601 835 571 818 m 109 691 l 134 691 q 174 628 174 664 q 134 574 163 591 l 109 574 q 68 637 68 602 q 109 691 79 674 m 601 691 l 626 691 q 667 628 667 664 q 626 574 655 591 l 601 574 q 560 637 560 602 q 601 691 571 674 m 109 547 l 134 547 q 174 485 174 521 q 134 431 163 448 l 109 431 q 68 494 68 458 q 109 547 79 530 m 232 547 l 256 547 q 298 485 298 521 q 256 431 286 448 l 232 431 q 191 494 191 458 q 232 547 202 530 m 355 547 l 380 547 q 420 485 420 521 q 380 431 409 448 l 355 431 q 314 494 314 458 q 355 547 326 530 m 478 547 l 503 547 q 544 485 544 521 q 503 431 532 448 l 478 431 q 437 494 437 458 q 478 547 448 530 m 109 404 l 134 404 q 174 341 174 377 q 134 287 163 304 l 109 287 q 68 350 68 314 q 109 404 79 387 m 355 404 l 380 404 q 420 341 420 377 q 380 287 409 304 l 355 287 q 314 350 314 314 q 355 404 326 387 m 109 260 l 134 260 q 174 197 174 233 q 134 144 163 161 l 109 144 q 68 206 68 170 q 109 260 79 243 m 478 260 l 503 260 q 544 197 544 233 q 503 144 532 161 l 478 144 q 437 206 437 170 q 478 260 448 243 m 109 117 l 134 117 q 174 54 174 90 q 134 0 163 17 l 109 0 q 68 63 68 27 q 109 117 79 100 m 601 117 l 626 117 q 667 54 667 90 q 626 0 655 17 l 601 0 q 560 63 560 27 q 601 117 571 100 z "},"S":{"ha":734,"x_min":68,"x_max":667,"o":"m 232 978 l 256 978 q 298 916 298 951 q 256 861 286 878 l 232 861 q 191 924 191 888 q 232 978 202 962 m 355 978 l 380 978 q 420 916 420 951 q 380 861 409 878 l 355 861 q 314 924 314 888 q 355 978 326 962 m 478 978 l 503 978 q 544 916 544 951 q 503 861 532 878 l 478 861 q 437 924 437 888 q 478 978 448 962 m 109 835 l 134 835 q 174 772 174 808 q 134 718 163 734 l 109 718 q 68 781 68 745 q 109 835 79 818 m 601 835 l 626 835 q 667 772 667 808 q 626 718 655 734 l 601 718 q 560 781 560 745 q 601 835 571 818 m 109 691 l 134 691 q 174 628 174 664 q 134 574 163 591 l 109 574 q 68 637 68 602 q 109 691 79 674 m 232 547 l 256 547 q 298 485 298 521 q 256 431 286 448 l 232 431 q 191 494 191 458 q 232 547 202 530 m 355 547 l 380 547 q 420 485 420 521 q 380 431 409 448 l 355 431 q 314 494 314 458 q 355 547 326 530 m 478 547 l 503 547 q 544 485 544 521 q 503 431 532 448 l 478 431 q 437 494 437 458 q 478 547 448 530 m 601 404 l 626 404 q 667 341 667 377 q 626 287 655 304 l 601 287 q 560 350 560 314 q 601 404 571 387 m 109 260 l 134 260 q 174 197 174 233 q 134 144 163 161 l 109 144 q 68 206 68 170 q 109 260 79 243 m 601 260 l 626 260 q 667 197 667 233 q 626 144 655 161 l 601 144 q 560 206 560 170 q 601 260 571 243 m 232 117 l 256 117 q 298 54 298 90 q 256 0 286 17 l 232 0 q 191 63 191 27 q 232 117 202 100 m 355 117 l 380 117 q 420 54 420 90 q 380 0 409 17 l 355 0 q 314 63 314 27 q 355 117 326 100 m 478 117 l 503 117 q 544 54 544 90 q 503 0 532 17 l 478 0 q 437 63 437 27 q 478 117 448 100 z "},"T":{"ha":734,"x_min":68,"x_max":667,"o":"m 109 978 l 134 978 q 174 916 174 951 q 134 861 163 878 l 109 861 q 68 924 68 888 q 109 978 79 962 m 232 978 l 256 978 q 298 916 298 951 q 256 861 286 878 l 232 861 q 191 924 191 888 q 232 978 202 962 m 355 978 l 380 978 q 420 916 420 951 q 380 861 409 878 l 355 861 q 314 924 314 888 q 355 978 326 962 m 478 978 l 503 978 q 544 916 544 951 q 503 861 532 878 l 478 861 q 437 924 437 888 q 478 978 448 962 m 601 978 l 626 978 q 667 916 667 951 q 626 861 655 878 l 601 861 q 560 924 560 888 q 601 978 571 962 m 355 835 l 380 835 q 420 772 420 808 q 380 718 409 734 l 355 718 q 314 781 314 745 q 355 835 326 818 m 355 691 l 380 691 q 420 628 420 664 q 380 574 409 591 l 355 574 q 314 637 314 602 q 355 691 326 674 m 355 547 l 380 547 q 420 485 420 521 q 380 431 409 448 l 355 431 q 314 494 314 458 q 355 547 326 530 m 355 404 l 380 404 q 420 341 420 377 q 380 287 409 304 l 355 287 q 314 350 314 314 q 355 404 326 387 m 355 260 l 380 260 q 420 197 420 233 q 380 144 409 161 l 355 144 q 314 206 314 170 q 355 260 326 243 m 355 117 l 380 117 q 420 54 420 90 q 380 0 409 17 l 355 0 q 314 63 314 27 q 355 117 326 100 z "},"U":{"ha":734,"x_min":68,"x_max":667,"o":"m 109 978 l 134 978 q 174 916 174 951 q 134 861 163 878 l 109 861 q 68 924 68 888 q 109 978 79 962 m 601 978 l 626 978 q 667 916 667 951 q 626 861 655 878 l 601 861 q 560 924 560 888 q 601 978 571 962 m 109 835 l 134 835 q 174 772 174 808 q 134 718 163 734 l 109 718 q 68 781 68 745 q 109 835 79 818 m 601 835 l 626 835 q 667 772 667 808 q 626 718 655 734 l 601 718 q 560 781 560 745 q 601 835 571 818 m 109 691 l 134 691 q 174 628 174 664 q 134 574 163 591 l 109 574 q 68 637 68 602 q 109 691 79 674 m 601 691 l 626 691 q 667 628 667 664 q 626 574 655 591 l 601 574 q 560 637 560 602 q 601 691 571 674 m 109 547 l 134 547 q 174 485 174 521 q 134 431 163 448 l 109 431 q 68 494 68 458 q 109 547 79 530 m 601 547 l 626 547 q 667 485 667 521 q 626 431 655 448 l 601 431 q 560 494 560 458 q 601 547 571 530 m 109 404 l 134 404 q 174 341 174 377 q 134 287 163 304 l 109 287 q 68 350 68 314 q 109 404 79 387 m 601 404 l 626 404 q 667 341 667 377 q 626 287 655 304 l 601 287 q 560 350 560 314 q 601 404 571 387 m 109 260 l 134 260 q 174 197 174 233 q 134 144 163 161 l 109 144 q 68 206 68 170 q 109 260 79 243 m 601 260 l 626 260 q 667 197 667 233 q 626 144 655 161 l 601 144 q 560 206 560 170 q 601 260 571 243 m 232 117 l 256 117 q 298 54 298 90 q 256 0 286 17 l 232 0 q 191 63 191 27 q 232 117 202 100 m 355 117 l 380 117 q 420 54 420 90 q 380 0 409 17 l 355 0 q 314 63 314 27 q 355 117 326 100 m 478 117 l 503 117 q 544 54 544 90 q 503 0 532 17 l 478 0 q 437 63 437 27 q 478 117 448 100 z "},"V":{"ha":734,"x_min":68,"x_max":667,"o":"m 109 978 l 134 978 q 174 916 174 951 q 134 861 163 878 l 109 861 q 68 924 68 888 q 109 978 79 962 m 601 978 l 626 978 q 667 916 667 951 q 626 861 655 878 l 601 861 q 560 924 560 888 q 601 978 571 962 m 109 835 l 134 835 q 174 772 174 808 q 134 718 163 734 l 109 718 q 68 781 68 745 q 109 835 79 818 m 601 835 l 626 835 q 667 772 667 808 q 626 718 655 734 l 601 718 q 560 781 560 745 q 601 835 571 818 m 109 691 l 134 691 q 174 628 174 664 q 134 574 163 591 l 109 574 q 68 637 68 602 q 109 691 79 674 m 601 691 l 626 691 q 667 628 667 664 q 626 574 655 591 l 601 574 q 560 637 560 602 q 601 691 571 674 m 232 547 l 256 547 q 298 485 298 521 q 256 431 286 448 l 232 431 q 191 494 191 458 q 232 547 202 530 m 478 547 l 503 547 q 544 485 544 521 q 503 431 532 448 l 478 431 q 437 494 437 458 q 478 547 448 530 m 232 404 l 256 404 q 298 341 298 377 q 256 287 286 304 l 232 287 q 191 350 191 314 q 232 404 202 387 m 478 404 l 503 404 q 544 341 544 377 q 503 287 532 304 l 478 287 q 437 350 437 314 q 478 404 448 387 m 355 260 l 380 260 q 420 197 420 233 q 380 144 409 161 l 355 144 q 314 206 314 170 q 355 260 326 243 m 355 117 l 380 117 q 420 54 420 90 q 380 0 409 17 l 355 0 q 314 63 314 27 q 355 117 326 100 z "},"W":{"ha":734,"x_min":68,"x_max":667,"o":"m 109 978 l 134 978 q 174 916 174 951 q 134 861 163 878 l 109 861 q 68 924 68 888 q 109 978 79 962 m 601 978 l 626 978 q 667 916 667 951 q 626 861 655 878 l 601 861 q 560 924 560 888 q 601 978 571 962 m 109 835 l 134 835 q 174 772 174 808 q 134 718 163 734 l 109 718 q 68 781 68 745 q 109 835 79 818 m 601 835 l 626 835 q 667 772 667 808 q 626 718 655 734 l 601 718 q 560 781 560 745 q 601 835 571 818 m 109 691 l 134 691 q 174 628 174 664 q 134 574 163 591 l 109 574 q 68 637 68 602 q 109 691 79 674 m 601 691 l 626 691 q 667 628 667 664 q 626 574 655 591 l 601 574 q 560 637 560 602 q 601 691 571 674 m 109 547 l 134 547 q 174 485 174 521 q 134 431 163 448 l 109 431 q 68 494 68 458 q 109 547 79 530 m 355 547 l 380 547 q 420 485 420 521 q 380 431 409 448 l 355 431 q 314 494 314 458 q 355 547 326 530 m 601 547 l 626 547 q 667 485 667 521 q 626 431 655 448 l 601 431 q 560 494 560 458 q 601 547 571 530 m 109 404 l 134 404 q 174 341 174 377 q 134 287 163 304 l 109 287 q 68 350 68 314 q 109 404 79 387 m 355 404 l 380 404 q 420 341 420 377 q 380 287 409 304 l 355 287 q 314 350 314 314 q 355 404 326 387 m 601 404 l 626 404 q 667 341 667 377 q 626 287 655 304 l 601 287 q 560 350 560 314 q 601 404 571 387 m 109 260 l 134 260 q 174 197 174 233 q 134 144 163 161 l 109 144 q 68 206 68 170 q 109 260 79 243 m 232 260 l 256 260 q 298 197 298 233 q 256 144 286 161 l 232 144 q 191 206 191 170 q 232 260 202 243 m 478 260 l 503 260 q 544 197 544 233 q 503 144 532 161 l 478 144 q 437 206 437 170 q 478 260 448 243 m 601 260 l 626 260 q 667 197 667 233 q 626 144 655 161 l 601 144 q 560 206 560 170 q 601 260 571 243 m 109 117 l 134 117 q 174 54 174 90 q 134 0 163 17 l 109 0 q 68 63 68 27 q 109 117 79 100 m 601 117 l 626 117 q 667 54 667 90 q 626 0 655 17 l 601 0 q 560 63 560 27 q 601 117 571 100 z "},"X":{"ha":734,"x_min":68,"x_max":667,"o":"m 109 978 l 134 978 q 174 916 174 951 q 134 861 163 878 l 109 861 q 68 924 68 888 q 109 978 79 962 m 601 978 l 626 978 q 667 916 667 951 q 626 861 655 878 l 601 861 q 560 924 560 888 q 601 978 571 962 m 109 835 l 134 835 q 174 772 174 808 q 134 718 163 734 l 109 718 q 68 781 68 745 q 109 835 79 818 m 601 835 l 626 835 q 667 772 667 808 q 626 718 655 734 l 601 718 q 560 781 560 745 q 601 835 571 818 m 232 691 l 256 691 q 298 628 298 664 q 256 574 286 591 l 232 574 q 191 637 191 602 q 232 691 202 674 m 478 691 l 503 691 q 544 628 544 664 q 503 574 532 591 l 478 574 q 437 637 437 602 q 478 691 448 674 m 355 547 l 380 547 q 420 485 420 521 q 380 431 409 448 l 355 431 q 314 494 314 458 q 355 547 326 530 m 232 404 l 256 404 q 298 341 298 377 q 256 287 286 304 l 232 287 q 191 350 191 314 q 232 404 202 387 m 478 404 l 503 404 q 544 341 544 377 q 503 287 532 304 l 478 287 q 437 350 437 314 q 478 404 448 387 m 109 260 l 134 260 q 174 197 174 233 q 134 144 163 161 l 109 144 q 68 206 68 170 q 109 260 79 243 m 601 260 l 626 260 q 667 197 667 233 q 626 144 655 161 l 601 144 q 560 206 560 170 q 601 260 571 243 m 109 117 l 134 117 q 174 54 174 90 q 134 0 163 17 l 109 0 q 68 63 68 27 q 109 117 79 100 m 601 117 l 626 117 q 667 54 667 90 q 626 0 655 17 l 601 0 q 560 63 560 27 q 601 117 571 100 z "},"Y":{"ha":734,"x_min":68,"x_max":667,"o":"m 109 978 l 134 978 q 174 916 174 951 q 134 861 163 878 l 109 861 q 68 924 68 888 q 109 978 79 962 m 601 978 l 626 978 q 667 916 667 951 q 626 861 655 878 l 601 861 q 560 924 560 888 q 601 978 571 962 m 109 835 l 134 835 q 174 772 174 808 q 134 718 163 734 l 109 718 q 68 781 68 745 q 109 835 79 818 m 601 835 l 626 835 q 667 772 667 808 q 626 718 655 734 l 601 718 q 560 781 560 745 q 601 835 571 818 m 109 691 l 134 691 q 174 628 174 664 q 134 574 163 591 l 109 574 q 68 637 68 602 q 109 691 79 674 m 601 691 l 626 691 q 667 628 667 664 q 626 574 655 591 l 601 574 q 560 637 560 602 q 601 691 571 674 m 232 547 l 256 547 q 298 485 298 521 q 256 431 286 448 l 232 431 q 191 494 191 458 q 232 547 202 530 m 355 404 l 380 404 q 420 341 420 377 q 380 287 409 304 l 355 287 q 314 350 314 314 q 355 404 326 387 m 355 260 l 380 260 q 420 197 420 233 q 380 144 409 161 l 355 144 q 314 206 314 170 q 355 260 326 243 m 355 117 l 380 117 q 420 54 420 90 q 380 0 409 17 l 355 0 q 314 63 314 27 q 355 117 326 100 m 478 547 l 503 547 q 544 485 544 521 q 503 431 532 448 l 478 431 q 437 494 437 458 q 478 547 448 530 z "},"Z":{"ha":734,"x_min":68,"x_max":667,"o":"m 109 978 l 134 978 q 174 916 174 951 q 134 861 163 878 l 109 861 q 68 924 68 888 q 109 978 79 962 m 232 978 l 256 978 q 298 916 298 951 q 256 861 286 878 l 232 861 q 191 924 191 888 q 232 978 202 962 m 355 978 l 380 978 q 420 916 420 951 q 380 861 409 878 l 355 861 q 314 924 314 888 q 355 978 326 962 m 478 978 l 503 978 q 544 916 544 951 q 503 861 532 878 l 478 861 q 437 924 437 888 q 478 978 448 962 m 601 978 l 626 978 q 667 916 667 951 q 626 861 655 878 l 601 861 q 560 924 560 888 q 601 978 571 962 m 601 835 l 626 835 q 667 772 667 808 q 626 718 655 734 l 601 718 q 560 781 560 745 q 601 835 571 818 m 478 691 l 503 691 q 544 628 544 664 q 503 574 532 591 l 478 574 q 437 637 437 602 q 478 691 448 674 m 355 547 l 380 547 q 420 485 420 521 q 380 431 409 448 l 355 431 q 314 494 314 458 q 355 547 326 530 m 232 404 l 256 404 q 298 341 298 377 q 256 287 286 304 l 232 287 q 191 350 191 314 q 232 404 202 387 m 109 260 l 134 260 q 174 197 174 233 q 134 144 163 161 l 109 144 q 68 206 68 170 q 109 260 79 243 m 109 117 l 134 117 q 174 54 174 90 q 134 0 163 17 l 109 0 q 68 63 68 27 q 109 117 79 100 m 232 117 l 256 117 q 298 54 298 90 q 256 0 286 17 l 232 0 q 191 63 191 27 q 232 117 202 100 m 355 117 l 380 117 q 420 54 420 90 q 380 0 409 17 l 355 0 q 314 63 314 27 q 355 117 326 100 m 478 117 l 503 117 q 544 54 544 90 q 503 0 532 17 l 478 0 q 437 63 437 27 q 478 117 448 100 m 601 117 l 626 117 q 667 54 667 90 q 626 0 655 17 l 601 0 q 560 63 560 27 q 601 117 571 100 z "},"[":{"ha":734,"x_min":191,"x_max":420,"o":"m 232 978 l 256 978 q 298 916 298 951 q 256 861 286 878 l 232 861 q 191 924 191 888 q 232 978 202 962 m 355 978 l 380 978 q 420 916 420 951 q 380 861 409 878 l 355 861 q 314 924 314 888 q 355 978 326 962 m 232 835 l 256 835 q 298 772 298 808 q 256 718 286 734 l 232 718 q 191 781 191 745 q 232 835 202 818 m 232 691 l 256 691 q 298 628 298 664 q 256 574 286 591 l 232 574 q 191 637 191 602 q 232 691 202 674 m 232 547 l 256 547 q 298 485 298 521 q 256 431 286 448 l 232 431 q 191 494 191 458 q 232 547 202 530 m 232 404 l 256 404 q 298 341 298 377 q 256 287 286 304 l 232 287 q 191 350 191 314 q 232 404 202 387 m 232 260 l 256 260 q 298 197 298 233 q 256 144 286 161 l 232 144 q 191 206 191 170 q 232 260 202 243 m 232 117 l 256 117 q 298 54 298 90 q 256 0 286 17 l 232 0 q 191 63 191 27 q 232 117 202 100 m 355 117 l 380 117 q 420 54 420 90 q 380 0 409 17 l 355 0 q 314 63 314 27 q 355 117 326 100 z "},"\\":{"ha":734,"x_min":68,"x_max":667,"o":"m 109 835 l 134 835 q 174 772 174 808 q 134 718 163 734 l 109 718 q 68 781 68 745 q 109 835 79 818 m 232 691 l 256 691 q 298 628 298 664 q 256 574 286 591 l 232 574 q 191 637 191 602 q 232 691 202 674 m 355 547 l 380 547 q 420 485 420 521 q 380 431 409 448 l 355 431 q 314 494 314 458 q 355 547 326 530 m 478 404 l 503 404 q 544 341 544 377 q 503 287 532 304 l 478 287 q 437 350 437 314 q 478 404 448 387 m 601 260 l 626 260 q 667 197 667 233 q 626 144 655 161 l 601 144 q 560 206 560 170 q 601 260 571 243 z "},"]":{"ha":734,"x_min":314,"x_max":544,"o":"m 355 978 l 380 978 q 420 916 420 951 q 380 861 409 878 l 355 861 q 314 924 314 888 q 355 978 326 962 m 478 835 l 503 835 q 544 772 544 808 q 503 718 532 734 l 478 718 q 437 781 437 745 q 478 835 448 818 m 478 691 l 503 691 q 544 628 544 664 q 503 574 532 591 l 478 574 q 437 637 437 602 q 478 691 448 674 m 478 547 l 503 547 q 544 485 544 521 q 503 431 532 448 l 478 431 q 437 494 437 458 q 478 547 448 530 m 478 404 l 503 404 q 544 341 544 377 q 503 287 532 304 l 478 287 q 437 350 437 314 q 478 404 448 387 m 478 260 l 503 260 q 544 197 544 233 q 503 144 532 161 l 478 144 q 437 206 437 170 q 478 260 448 243 m 355 117 l 380 117 q 420 54 420 90 q 380 0 409 17 l 355 0 q 314 63 314 27 q 355 117 326 100 m 478 978 l 503 978 q 544 916 544 951 q 503 861 532 878 l 478 861 q 437 924 437 888 q 478 978 448 962 m 478 117 l 503 117 q 544 54 544 90 q 503 0 532 17 l 478 0 q 437 63 437 27 q 478 117 448 100 z "},"^":{"ha":734,"x_min":68,"x_max":667,"o":"m 355 978 l 380 978 q 420 916 420 951 q 380 861 409 878 l 355 861 q 314 924 314 888 q 355 978 326 962 m 232 835 l 256 835 q 298 772 298 808 q 256 718 286 734 l 232 718 q 191 781 191 745 q 232 835 202 818 m 478 835 l 503 835 q 544 772 544 808 q 503 718 532 734 l 478 718 q 437 781 437 745 q 478 835 448 818 m 109 691 l 134 691 q 174 628 174 664 q 134 574 163 591 l 109 574 q 68 637 68 602 q 109 691 79 674 m 601 691 l 626 691 q 667 628 667 664 q 626 574 655 591 l 601 574 q 560 637 560 602 q 601 691 571 674 z "},"_":{"ha":734,"x_min":68,"x_max":667,"o":"m 109 117 l 134 117 q 174 54 174 90 q 134 0 163 17 l 109 0 q 68 63 68 27 q 109 117 79 100 m 232 117 l 256 117 q 298 54 298 90 q 256 0 286 17 l 232 0 q 191 63 191 27 q 232 117 202 100 m 355 117 l 380 117 q 420 54 420 90 q 380 0 409 17 l 355 0 q 314 63 314 27 q 355 117 326 100 m 478 117 l 503 117 q 544 54 544 90 q 503 0 532 17 l 478 0 q 437 63 437 27 q 478 117 448 100 m 601 117 l 626 117 q 667 54 667 90 q 626 0 655 17 l 601 0 q 560 63 560 27 q 601 117 571 100 z "},"`":{"ha":734,"x_min":191,"x_max":420,"o":"m 232 1266 l 256 1266 q 298 1204 298 1240 q 256 1149 286 1166 l 232 1149 q 191 1213 191 1177 q 232 1266 202 1250 m 355 1123 l 380 1123 q 420 1060 420 1096 q 380 1006 409 1023 l 355 1006 q 314 1069 314 1033 q 355 1123 326 1106 z "},"a":{"ha":734,"x_min":68,"x_max":667,"o":"m 232 978 l 256 978 q 298 916 298 951 q 256 861 286 878 l 232 861 q 191 924 191 888 q 232 978 202 962 m 355 978 l 380 978 q 420 916 420 951 q 380 861 409 878 l 355 861 q 314 924 314 888 q 355 978 326 962 m 478 978 l 503 978 q 544 916 544 951 q 503 861 532 878 l 478 861 q 437 924 437 888 q 478 978 448 962 m 109 835 l 134 835 q 174 772 174 808 q 134 718 163 734 l 109 718 q 68 781 68 745 q 109 835 79 818 m 601 835 l 626 835 q 667 772 667 808 q 626 718 655 734 l 601 718 q 560 781 560 745 q 601 835 571 818 m 109 691 l 134 691 q 174 628 174 664 q 134 574 163 591 l 109 574 q 68 637 68 602 q 109 691 79 674 m 601 691 l 626 691 q 667 628 667 664 q 626 574 655 591 l 601 574 q 560 637 560 602 q 601 691 571 674 m 109 547 l 134 547 q 174 485 174 521 q 134 431 163 448 l 109 431 q 68 494 68 458 q 109 547 79 530 m 232 547 l 256 547 q 298 485 298 521 q 256 431 286 448 l 232 431 q 191 494 191 458 q 232 547 202 530 m 355 547 l 380 547 q 420 485 420 521 q 380 431 409 448 l 355 431 q 314 494 314 458 q 355 547 326 530 m 478 547 l 503 547 q 544 485 544 521 q 503 431 532 448 l 478 431 q 437 494 437 458 q 478 547 448 530 m 601 547 l 626 547 q 667 485 667 521 q 626 431 655 448 l 601 431 q 560 494 560 458 q 601 547 571 530 m 109 404 l 134 404 q 174 341 174 377 q 134 287 163 304 l 109 287 q 68 350 68 314 q 109 404 79 387 m 601 404 l 626 404 q 667 341 667 377 q 626 287 655 304 l 601 287 q 560 350 560 314 q 601 404 571 387 m 109 260 l 134 260 q 174 197 174 233 q 134 144 163 161 l 109 144 q 68 206 68 170 q 109 260 79 243 m 601 260 l 626 260 q 667 197 667 233 q 626 144 655 161 l 601 144 q 560 206 560 170 q 601 260 571 243 m 109 117 l 134 117 q 174 54 174 90 q 134 0 163 17 l 109 0 q 68 63 68 27 q 109 117 79 100 m 601 117 l 626 117 q 667 54 667 90 q 626 0 655 17 l 601 0 q 560 63 560 27 q 601 117 571 100 z "},"b":{"ha":734,"x_min":68,"x_max":667,"o":"m 109 978 l 134 978 q 174 916 174 951 q 134 861 163 878 l 109 861 q 68 924 68 888 q 109 978 79 962 m 232 978 l 256 978 q 298 916 298 951 q 256 861 286 878 l 232 861 q 191 924 191 888 q 232 978 202 962 m 355 978 l 380 978 q 420 916 420 951 q 380 861 409 878 l 355 861 q 314 924 314 888 q 355 978 326 962 m 478 978 l 503 978 q 544 916 544 951 q 503 861 532 878 l 478 861 q 437 924 437 888 q 478 978 448 962 m 109 835 l 134 835 q 174 772 174 808 q 134 718 163 734 l 109 718 q 68 781 68 745 q 109 835 79 818 m 601 835 l 626 835 q 667 772 667 808 q 626 718 655 734 l 601 718 q 560 781 560 745 q 601 835 571 818 m 109 691 l 134 691 q 174 628 174 664 q 134 574 163 591 l 109 574 q 68 637 68 602 q 109 691 79 674 m 601 691 l 626 691 q 667 628 667 664 q 626 574 655 591 l 601 574 q 560 637 560 602 q 601 691 571 674 m 109 547 l 134 547 q 174 485 174 521 q 134 431 163 448 l 109 431 q 68 494 68 458 q 109 547 79 530 m 232 547 l 256 547 q 298 485 298 521 q 256 431 286 448 l 232 431 q 191 494 191 458 q 232 547 202 530 m 355 547 l 380 547 q 420 485 420 521 q 380 431 409 448 l 355 431 q 314 494 314 458 q 355 547 326 530 m 478 547 l 503 547 q 544 485 544 521 q 503 431 532 448 l 478 431 q 437 494 437 458 q 478 547 448 530 m 109 404 l 134 404 q 174 341 174 377 q 134 287 163 304 l 109 287 q 68 350 68 314 q 109 404 79 387 m 601 404 l 626 404 q 667 341 667 377 q 626 287 655 304 l 601 287 q 560 350 560 314 q 601 404 571 387 m 109 260 l 134 260 q 174 197 174 233 q 134 144 163 161 l 109 144 q 68 206 68 170 q 109 260 79 243 m 601 260 l 626 260 q 667 197 667 233 q 626 144 655 161 l 601 144 q 560 206 560 170 q 601 260 571 243 m 109 117 l 134 117 q 174 54 174 90 q 134 0 163 17 l 109 0 q 68 63 68 27 q 109 117 79 100 m 232 117 l 256 117 q 298 54 298 90 q 256 0 286 17 l 232 0 q 191 63 191 27 q 232 117 202 100 m 355 117 l 380 117 q 420 54 420 90 q 380 0 409 17 l 355 0 q 314 63 314 27 q 355 117 326 100 m 478 117 l 503 117 q 544 54 544 90 q 503 0 532 17 l 478 0 q 437 63 437 27 q 478 117 448 100 z "},"c":{"ha":734,"x_min":68,"x_max":667,"o":"m 232 978 l 256 978 q 298 916 298 951 q 256 861 286 878 l 232 861 q 191 924 191 888 q 232 978 202 962 m 355 978 l 380 978 q 420 916 420 951 q 380 861 409 878 l 355 861 q 314 924 314 888 q 355 978 326 962 m 478 978 l 503 978 q 544 916 544 951 q 503 861 532 878 l 478 861 q 437 924 437 888 q 478 978 448 962 m 109 835 l 134 835 q 174 772 174 808 q 134 718 163 734 l 109 718 q 68 781 68 745 q 109 835 79 818 m 601 835 l 626 835 q 667 772 667 808 q 626 718 655 734 l 601 718 q 560 781 560 745 q 601 835 571 818 m 109 691 l 134 691 q 174 628 174 664 q 134 574 163 591 l 109 574 q 68 637 68 602 q 109 691 79 674 m 109 547 l 134 547 q 174 485 174 521 q 134 431 163 448 l 109 431 q 68 494 68 458 q 109 547 79 530 m 109 404 l 134 404 q 174 341 174 377 q 134 287 163 304 l 109 287 q 68 350 68 314 q 109 404 79 387 m 109 260 l 134 260 q 174 197 174 233 q 134 144 163 161 l 109 144 q 68 206 68 170 q 109 260 79 243 m 601 260 l 626 260 q 667 197 667 233 q 626 144 655 161 l 601 144 q 560 206 560 170 q 601 260 571 243 m 232 117 l 256 117 q 298 54 298 90 q 256 0 286 17 l 232 0 q 191 63 191 27 q 232 117 202 100 m 355 117 l 380 117 q 420 54 420 90 q 380 0 409 17 l 355 0 q 314 63 314 27 q 355 117 326 100 m 478 117 l 503 117 q 544 54 544 90 q 503 0 532 17 l 478 0 q 437 63 437 27 q 478 117 448 100 z "},"d":{"ha":734,"x_min":68,"x_max":667,"o":"m 109 978 l 134 978 q 174 916 174 951 q 134 861 163 878 l 109 861 q 68 924 68 888 q 109 978 79 962 m 232 978 l 256 978 q 298 916 298 951 q 256 861 286 878 l 232 861 q 191 924 191 888 q 232 978 202 962 m 355 978 l 380 978 q 420 916 420 951 q 380 861 409 878 l 355 861 q 314 924 314 888 q 355 978 326 962 m 478 978 l 503 978 q 544 916 544 951 q 503 861 532 878 l 478 861 q 437 924 437 888 q 478 978 448 962 m 109 835 l 134 835 q 174 772 174 808 q 134 718 163 734 l 109 718 q 68 781 68 745 q 109 835 79 818 m 601 835 l 626 835 q 667 772 667 808 q 626 718 655 734 l 601 718 q 560 781 560 745 q 601 835 571 818 m 109 691 l 134 691 q 174 628 174 664 q 134 574 163 591 l 109 574 q 68 637 68 602 q 109 691 79 674 m 601 691 l 626 691 q 667 628 667 664 q 626 574 655 591 l 601 574 q 560 637 560 602 q 601 691 571 674 m 109 547 l 134 547 q 174 485 174 521 q 134 431 163 448 l 109 431 q 68 494 68 458 q 109 547 79 530 m 601 547 l 626 547 q 667 485 667 521 q 626 431 655 448 l 601 431 q 560 494 560 458 q 601 547 571 530 m 109 404 l 134 404 q 174 341 174 377 q 134 287 163 304 l 109 287 q 68 350 68 314 q 109 404 79 387 m 601 404 l 626 404 q 667 341 667 377 q 626 287 655 304 l 601 287 q 560 350 560 314 q 601 404 571 387 m 109 260 l 134 260 q 174 197 174 233 q 134 144 163 161 l 109 144 q 68 206 68 170 q 109 260 79 243 m 601 260 l 626 260 q 667 197 667 233 q 626 144 655 161 l 601 144 q 560 206 560 170 q 601 260 571 243 m 109 117 l 134 117 q 174 54 174 90 q 134 0 163 17 l 109 0 q 68 63 68 27 q 109 117 79 100 m 232 117 l 256 117 q 298 54 298 90 q 256 0 286 17 l 232 0 q 191 63 191 27 q 232 117 202 100 m 355 117 l 380 117 q 420 54 420 90 q 380 0 409 17 l 355 0 q 314 63 314 27 q 355 117 326 100 m 478 117 l 503 117 q 544 54 544 90 q 503 0 532 17 l 478 0 q 437 63 437 27 q 478 117 448 100 z "},"e":{"ha":734,"x_min":68,"x_max":667,"o":"m 109 978 l 134 978 q 174 916 174 951 q 134 861 163 878 l 109 861 q 68 924 68 888 q 109 978 79 962 m 232 978 l 256 978 q 298 916 298 951 q 256 861 286 878 l 232 861 q 191 924 191 888 q 232 978 202 962 m 355 978 l 380 978 q 420 916 420 951 q 380 861 409 878 l 355 861 q 314 924 314 888 q 355 978 326 962 m 478 978 l 503 978 q 544 916 544 951 q 503 861 532 878 l 478 861 q 437 924 437 888 q 478 978 448 962 m 601 978 l 626 978 q 667 916 667 951 q 626 861 655 878 l 601 861 q 560 924 560 888 q 601 978 571 962 m 109 835 l 134 835 q 174 772 174 808 q 134 718 163 734 l 109 718 q 68 781 68 745 q 109 835 79 818 m 109 691 l 134 691 q 174 628 174 664 q 134 574 163 591 l 109 574 q 68 637 68 602 q 109 691 79 674 m 109 547 l 134 547 q 174 485 174 521 q 134 431 163 448 l 109 431 q 68 494 68 458 q 109 547 79 530 m 232 547 l 256 547 q 298 485 298 521 q 256 431 286 448 l 232 431 q 191 494 191 458 q 232 547 202 530 m 355 547 l 380 547 q 420 485 420 521 q 380 431 409 448 l 355 431 q 314 494 314 458 q 355 547 326 530 m 478 547 l 503 547 q 544 485 544 521 q 503 431 532 448 l 478 431 q 437 494 437 458 q 478 547 448 530 m 109 404 l 134 404 q 174 341 174 377 q 134 287 163 304 l 109 287 q 68 350 68 314 q 109 404 79 387 m 109 260 l 134 260 q 174 197 174 233 q 134 144 163 161 l 109 144 q 68 206 68 170 q 109 260 79 243 m 109 117 l 134 117 q 174 54 174 90 q 134 0 163 17 l 109 0 q 68 63 68 27 q 109 117 79 100 m 232 117 l 256 117 q 298 54 298 90 q 256 0 286 17 l 232 0 q 191 63 191 27 q 232 117 202 100 m 355 117 l 380 117 q 420 54 420 90 q 380 0 409 17 l 355 0 q 314 63 314 27 q 355 117 326 100 m 478 117 l 503 117 q 544 54 544 90 q 503 0 532 17 l 478 0 q 437 63 437 27 q 478 117 448 100 m 601 117 l 626 117 q 667 54 667 90 q 626 0 655 17 l 601 0 q 560 63 560 27 q 601 117 571 100 z "},"f":{"ha":734,"x_min":68,"x_max":667,"o":"m 109 978 l 134 978 q 174 916 174 951 q 134 861 163 878 l 109 861 q 68 924 68 888 q 109 978 79 962 m 232 978 l 256 978 q 298 916 298 951 q 256 861 286 878 l 232 861 q 191 924 191 888 q 232 978 202 962 m 355 978 l 380 978 q 420 916 420 951 q 380 861 409 878 l 355 861 q 314 924 314 888 q 355 978 326 962 m 478 978 l 503 978 q 544 916 544 951 q 503 861 532 878 l 478 861 q 437 924 437 888 q 478 978 448 962 m 601 978 l 626 978 q 667 916 667 951 q 626 861 655 878 l 601 861 q 560 924 560 888 q 601 978 571 962 m 109 835 l 134 835 q 174 772 174 808 q 134 718 163 734 l 109 718 q 68 781 68 745 q 109 835 79 818 m 109 691 l 134 691 q 174 628 174 664 q 134 574 163 591 l 109 574 q 68 637 68 602 q 109 691 79 674 m 109 547 l 134 547 q 174 485 174 521 q 134 431 163 448 l 109 431 q 68 494 68 458 q 109 547 79 530 m 232 547 l 256 547 q 298 485 298 521 q 256 431 286 448 l 232 431 q 191 494 191 458 q 232 547 202 530 m 355 547 l 380 547 q 420 485 420 521 q 380 431 409 448 l 355 431 q 314 494 314 458 q 355 547 326 530 m 478 547 l 503 547 q 544 485 544 521 q 503 431 532 448 l 478 431 q 437 494 437 458 q 478 547 448 530 m 109 404 l 134 404 q 174 341 174 377 q 134 287 163 304 l 109 287 q 68 350 68 314 q 109 404 79 387 m 109 260 l 134 260 q 174 197 174 233 q 134 144 163 161 l 109 144 q 68 206 68 170 q 109 260 79 243 m 109 117 l 134 117 q 174 54 174 90 q 134 0 163 17 l 109 0 q 68 63 68 27 q 109 117 79 100 z "},"g":{"ha":734,"x_min":68,"x_max":667,"o":"m 232 978 l 256 978 q 298 916 298 951 q 256 861 286 878 l 232 861 q 191 924 191 888 q 232 978 202 962 m 355 978 l 380 978 q 420 916 420 951 q 380 861 409 878 l 355 861 q 314 924 314 888 q 355 978 326 962 m 478 978 l 503 978 q 544 916 544 951 q 503 861 532 878 l 478 861 q 437 924 437 888 q 478 978 448 962 m 109 835 l 134 835 q 174 772 174 808 q 134 718 163 734 l 109 718 q 68 781 68 745 q 109 835 79 818 m 601 835 l 626 835 q 667 772 667 808 q 626 718 655 734 l 601 718 q 560 781 560 745 q 601 835 571 818 m 109 691 l 134 691 q 174 628 174 664 q 134 574 163 591 l 109 574 q 68 637 68 602 q 109 691 79 674 m 109 547 l 134 547 q 174 485 174 521 q 134 431 163 448 l 109 431 q 68 494 68 458 q 109 547 79 530 m 355 547 l 380 547 q 420 485 420 521 q 380 431 409 448 l 355 431 q 314 494 314 458 q 355 547 326 530 m 478 547 l 503 547 q 544 485 544 521 q 503 431 532 448 l 478 431 q 437 494 437 458 q 478 547 448 530 m 601 547 l 626 547 q 667 485 667 521 q 626 431 655 448 l 601 431 q 560 494 560 458 q 601 547 571 530 m 109 404 l 134 404 q 174 341 174 377 q 134 287 163 304 l 109 287 q 68 350 68 314 q 109 404 79 387 m 601 404 l 626 404 q 667 341 667 377 q 626 287 655 304 l 601 287 q 560 350 560 314 q 601 404 571 387 m 109 260 l 134 260 q 174 197 174 233 q 134 144 163 161 l 109 144 q 68 206 68 170 q 109 260 79 243 m 601 260 l 626 260 q 667 197 667 233 q 626 144 655 161 l 601 144 q 560 206 560 170 q 601 260 571 243 m 232 117 l 256 117 q 298 54 298 90 q 256 0 286 17 l 232 0 q 191 63 191 27 q 232 117 202 100 m 355 117 l 380 117 q 420 54 420 90 q 380 0 409 17 l 355 0 q 314 63 314 27 q 355 117 326 100 m 478 117 l 503 117 q 544 54 544 90 q 503 0 532 17 l 478 0 q 437 63 437 27 q 478 117 448 100 z "},"h":{"ha":734,"x_min":68,"x_max":667,"o":"m 109 978 l 134 978 q 174 916 174 951 q 134 861 163 878 l 109 861 q 68 924 68 888 q 109 978 79 962 m 601 978 l 626 978 q 667 916 667 951 q 626 861 655 878 l 601 861 q 560 924 560 888 q 601 978 571 962 m 109 835 l 134 835 q 174 772 174 808 q 134 718 163 734 l 109 718 q 68 781 68 745 q 109 835 79 818 m 601 835 l 626 835 q 667 772 667 808 q 626 718 655 734 l 601 718 q 560 781 560 745 q 601 835 571 818 m 109 691 l 134 691 q 174 628 174 664 q 134 574 163 591 l 109 574 q 68 637 68 602 q 109 691 79 674 m 601 691 l 626 691 q 667 628 667 664 q 626 574 655 591 l 601 574 q 560 637 560 602 q 601 691 571 674 m 109 547 l 134 547 q 174 485 174 521 q 134 431 163 448 l 109 431 q 68 494 68 458 q 109 547 79 530 m 232 547 l 256 547 q 298 485 298 521 q 256 431 286 448 l 232 431 q 191 494 191 458 q 232 547 202 530 m 355 547 l 380 547 q 420 485 420 521 q 380 431 409 448 l 355 431 q 314 494 314 458 q 355 547 326 530 m 478 547 l 503 547 q 544 485 544 521 q 503 431 532 448 l 478 431 q 437 494 437 458 q 478 547 448 530 m 601 547 l 626 547 q 667 485 667 521 q 626 431 655 448 l 601 431 q 560 494 560 458 q 601 547 571 530 m 109 404 l 134 404 q 174 341 174 377 q 134 287 163 304 l 109 287 q 68 350 68 314 q 109 404 79 387 m 601 404 l 626 404 q 667 341 667 377 q 626 287 655 304 l 601 287 q 560 350 560 314 q 601 404 571 387 m 109 260 l 134 260 q 174 197 174 233 q 134 144 163 161 l 109 144 q 68 206 68 170 q 109 260 79 243 m 601 260 l 626 260 q 667 197 667 233 q 626 144 655 161 l 601 144 q 560 206 560 170 q 601 260 571 243 m 109 117 l 134 117 q 174 54 174 90 q 134 0 163 17 l 109 0 q 68 63 68 27 q 109 117 79 100 m 601 117 l 626 117 q 667 54 667 90 q 626 0 655 17 l 601 0 q 560 63 560 27 q 601 117 571 100 z "},"i":{"ha":734,"x_min":314,"x_max":420,"o":"m 355 978 l 380 978 q 420 916 420 951 q 380 861 409 878 l 355 861 q 314 924 314 888 q 355 978 326 962 m 355 835 l 380 835 q 420 772 420 808 q 380 718 409 734 l 355 718 q 314 781 314 745 q 355 835 326 818 m 355 691 l 380 691 q 420 628 420 664 q 380 574 409 591 l 355 574 q 314 637 314 602 q 355 691 326 674 m 355 547 l 380 547 q 420 485 420 521 q 380 431 409 448 l 355 431 q 314 494 314 458 q 355 547 326 530 m 355 404 l 380 404 q 420 341 420 377 q 380 287 409 304 l 355 287 q 314 350 314 314 q 355 404 326 387 m 355 260 l 380 260 q 420 197 420 233 q 380 144 409 161 l 355 144 q 314 206 314 170 q 355 260 326 243 m 355 117 l 380 117 q 420 54 420 90 q 380 0 409 17 l 355 0 q 314 63 314 27 q 355 117 326 100 z "},"j":{"ha":734,"x_min":68,"x_max":667,"o":"m 601 978 l 626 978 q 667 916 667 951 q 626 861 655 878 l 601 861 q 560 924 560 888 q 601 978 571 962 m 601 835 l 626 835 q 667 772 667 808 q 626 718 655 734 l 601 718 q 560 781 560 745 q 601 835 571 818 m 601 691 l 626 691 q 667 628 667 664 q 626 574 655 591 l 601 574 q 560 637 560 602 q 601 691 571 674 m 601 547 l 626 547 q 667 485 667 521 q 626 431 655 448 l 601 431 q 560 494 560 458 q 601 547 571 530 m 109 404 l 134 404 q 174 341 174 377 q 134 287 163 304 l 109 287 q 68 350 68 314 q 109 404 79 387 m 601 404 l 626 404 q 667 341 667 377 q 626 287 655 304 l 601 287 q 560 350 560 314 q 601 404 571 387 m 109 260 l 134 260 q 174 197 174 233 q 134 144 163 161 l 109 144 q 68 206 68 170 q 109 260 79 243 m 601 260 l 626 260 q 667 197 667 233 q 626 144 655 161 l 601 144 q 560 206 560 170 q 601 260 571 243 m 232 117 l 256 117 q 298 54 298 90 q 256 0 286 17 l 232 0 q 191 63 191 27 q 232 117 202 100 m 355 117 l 380 117 q 420 54 420 90 q 380 0 409 17 l 355 0 q 314 63 314 27 q 355 117 326 100 m 478 117 l 503 117 q 544 54 544 90 q 503 0 532 17 l 478 0 q 437 63 437 27 q 478 117 448 100 z "},"k":{"ha":734,"x_min":68,"x_max":667,"o":"m 109 978 l 134 978 q 174 916 174 951 q 134 861 163 878 l 109 861 q 68 924 68 888 q 109 978 79 962 m 601 978 l 626 978 q 667 916 667 951 q 626 861 655 878 l 601 861 q 560 924 560 888 q 601 978 571 962 m 109 835 l 134 835 q 174 772 174 808 q 134 718 163 734 l 109 718 q 68 781 68 745 q 109 835 79 818 m 478 835 l 503 835 q 544 772 544 808 q 503 718 532 734 l 478 718 q 437 781 437 745 q 478 835 448 818 m 109 691 l 134 691 q 174 628 174 664 q 134 574 163 591 l 109 574 q 68 637 68 602 q 109 691 79 674 m 355 691 l 380 691 q 420 628 420 664 q 380 574 409 591 l 355 574 q 314 637 314 602 q 355 691 326 674 m 109 547 l 134 547 q 174 485 174 521 q 134 431 163 448 l 109 431 q 68 494 68 458 q 109 547 79 530 m 232 547 l 256 547 q 298 485 298 521 q 256 431 286 448 l 232 431 q 191 494 191 458 q 232 547 202 530 m 109 404 l 134 404 q 174 341 174 377 q 134 287 163 304 l 109 287 q 68 350 68 314 q 109 404 79 387 m 355 404 l 380 404 q 420 341 420 377 q 380 287 409 304 l 355 287 q 314 350 314 314 q 355 404 326 387 m 109 260 l 134 260 q 174 197 174 233 q 134 144 163 161 l 109 144 q 68 206 68 170 q 109 260 79 243 m 478 260 l 503 260 q 544 197 544 233 q 503 144 532 161 l 478 144 q 437 206 437 170 q 478 260 448 243 m 109 117 l 134 117 q 174 54 174 90 q 134 0 163 17 l 109 0 q 68 63 68 27 q 109 117 79 100 m 601 117 l 626 117 q 667 54 667 90 q 626 0 655 17 l 601 0 q 560 63 560 27 q 601 117 571 100 z "},"l":{"ha":734,"x_min":68,"x_max":667,"o":"m 109 978 l 134 978 q 174 916 174 951 q 134 861 163 878 l 109 861 q 68 924 68 888 q 109 978 79 962 m 109 835 l 134 835 q 174 772 174 808 q 134 718 163 734 l 109 718 q 68 781 68 745 q 109 835 79 818 m 109 691 l 134 691 q 174 628 174 664 q 134 574 163 591 l 109 574 q 68 637 68 602 q 109 691 79 674 m 109 547 l 134 547 q 174 485 174 521 q 134 431 163 448 l 109 431 q 68 494 68 458 q 109 547 79 530 m 109 404 l 134 404 q 174 341 174 377 q 134 287 163 304 l 109 287 q 68 350 68 314 q 109 404 79 387 m 109 260 l 134 260 q 174 197 174 233 q 134 144 163 161 l 109 144 q 68 206 68 170 q 109 260 79 243 m 109 117 l 134 117 q 174 54 174 90 q 134 0 163 17 l 109 0 q 68 63 68 27 q 109 117 79 100 m 232 117 l 256 117 q 298 54 298 90 q 256 0 286 17 l 232 0 q 191 63 191 27 q 232 117 202 100 m 355 117 l 380 117 q 420 54 420 90 q 380 0 409 17 l 355 0 q 314 63 314 27 q 355 117 326 100 m 478 117 l 503 117 q 544 54 544 90 q 503 0 532 17 l 478 0 q 437 63 437 27 q 478 117 448 100 m 601 117 l 626 117 q 667 54 667 90 q 626 0 655 17 l 601 0 q 560 63 560 27 q 601 117 571 100 z "},"m":{"ha":734,"x_min":68,"x_max":667,"o":"m 109 978 l 134 978 q 174 916 174 951 q 134 861 163 878 l 109 861 q 68 924 68 888 q 109 978 79 962 m 601 978 l 626 978 q 667 916 667 951 q 626 861 655 878 l 601 861 q 560 924 560 888 q 601 978 571 962 m 109 835 l 134 835 q 174 772 174 808 q 134 718 163 734 l 109 718 q 68 781 68 745 q 109 835 79 818 m 232 835 l 256 835 q 298 772 298 808 q 256 718 286 734 l 232 718 q 191 781 191 745 q 232 835 202 818 m 478 835 l 503 835 q 544 772 544 808 q 503 718 532 734 l 478 718 q 437 781 437 745 q 478 835 448 818 m 601 835 l 626 835 q 667 772 667 808 q 626 718 655 734 l 601 718 q 560 781 560 745 q 601 835 571 818 m 109 691 l 134 691 q 174 628 174 664 q 134 574 163 591 l 109 574 q 68 637 68 602 q 109 691 79 674 m 355 691 l 380 691 q 420 628 420 664 q 380 574 409 591 l 355 574 q 314 637 314 602 q 355 691 326 674 m 601 691 l 626 691 q 667 628 667 664 q 626 574 655 591 l 601 574 q 560 637 560 602 q 601 691 571 674 m 109 547 l 134 547 q 174 485 174 521 q 134 431 163 448 l 109 431 q 68 494 68 458 q 109 547 79 530 m 355 547 l 380 547 q 420 485 420 521 q 380 431 409 448 l 355 431 q 314 494 314 458 q 355 547 326 530 m 601 547 l 626 547 q 667 485 667 521 q 626 431 655 448 l 601 431 q 560 494 560 458 q 601 547 571 530 m 109 404 l 134 404 q 174 341 174 377 q 134 287 163 304 l 109 287 q 68 350 68 314 q 109 404 79 387 m 601 404 l 626 404 q 667 341 667 377 q 626 287 655 304 l 601 287 q 560 350 560 314 q 601 404 571 387 m 109 260 l 134 260 q 174 197 174 233 q 134 144 163 161 l 109 144 q 68 206 68 170 q 109 260 79 243 m 601 260 l 626 260 q 667 197 667 233 q 626 144 655 161 l 601 144 q 560 206 560 170 q 601 260 571 243 m 109 117 l 134 117 q 174 54 174 90 q 134 0 163 17 l 109 0 q 68 63 68 27 q 109 117 79 100 m 601 117 l 626 117 q 667 54 667 90 q 626 0 655 17 l 601 0 q 560 63 560 27 q 601 117 571 100 z "},"n":{"ha":734,"x_min":68,"x_max":667,"o":"m 109 978 l 134 978 q 174 916 174 951 q 134 861 163 878 l 109 861 q 68 924 68 888 q 109 978 79 962 m 601 978 l 626 978 q 667 916 667 951 q 626 861 655 878 l 601 861 q 560 924 560 888 q 601 978 571 962 m 109 835 l 134 835 q 174 772 174 808 q 134 718 163 734 l 109 718 q 68 781 68 745 q 109 835 79 818 m 232 835 l 256 835 q 298 772 298 808 q 256 718 286 734 l 232 718 q 191 781 191 745 q 232 835 202 818 m 601 835 l 626 835 q 667 772 667 808 q 626 718 655 734 l 601 718 q 560 781 560 745 q 601 835 571 818 m 109 691 l 134 691 q 174 628 174 664 q 134 574 163 591 l 109 574 q 68 637 68 602 q 109 691 79 674 m 355 691 l 380 691 q 420 628 420 664 q 380 574 409 591 l 355 574 q 314 637 314 602 q 355 691 326 674 m 601 691 l 626 691 q 667 628 667 664 q 626 574 655 591 l 601 574 q 560 637 560 602 q 601 691 571 674 m 109 547 l 134 547 q 174 485 174 521 q 134 431 163 448 l 109 431 q 68 494 68 458 q 109 547 79 530 m 478 547 l 503 547 q 544 485 544 521 q 503 431 532 448 l 478 431 q 437 494 437 458 q 478 547 448 530 m 601 547 l 626 547 q 667 485 667 521 q 626 431 655 448 l 601 431 q 560 494 560 458 q 601 547 571 530 m 109 404 l 134 404 q 174 341 174 377 q 134 287 163 304 l 109 287 q 68 350 68 314 q 109 404 79 387 m 601 404 l 626 404 q 667 341 667 377 q 626 287 655 304 l 601 287 q 560 350 560 314 q 601 404 571 387 m 109 260 l 134 260 q 174 197 174 233 q 134 144 163 161 l 109 144 q 68 206 68 170 q 109 260 79 243 m 601 260 l 626 260 q 667 197 667 233 q 626 144 655 161 l 601 144 q 560 206 560 170 q 601 260 571 243 m 109 117 l 134 117 q 174 54 174 90 q 134 0 163 17 l 109 0 q 68 63 68 27 q 109 117 79 100 m 601 117 l 626 117 q 667 54 667 90 q 626 0 655 17 l 601 0 q 560 63 560 27 q 601 117 571 100 z "},"o":{"ha":734,"x_min":68,"x_max":667,"o":"m 232 978 l 256 978 q 298 916 298 951 q 256 861 286 878 l 232 861 q 191 924 191 888 q 232 978 202 962 m 355 978 l 380 978 q 420 916 420 951 q 380 861 409 878 l 355 861 q 314 924 314 888 q 355 978 326 962 m 478 978 l 503 978 q 544 916 544 951 q 503 861 532 878 l 478 861 q 437 924 437 888 q 478 978 448 962 m 109 835 l 134 835 q 174 772 174 808 q 134 718 163 734 l 109 718 q 68 781 68 745 q 109 835 79 818 m 601 835 l 626 835 q 667 772 667 808 q 626 718 655 734 l 601 718 q 560 781 560 745 q 601 835 571 818 m 109 691 l 134 691 q 174 628 174 664 q 134 574 163 591 l 109 574 q 68 637 68 602 q 109 691 79 674 m 601 691 l 626 691 q 667 628 667 664 q 626 574 655 591 l 601 574 q 560 637 560 602 q 601 691 571 674 m 109 547 l 134 547 q 174 485 174 521 q 134 431 163 448 l 109 431 q 68 494 68 458 q 109 547 79 530 m 601 547 l 626 547 q 667 485 667 521 q 626 431 655 448 l 601 431 q 560 494 560 458 q 601 547 571 530 m 109 404 l 134 404 q 174 341 174 377 q 134 287 163 304 l 109 287 q 68 350 68 314 q 109 404 79 387 m 601 404 l 626 404 q 667 341 667 377 q 626 287 655 304 l 601 287 q 560 350 560 314 q 601 404 571 387 m 109 260 l 134 260 q 174 197 174 233 q 134 144 163 161 l 109 144 q 68 206 68 170 q 109 260 79 243 m 601 260 l 626 260 q 667 197 667 233 q 626 144 655 161 l 601 144 q 560 206 560 170 q 601 260 571 243 m 232 117 l 256 117 q 298 54 298 90 q 256 0 286 17 l 232 0 q 191 63 191 27 q 232 117 202 100 m 355 117 l 380 117 q 420 54 420 90 q 380 0 409 17 l 355 0 q 314 63 314 27 q 355 117 326 100 m 478 117 l 503 117 q 544 54 544 90 q 503 0 532 17 l 478 0 q 437 63 437 27 q 478 117 448 100 z "},"p":{"ha":734,"x_min":68,"x_max":667,"o":"m 109 978 l 134 978 q 174 916 174 951 q 134 861 163 878 l 109 861 q 68 924 68 888 q 109 978 79 962 m 232 978 l 256 978 q 298 916 298 951 q 256 861 286 878 l 232 861 q 191 924 191 888 q 232 978 202 962 m 355 978 l 380 978 q 420 916 420 951 q 380 861 409 878 l 355 861 q 314 924 314 888 q 355 978 326 962 m 478 978 l 503 978 q 544 916 544 951 q 503 861 532 878 l 478 861 q 437 924 437 888 q 478 978 448 962 m 109 835 l 134 835 q 174 772 174 808 q 134 718 163 734 l 109 718 q 68 781 68 745 q 109 835 79 818 m 601 835 l 626 835 q 667 772 667 808 q 626 718 655 734 l 601 718 q 560 781 560 745 q 601 835 571 818 m 109 691 l 134 691 q 174 628 174 664 q 134 574 163 591 l 109 574 q 68 637 68 602 q 109 691 79 674 m 601 691 l 626 691 q 667 628 667 664 q 626 574 655 591 l 601 574 q 560 637 560 602 q 601 691 571 674 m 109 547 l 134 547 q 174 485 174 521 q 134 431 163 448 l 109 431 q 68 494 68 458 q 109 547 79 530 m 232 547 l 256 547 q 298 485 298 521 q 256 431 286 448 l 232 431 q 191 494 191 458 q 232 547 202 530 m 355 547 l 380 547 q 420 485 420 521 q 380 431 409 448 l 355 431 q 314 494 314 458 q 355 547 326 530 m 478 547 l 503 547 q 544 485 544 521 q 503 431 532 448 l 478 431 q 437 494 437 458 q 478 547 448 530 m 109 404 l 134 404 q 174 341 174 377 q 134 287 163 304 l 109 287 q 68 350 68 314 q 109 404 79 387 m 109 260 l 134 260 q 174 197 174 233 q 134 144 163 161 l 109 144 q 68 206 68 170 q 109 260 79 243 m 109 117 l 134 117 q 174 54 174 90 q 134 0 163 17 l 109 0 q 68 63 68 27 q 109 117 79 100 z "},"q":{"ha":734,"x_min":68,"x_max":667,"o":"m 232 978 l 256 978 q 298 916 298 951 q 256 861 286 878 l 232 861 q 191 924 191 888 q 232 978 202 962 m 355 978 l 380 978 q 420 916 420 951 q 380 861 409 878 l 355 861 q 314 924 314 888 q 355 978 326 962 m 478 978 l 503 978 q 544 916 544 951 q 503 861 532 878 l 478 861 q 437 924 437 888 q 478 978 448 962 m 109 835 l 134 835 q 174 772 174 808 q 134 718 163 734 l 109 718 q 68 781 68 745 q 109 835 79 818 m 601 835 l 626 835 q 667 772 667 808 q 626 718 655 734 l 601 718 q 560 781 560 745 q 601 835 571 818 m 109 691 l 134 691 q 174 628 174 664 q 134 574 163 591 l 109 574 q 68 637 68 602 q 109 691 79 674 m 601 691 l 626 691 q 667 628 667 664 q 626 574 655 591 l 601 574 q 560 637 560 602 q 601 691 571 674 m 109 547 l 134 547 q 174 485 174 521 q 134 431 163 448 l 109 431 q 68 494 68 458 q 109 547 79 530 m 601 547 l 626 547 q 667 485 667 521 q 626 431 655 448 l 601 431 q 560 494 560 458 q 601 547 571 530 m 109 404 l 134 404 q 174 341 174 377 q 134 287 163 304 l 109 287 q 68 350 68 314 q 109 404 79 387 m 355 404 l 380 404 q 420 341 420 377 q 380 287 409 304 l 355 287 q 314 350 314 314 q 355 404 326 387 m 601 404 l 626 404 q 667 341 667 377 q 626 287 655 304 l 601 287 q 560 350 560 314 q 601 404 571 387 m 109 260 l 134 260 q 174 197 174 233 q 134 144 163 161 l 109 144 q 68 206 68 170 q 109 260 79 243 m 478 260 l 503 260 q 544 197 544 233 q 503 144 532 161 l 478 144 q 437 206 437 170 q 478 260 448 243 m 232 117 l 256 117 q 298 54 298 90 q 256 0 286 17 l 232 0 q 191 63 191 27 q 232 117 202 100 m 355 117 l 380 117 q 420 54 420 90 q 380 0 409 17 l 355 0 q 314 63 314 27 q 355 117 326 100 m 601 117 l 626 117 q 667 54 667 90 q 626 0 655 17 l 601 0 q 560 63 560 27 q 601 117 571 100 z "},"r":{"ha":734,"x_min":68,"x_max":667,"o":"m 109 978 l 134 978 q 174 916 174 951 q 134 861 163 878 l 109 861 q 68 924 68 888 q 109 978 79 962 m 232 978 l 256 978 q 298 916 298 951 q 256 861 286 878 l 232 861 q 191 924 191 888 q 232 978 202 962 m 355 978 l 380 978 q 420 916 420 951 q 380 861 409 878 l 355 861 q 314 924 314 888 q 355 978 326 962 m 478 978 l 503 978 q 544 916 544 951 q 503 861 532 878 l 478 861 q 437 924 437 888 q 478 978 448 962 m 109 835 l 134 835 q 174 772 174 808 q 134 718 163 734 l 109 718 q 68 781 68 745 q 109 835 79 818 m 601 835 l 626 835 q 667 772 667 808 q 626 718 655 734 l 601 718 q 560 781 560 745 q 601 835 571 818 m 109 691 l 134 691 q 174 628 174 664 q 134 574 163 591 l 109 574 q 68 637 68 602 q 109 691 79 674 m 601 691 l 626 691 q 667 628 667 664 q 626 574 655 591 l 601 574 q 560 637 560 602 q 601 691 571 674 m 109 547 l 134 547 q 174 485 174 521 q 134 431 163 448 l 109 431 q 68 494 68 458 q 109 547 79 530 m 232 547 l 256 547 q 298 485 298 521 q 256 431 286 448 l 232 431 q 191 494 191 458 q 232 547 202 530 m 355 547 l 380 547 q 420 485 420 521 q 380 431 409 448 l 355 431 q 314 494 314 458 q 355 547 326 530 m 478 547 l 503 547 q 544 485 544 521 q 503 431 532 448 l 478 431 q 437 494 437 458 q 478 547 448 530 m 109 404 l 134 404 q 174 341 174 377 q 134 287 163 304 l 109 287 q 68 350 68 314 q 109 404 79 387 m 355 404 l 380 404 q 420 341 420 377 q 380 287 409 304 l 355 287 q 314 350 314 314 q 355 404 326 387 m 109 260 l 134 260 q 174 197 174 233 q 134 144 163 161 l 109 144 q 68 206 68 170 q 109 260 79 243 m 478 260 l 503 260 q 544 197 544 233 q 503 144 532 161 l 478 144 q 437 206 437 170 q 478 260 448 243 m 109 117 l 134 117 q 174 54 174 90 q 134 0 163 17 l 109 0 q 68 63 68 27 q 109 117 79 100 m 601 117 l 626 117 q 667 54 667 90 q 626 0 655 17 l 601 0 q 560 63 560 27 q 601 117 571 100 z "},"s":{"ha":734,"x_min":68,"x_max":667,"o":"m 232 978 l 256 978 q 298 916 298 951 q 256 861 286 878 l 232 861 q 191 924 191 888 q 232 978 202 962 m 355 978 l 380 978 q 420 916 420 951 q 380 861 409 878 l 355 861 q 314 924 314 888 q 355 978 326 962 m 478 978 l 503 978 q 544 916 544 951 q 503 861 532 878 l 478 861 q 437 924 437 888 q 478 978 448 962 m 109 835 l 134 835 q 174 772 174 808 q 134 718 163 734 l 109 718 q 68 781 68 745 q 109 835 79 818 m 601 835 l 626 835 q 667 772 667 808 q 626 718 655 734 l 601 718 q 560 781 560 745 q 601 835 571 818 m 109 691 l 134 691 q 174 628 174 664 q 134 574 163 591 l 109 574 q 68 637 68 602 q 109 691 79 674 m 232 547 l 256 547 q 298 485 298 521 q 256 431 286 448 l 232 431 q 191 494 191 458 q 232 547 202 530 m 355 547 l 380 547 q 420 485 420 521 q 380 431 409 448 l 355 431 q 314 494 314 458 q 355 547 326 530 m 478 547 l 503 547 q 544 485 544 521 q 503 431 532 448 l 478 431 q 437 494 437 458 q 478 547 448 530 m 601 404 l 626 404 q 667 341 667 377 q 626 287 655 304 l 601 287 q 560 350 560 314 q 601 404 571 387 m 109 260 l 134 260 q 174 197 174 233 q 134 144 163 161 l 109 144 q 68 206 68 170 q 109 260 79 243 m 601 260 l 626 260 q 667 197 667 233 q 626 144 655 161 l 601 144 q 560 206 560 170 q 601 260 571 243 m 232 117 l 256 117 q 298 54 298 90 q 256 0 286 17 l 232 0 q 191 63 191 27 q 232 117 202 100 m 355 117 l 380 117 q 420 54 420 90 q 380 0 409 17 l 355 0 q 314 63 314 27 q 355 117 326 100 m 478 117 l 503 117 q 544 54 544 90 q 503 0 532 17 l 478 0 q 437 63 437 27 q 478 117 448 100 z "},"t":{"ha":734,"x_min":68,"x_max":667,"o":"m 109 978 l 134 978 q 174 916 174 951 q 134 861 163 878 l 109 861 q 68 924 68 888 q 109 978 79 962 m 232 978 l 256 978 q 298 916 298 951 q 256 861 286 878 l 232 861 q 191 924 191 888 q 232 978 202 962 m 355 978 l 380 978 q 420 916 420 951 q 380 861 409 878 l 355 861 q 314 924 314 888 q 355 978 326 962 m 478 978 l 503 978 q 544 916 544 951 q 503 861 532 878 l 478 861 q 437 924 437 888 q 478 978 448 962 m 601 978 l 626 978 q 667 916 667 951 q 626 861 655 878 l 601 861 q 560 924 560 888 q 601 978 571 962 m 355 835 l 380 835 q 420 772 420 808 q 380 718 409 734 l 355 718 q 314 781 314 745 q 355 835 326 818 m 355 691 l 380 691 q 420 628 420 664 q 380 574 409 591 l 355 574 q 314 637 314 602 q 355 691 326 674 m 355 547 l 380 547 q 420 485 420 521 q 380 431 409 448 l 355 431 q 314 494 314 458 q 355 547 326 530 m 355 404 l 380 404 q 420 341 420 377 q 380 287 409 304 l 355 287 q 314 350 314 314 q 355 404 326 387 m 355 260 l 380 260 q 420 197 420 233 q 380 144 409 161 l 355 144 q 314 206 314 170 q 355 260 326 243 m 355 117 l 380 117 q 420 54 420 90 q 380 0 409 17 l 355 0 q 314 63 314 27 q 355 117 326 100 z "},"u":{"ha":734,"x_min":68,"x_max":667,"o":"m 109 978 l 134 978 q 174 916 174 951 q 134 861 163 878 l 109 861 q 68 924 68 888 q 109 978 79 962 m 601 978 l 626 978 q 667 916 667 951 q 626 861 655 878 l 601 861 q 560 924 560 888 q 601 978 571 962 m 109 835 l 134 835 q 174 772 174 808 q 134 718 163 734 l 109 718 q 68 781 68 745 q 109 835 79 818 m 601 835 l 626 835 q 667 772 667 808 q 626 718 655 734 l 601 718 q 560 781 560 745 q 601 835 571 818 m 109 691 l 134 691 q 174 628 174 664 q 134 574 163 591 l 109 574 q 68 637 68 602 q 109 691 79 674 m 601 691 l 626 691 q 667 628 667 664 q 626 574 655 591 l 601 574 q 560 637 560 602 q 601 691 571 674 m 109 547 l 134 547 q 174 485 174 521 q 134 431 163 448 l 109 431 q 68 494 68 458 q 109 547 79 530 m 601 547 l 626 547 q 667 485 667 521 q 626 431 655 448 l 601 431 q 560 494 560 458 q 601 547 571 530 m 109 404 l 134 404 q 174 341 174 377 q 134 287 163 304 l 109 287 q 68 350 68 314 q 109 404 79 387 m 601 404 l 626 404 q 667 341 667 377 q 626 287 655 304 l 601 287 q 560 350 560 314 q 601 404 571 387 m 109 260 l 134 260 q 174 197 174 233 q 134 144 163 161 l 109 144 q 68 206 68 170 q 109 260 79 243 m 601 260 l 626 260 q 667 197 667 233 q 626 144 655 161 l 601 144 q 560 206 560 170 q 601 260 571 243 m 232 117 l 256 117 q 298 54 298 90 q 256 0 286 17 l 232 0 q 191 63 191 27 q 232 117 202 100 m 355 117 l 380 117 q 420 54 420 90 q 380 0 409 17 l 355 0 q 314 63 314 27 q 355 117 326 100 m 478 117 l 503 117 q 544 54 544 90 q 503 0 532 17 l 478 0 q 437 63 437 27 q 478 117 448 100 z "},"v":{"ha":734,"x_min":68,"x_max":667,"o":"m 109 978 l 134 978 q 174 916 174 951 q 134 861 163 878 l 109 861 q 68 924 68 888 q 109 978 79 962 m 601 978 l 626 978 q 667 916 667 951 q 626 861 655 878 l 601 861 q 560 924 560 888 q 601 978 571 962 m 109 835 l 134 835 q 174 772 174 808 q 134 718 163 734 l 109 718 q 68 781 68 745 q 109 835 79 818 m 601 835 l 626 835 q 667 772 667 808 q 626 718 655 734 l 601 718 q 560 781 560 745 q 601 835 571 818 m 109 691 l 134 691 q 174 628 174 664 q 134 574 163 591 l 109 574 q 68 637 68 602 q 109 691 79 674 m 601 691 l 626 691 q 667 628 667 664 q 626 574 655 591 l 601 574 q 560 637 560 602 q 601 691 571 674 m 232 547 l 256 547 q 298 485 298 521 q 256 431 286 448 l 232 431 q 191 494 191 458 q 232 547 202 530 m 478 547 l 503 547 q 544 485 544 521 q 503 431 532 448 l 478 431 q 437 494 437 458 q 478 547 448 530 m 232 404 l 256 404 q 298 341 298 377 q 256 287 286 304 l 232 287 q 191 350 191 314 q 232 404 202 387 m 478 404 l 503 404 q 544 341 544 377 q 503 287 532 304 l 478 287 q 437 350 437 314 q 478 404 448 387 m 355 260 l 380 260 q 420 197 420 233 q 380 144 409 161 l 355 144 q 314 206 314 170 q 355 260 326 243 m 355 117 l 380 117 q 420 54 420 90 q 380 0 409 17 l 355 0 q 314 63 314 27 q 355 117 326 100 z "},"w":{"ha":734,"x_min":68,"x_max":667,"o":"m 109 978 l 134 978 q 174 916 174 951 q 134 861 163 878 l 109 861 q 68 924 68 888 q 109 978 79 962 m 601 978 l 626 978 q 667 916 667 951 q 626 861 655 878 l 601 861 q 560 924 560 888 q 601 978 571 962 m 109 835 l 134 835 q 174 772 174 808 q 134 718 163 734 l 109 718 q 68 781 68 745 q 109 835 79 818 m 601 835 l 626 835 q 667 772 667 808 q 626 718 655 734 l 601 718 q 560 781 560 745 q 601 835 571 818 m 109 691 l 134 691 q 174 628 174 664 q 134 574 163 591 l 109 574 q 68 637 68 602 q 109 691 79 674 m 601 691 l 626 691 q 667 628 667 664 q 626 574 655 591 l 601 574 q 560 637 560 602 q 601 691 571 674 m 109 547 l 134 547 q 174 485 174 521 q 134 431 163 448 l 109 431 q 68 494 68 458 q 109 547 79 530 m 355 547 l 380 547 q 420 485 420 521 q 380 431 409 448 l 355 431 q 314 494 314 458 q 355 547 326 530 m 601 547 l 626 547 q 667 485 667 521 q 626 431 655 448 l 601 431 q 560 494 560 458 q 601 547 571 530 m 109 404 l 134 404 q 174 341 174 377 q 134 287 163 304 l 109 287 q 68 350 68 314 q 109 404 79 387 m 355 404 l 380 404 q 420 341 420 377 q 380 287 409 304 l 355 287 q 314 350 314 314 q 355 404 326 387 m 601 404 l 626 404 q 667 341 667 377 q 626 287 655 304 l 601 287 q 560 350 560 314 q 601 404 571 387 m 109 260 l 134 260 q 174 197 174 233 q 134 144 163 161 l 109 144 q 68 206 68 170 q 109 260 79 243 m 232 260 l 256 260 q 298 197 298 233 q 256 144 286 161 l 232 144 q 191 206 191 170 q 232 260 202 243 m 478 260 l 503 260 q 544 197 544 233 q 503 144 532 161 l 478 144 q 437 206 437 170 q 478 260 448 243 m 601 260 l 626 260 q 667 197 667 233 q 626 144 655 161 l 601 144 q 560 206 560 170 q 601 260 571 243 m 109 117 l 134 117 q 174 54 174 90 q 134 0 163 17 l 109 0 q 68 63 68 27 q 109 117 79 100 m 601 117 l 626 117 q 667 54 667 90 q 626 0 655 17 l 601 0 q 560 63 560 27 q 601 117 571 100 z "},"x":{"ha":734,"x_min":68,"x_max":667,"o":"m 109 978 l 134 978 q 174 916 174 951 q 134 861 163 878 l 109 861 q 68 924 68 888 q 109 978 79 962 m 601 978 l 626 978 q 667 916 667 951 q 626 861 655 878 l 601 861 q 560 924 560 888 q 601 978 571 962 m 109 835 l 134 835 q 174 772 174 808 q 134 718 163 734 l 109 718 q 68 781 68 745 q 109 835 79 818 m 601 835 l 626 835 q 667 772 667 808 q 626 718 655 734 l 601 718 q 560 781 560 745 q 601 835 571 818 m 232 691 l 256 691 q 298 628 298 664 q 256 574 286 591 l 232 574 q 191 637 191 602 q 232 691 202 674 m 478 691 l 503 691 q 544 628 544 664 q 503 574 532 591 l 478 574 q 437 637 437 602 q 478 691 448 674 m 355 547 l 380 547 q 420 485 420 521 q 380 431 409 448 l 355 431 q 314 494 314 458 q 355 547 326 530 m 232 404 l 256 404 q 298 341 298 377 q 256 287 286 304 l 232 287 q 191 350 191 314 q 232 404 202 387 m 478 404 l 503 404 q 544 341 544 377 q 503 287 532 304 l 478 287 q 437 350 437 314 q 478 404 448 387 m 109 260 l 134 260 q 174 197 174 233 q 134 144 163 161 l 109 144 q 68 206 68 170 q 109 260 79 243 m 601 260 l 626 260 q 667 197 667 233 q 626 144 655 161 l 601 144 q 560 206 560 170 q 601 260 571 243 m 109 117 l 134 117 q 174 54 174 90 q 134 0 163 17 l 109 0 q 68 63 68 27 q 109 117 79 100 m 601 117 l 626 117 q 667 54 667 90 q 626 0 655 17 l 601 0 q 560 63 560 27 q 601 117 571 100 z "},"y":{"ha":734,"x_min":68,"x_max":667,"o":"m 109 978 l 134 978 q 174 916 174 951 q 134 861 163 878 l 109 861 q 68 924 68 888 q 109 978 79 962 m 601 978 l 626 978 q 667 916 667 951 q 626 861 655 878 l 601 861 q 560 924 560 888 q 601 978 571 962 m 109 835 l 134 835 q 174 772 174 808 q 134 718 163 734 l 109 718 q 68 781 68 745 q 109 835 79 818 m 601 835 l 626 835 q 667 772 667 808 q 626 718 655 734 l 601 718 q 560 781 560 745 q 601 835 571 818 m 109 691 l 134 691 q 174 628 174 664 q 134 574 163 591 l 109 574 q 68 637 68 602 q 109 691 79 674 m 601 691 l 626 691 q 667 628 667 664 q 626 574 655 591 l 601 574 q 560 637 560 602 q 601 691 571 674 m 232 547 l 256 547 q 298 485 298 521 q 256 431 286 448 l 232 431 q 191 494 191 458 q 232 547 202 530 m 355 404 l 380 404 q 420 341 420 377 q 380 287 409 304 l 355 287 q 314 350 314 314 q 355 404 326 387 m 355 260 l 380 260 q 420 197 420 233 q 380 144 409 161 l 355 144 q 314 206 314 170 q 355 260 326 243 m 355 117 l 380 117 q 420 54 420 90 q 380 0 409 17 l 355 0 q 314 63 314 27 q 355 117 326 100 m 478 547 l 503 547 q 544 485 544 521 q 503 431 532 448 l 478 431 q 437 494 437 458 q 478 547 448 530 z "},"z":{"ha":734,"x_min":68,"x_max":667,"o":"m 109 978 l 134 978 q 174 916 174 951 q 134 861 163 878 l 109 861 q 68 924 68 888 q 109 978 79 962 m 232 978 l 256 978 q 298 916 298 951 q 256 861 286 878 l 232 861 q 191 924 191 888 q 232 978 202 962 m 355 978 l 380 978 q 420 916 420 951 q 380 861 409 878 l 355 861 q 314 924 314 888 q 355 978 326 962 m 478 978 l 503 978 q 544 916 544 951 q 503 861 532 878 l 478 861 q 437 924 437 888 q 478 978 448 962 m 601 978 l 626 978 q 667 916 667 951 q 626 861 655 878 l 601 861 q 560 924 560 888 q 601 978 571 962 m 601 835 l 626 835 q 667 772 667 808 q 626 718 655 734 l 601 718 q 560 781 560 745 q 601 835 571 818 m 478 691 l 503 691 q 544 628 544 664 q 503 574 532 591 l 478 574 q 437 637 437 602 q 478 691 448 674 m 355 547 l 380 547 q 420 485 420 521 q 380 431 409 448 l 355 431 q 314 494 314 458 q 355 547 326 530 m 232 404 l 256 404 q 298 341 298 377 q 256 287 286 304 l 232 287 q 191 350 191 314 q 232 404 202 387 m 109 260 l 134 260 q 174 197 174 233 q 134 144 163 161 l 109 144 q 68 206 68 170 q 109 260 79 243 m 109 117 l 134 117 q 174 54 174 90 q 134 0 163 17 l 109 0 q 68 63 68 27 q 109 117 79 100 m 232 117 l 256 117 q 298 54 298 90 q 256 0 286 17 l 232 0 q 191 63 191 27 q 232 117 202 100 m 355 117 l 380 117 q 420 54 420 90 q 380 0 409 17 l 355 0 q 314 63 314 27 q 355 117 326 100 m 478 117 l 503 117 q 544 54 544 90 q 503 0 532 17 l 478 0 q 437 63 437 27 q 478 117 448 100 m 601 117 l 626 117 q 667 54 667 90 q 626 0 655 17 l 601 0 q 560 63 560 27 q 601 117 571 100 z "},"{":{"ha":734,"x_min":68,"x_max":420,"o":"m 355 978 l 380 978 q 420 916 420 951 q 380 861 409 878 l 355 861 q 314 924 314 888 q 355 978 326 962 m 232 835 l 256 835 q 298 772 298 808 q 256 718 286 734 l 232 718 q 191 781 191 745 q 232 835 202 818 m 232 691 l 256 691 q 298 628 298 664 q 256 574 286 591 l 232 574 q 191 637 191 602 q 232 691 202 674 m 109 547 l 134 547 q 174 485 174 521 q 134 431 163 448 l 109 431 q 68 494 68 458 q 109 547 79 530 m 232 404 l 256 404 q 298 341 298 377 q 256 287 286 304 l 232 287 q 191 350 191 314 q 232 404 202 387 m 232 260 l 256 260 q 298 197 298 233 q 256 144 286 161 l 232 144 q 191 206 191 170 q 232 260 202 243 m 355 117 l 380 117 q 420 54 420 90 q 380 0 409 17 l 355 0 q 314 63 314 27 q 355 117 326 100 z "},"|":{"ha":734,"x_min":314,"x_max":420,"o":"m 355 978 l 380 978 q 420 916 420 951 q 380 861 409 878 l 355 861 q 314 924 314 888 q 355 978 326 962 m 355 835 l 380 835 q 420 772 420 808 q 380 718 409 734 l 355 718 q 314 781 314 745 q 355 835 326 818 m 355 691 l 380 691 q 420 628 420 664 q 380 574 409 591 l 355 574 q 314 637 314 602 q 355 691 326 674 m 355 547 l 380 547 q 420 485 420 521 q 380 431 409 448 l 355 431 q 314 494 314 458 q 355 547 326 530 m 355 404 l 380 404 q 420 341 420 377 q 380 287 409 304 l 355 287 q 314 350 314 314 q 355 404 326 387 m 355 260 l 380 260 q 420 197 420 233 q 380 144 409 161 l 355 144 q 314 206 314 170 q 355 260 326 243 m 355 117 l 380 117 q 420 54 420 90 q 380 0 409 17 l 355 0 q 314 63 314 27 q 355 117 326 100 z "},"}":{"ha":734,"x_min":314,"x_max":667,"o":"m 355 978 l 380 978 q 420 916 420 951 q 380 861 409 878 l 355 861 q 314 924 314 888 q 355 978 326 962 m 478 835 l 503 835 q 544 772 544 808 q 503 718 532 734 l 478 718 q 437 781 437 745 q 478 835 448 818 m 478 691 l 503 691 q 544 628 544 664 q 503 574 532 591 l 478 574 q 437 637 437 602 q 478 691 448 674 m 478 404 l 503 404 q 544 341 544 377 q 503 287 532 304 l 478 287 q 437 350 437 314 q 478 404 448 387 m 478 260 l 503 260 q 544 197 544 233 q 503 144 532 161 l 478 144 q 437 206 437 170 q 478 260 448 243 m 355 117 l 380 117 q 420 54 420 90 q 380 0 409 17 l 355 0 q 314 63 314 27 q 355 117 326 100 m 601 547 l 626 547 q 667 485 667 521 q 626 431 655 448 l 601 431 q 560 494 560 458 q 601 547 571 530 z "},"~":{"ha":734,"x_min":68,"x_max":667,"o":"m 232 547 l 256 547 q 298 485 298 521 q 256 431 286 448 l 232 431 q 191 494 191 458 q 232 547 202 530 m 355 547 l 380 547 q 420 485 420 521 q 380 431 409 448 l 355 431 q 314 494 314 458 q 355 547 326 530 m 601 547 l 626 547 q 667 485 667 521 q 626 431 655 448 l 601 431 q 560 494 560 458 q 601 547 571 530 m 109 404 l 134 404 q 174 341 174 377 q 134 287 163 304 l 109 287 q 68 350 68 314 q 109 404 79 387 m 478 404 l 503 404 q 544 341 544 377 q 503 287 532 304 l 478 287 q 437 350 437 314 q 478 404 448 387 z "},"":{"ha":734,"x_min":314,"x_max":420,"o":"m 355 978 l 380 978 q 420 916 420 951 q 380 861 409 878 l 355 861 q 314 924 314 888 q 355 978 326 962 m 355 691 l 380 691 q 420 628 420 664 q 380 574 409 591 l 355 574 q 314 637 314 602 q 355 691 326 674 m 355 547 l 380 547 q 420 485 420 521 q 380 431 409 448 l 355 431 q 314 494 314 458 q 355 547 326 530 m 355 404 l 380 404 q 420 341 420 377 q 380 287 409 304 l 355 287 q 314 350 314 314 q 355 404 326 387 m 355 260 l 380 260 q 420 197 420 233 q 380 144 409 161 l 355 144 q 314 206 314 170 q 355 260 326 243 m 355 117 l 380 117 q 420 54 420 90 q 380 0 409 17 l 355 0 q 314 63 314 27 q 355 117 326 100 z "},"":{"ha":734,"x_min":68,"x_max":667,"o":"m 355 978 l 380 978 q 420 916 420 951 q 380 861 409 878 l 355 861 q 314 924 314 888 q 355 978 326 962 m 232 835 l 256 835 q 298 772 298 808 q 256 718 286 734 l 232 718 q 191 781 191 745 q 232 835 202 818 m 355 835 l 380 835 q 420 772 420 808 q 380 718 409 734 l 355 718 q 314 781 314 745 q 355 835 326 818 m 478 835 l 503 835 q 544 772 544 808 q 503 718 532 734 l 478 718 q 437 781 437 745 q 478 835 448 818 m 109 691 l 134 691 q 174 628 174 664 q 134 574 163 591 l 109 574 q 68 637 68 602 q 109 691 79 674 m 601 691 l 626 691 q 667 628 667 664 q 626 574 655 591 l 601 574 q 560 637 560 602 q 601 691 571 674 m 109 547 l 134 547 q 174 485 174 521 q 134 431 163 448 l 109 431 q 68 494 68 458 q 109 547 79 530 m 109 404 l 134 404 q 174 341 174 377 q 134 287 163 304 l 109 287 q 68 350 68 314 q 109 404 79 387 m 601 404 l 626 404 q 667 341 667 377 q 626 287 655 304 l 601 287 q 560 350 560 314 q 601 404 571 387 m 232 260 l 256 260 q 298 197 298 233 q 256 144 286 161 l 232 144 q 191 206 191 170 q 232 260 202 243 m 355 260 l 380 260 q 420 197 420 233 q 380 144 409 161 l 355 144 q 314 206 314 170 q 355 260 326 243 m 478 260 l 503 260 q 544 197 544 233 q 503 144 532 161 l 478 144 q 437 206 437 170 q 478 260 448 243 m 355 117 l 380 117 q 420 54 420 90 q 380 0 409 17 l 355 0 q 314 63 314 27 q 355 117 326 100 z "},"":{"ha":734,"x_min":68,"x_max":667,"o":"m 355 978 l 380 978 q 420 916 420 951 q 380 861 409 878 l 355 861 q 314 924 314 888 q 355 978 326 962 m 478 978 l 503 978 q 544 916 544 951 q 503 861 532 878 l 478 861 q 437 924 437 888 q 478 978 448 962 m 232 835 l 256 835 q 298 772 298 808 q 256 718 286 734 l 232 718 q 191 781 191 745 q 232 835 202 818 m 601 835 l 626 835 q 667 772 667 808 q 626 718 655 734 l 601 718 q 560 781 560 745 q 601 835 571 818 m 232 691 l 256 691 q 298 628 298 664 q 256 574 286 591 l 232 574 q 191 637 191 602 q 232 691 202 674 m 109 547 l 134 547 q 174 485 174 521 q 134 431 163 448 l 109 431 q 68 494 68 458 q 109 547 79 530 m 232 547 l 256 547 q 298 485 298 521 q 256 431 286 448 l 232 431 q 191 494 191 458 q 232 547 202 530 m 355 547 l 380 547 q 420 485 420 521 q 380 431 409 448 l 355 431 q 314 494 314 458 q 355 547 326 530 m 232 404 l 256 404 q 298 341 298 377 q 256 287 286 304 l 232 287 q 191 350 191 314 q 232 404 202 387 m 232 260 l 256 260 q 298 197 298 233 q 256 144 286 161 l 232 144 q 191 206 191 170 q 232 260 202 243 m 109 117 l 134 117 q 174 54 174 90 q 134 0 163 17 l 109 0 q 68 63 68 27 q 109 117 79 100 m 232 117 l 256 117 q 298 54 298 90 q 256 0 286 17 l 232 0 q 191 63 191 27 q 232 117 202 100 m 355 117 l 380 117 q 420 54 420 90 q 380 0 409 17 l 355 0 q 314 63 314 27 q 355 117 326 100 m 478 117 l 503 117 q 544 54 544 90 q 503 0 532 17 l 478 0 q 437 63 437 27 q 478 117 448 100 m 601 117 l 626 117 q 667 54 667 90 q 626 0 655 17 l 601 0 q 560 63 560 27 q 601 117 571 100 z "},"":{"ha":688,"x_min":83,"x_max":604,"o":"m 237 380 q 304 341 265 353 q 344 336 324 336 q 383 341 363 336 q 450 380 422 353 q 489 447 477 408 q 495 486 495 467 q 489 526 495 506 q 450 593 477 565 q 382 631 422 620 q 343 637 363 637 q 304 631 323 637 q 237 593 264 619 q 199 526 211 566 q 193 486 193 506 q 199 448 193 467 q 237 380 210 408 m 163 612 l 83 692 l 137 747 l 217 667 q 284 699 247 688 q 345 708 314 708 q 401 700 372 708 q 470 667 439 688 l 550 747 l 604 692 l 525 613 q 557 544 546 582 q 566 486 566 515 q 557 429 566 458 q 525 359 546 391 l 604 280 l 550 225 l 470 305 q 401 273 439 283 q 344 264 373 264 q 286 273 315 264 q 217 305 248 283 l 137 225 l 83 280 l 163 359 q 130 429 141 391 q 122 486 122 458 q 131 545 122 516 q 163 612 142 583 z "},"":{"ha":734,"x_min":68,"x_max":667,"o":"m 109 978 l 134 978 q 174 916 174 951 q 134 861 163 878 l 109 861 q 68 924 68 888 q 109 978 79 962 m 601 978 l 626 978 q 667 916 667 951 q 626 861 655 878 l 601 861 q 560 924 560 888 q 601 978 571 962 m 109 835 l 134 835 q 174 772 174 808 q 134 718 163 734 l 109 718 q 68 781 68 745 q 109 835 79 818 m 601 835 l 626 835 q 667 772 667 808 q 626 718 655 734 l 601 718 q 560 781 560 745 q 601 835 571 818 m 109 691 l 134 691 q 174 628 174 664 q 134 574 163 591 l 109 574 q 68 637 68 602 q 109 691 79 674 m 601 691 l 626 691 q 667 628 667 664 q 626 574 655 591 l 601 574 q 560 637 560 602 q 601 691 571 674 m 232 547 l 256 547 q 298 485 298 521 q 256 431 286 448 l 232 431 q 191 494 191 458 q 232 547 202 530 m 355 404 l 380 404 q 420 341 420 377 q 380 287 409 304 l 355 287 q 314 350 314 314 q 355 404 326 387 m 355 260 l 380 260 q 420 197 420 233 q 380 144 409 161 l 355 144 q 314 206 314 170 q 355 260 326 243 m 355 117 l 380 117 q 420 54 420 90 q 380 0 409 17 l 355 0 q 314 63 314 27 q 355 117 326 100 m 478 547 l 503 547 q 544 485 544 521 q 503 431 532 448 l 478 431 q 437 494 437 458 q 478 547 448 530 m 232 263 l 256 263 q 298 201 298 237 q 256 146 286 163 l 232 146 q 191 210 191 174 q 232 263 202 246 m 355 263 l 380 263 q 420 201 420 237 q 380 146 409 163 l 355 146 q 314 210 314 174 q 355 263 326 246 m 478 263 l 503 263 q 544 201 544 237 q 503 146 532 163 l 478 146 q 437 210 437 174 q 478 263 448 246 z "},"":{"ha":734,"x_min":314,"x_max":420,"o":"m 355 978 l 380 978 q 420 916 420 951 q 380 861 409 878 l 355 861 q 314 924 314 888 q 355 978 326 962 m 355 835 l 380 835 q 420 772 420 808 q 380 718 409 734 l 355 718 q 314 781 314 745 q 355 835 326 818 m 355 691 l 380 691 q 420 628 420 664 q 380 574 409 591 l 355 574 q 314 637 314 602 q 355 691 326 674 m 355 404 l 380 404 q 420 341 420 377 q 380 287 409 304 l 355 287 q 314 350 314 314 q 355 404 326 387 m 355 260 l 380 260 q 420 197 420 233 q 380 144 409 161 l 355 144 q 314 206 314 170 q 355 260 326 243 m 355 117 l 380 117 q 420 54 420 90 q 380 0 409 17 l 355 0 q 314 63 314 27 q 355 117 326 100 z "},"":{"ha":688,"x_min":115,"x_max":572,"o":"m 370 218 q 435 254 408 229 q 485 366 485 298 q 484 373 485 370 l 483 373 q 480 391 482 382 q 404 477 465 433 q 318 497 363 497 q 233 467 265 497 q 201 387 201 437 q 370 218 201 304 m 316 -235 q 441 -188 393 -231 q 490 -76 490 -144 q 276 111 490 9 q 157 204 193 155 q 121 324 121 254 q 182 485 121 425 q 297 541 227 529 l 270 553 q 151 646 186 597 q 115 766 115 696 q 176 927 115 867 q 322 985 231 981 q 334 986 328 986 l 336 986 q 446 975 380 986 q 512 947 512 964 l 512 815 l 477 815 q 423 905 474 870 q 322 939 376 937 l 312 939 q 227 909 259 939 q 195 829 195 879 q 390 647 195 740 q 529 550 491 602 q 566 422 566 498 q 498 231 566 307 q 431 188 466 205 q 535 108 504 150 q 572 -19 572 56 q 504 -211 572 -135 q 316 -282 420 -280 l 316 -281 q 307 -282 312 -282 l 305 -282 q 195 -271 260 -282 q 129 -243 129 -260 l 129 -111 l 163 -111 q 218 -201 167 -166 q 316 -235 264 -231 z "},"":{"ha":734,"x_min":191,"x_max":544,"o":"m 232 1266 l 256 1266 q 298 1204 298 1240 q 256 1149 286 1166 l 232 1149 q 191 1213 191 1177 q 232 1266 202 1250 m 478 1266 l 503 1266 q 544 1204 544 1240 q 503 1149 532 1166 l 478 1149 q 437 1213 437 1177 q 478 1266 448 1250 z "},"":{"ha":734,"x_min":68,"x_max":667,"o":"m 232 978 l 256 978 q 298 916 298 951 q 256 861 286 878 l 232 861 q 191 924 191 888 q 232 978 202 962 m 355 978 l 380 978 q 420 916 420 951 q 380 861 409 878 l 355 861 q 314 924 314 888 q 355 978 326 962 m 478 978 l 503 978 q 544 916 544 951 q 503 861 532 878 l 478 861 q 437 924 437 888 q 478 978 448 962 m 109 835 l 134 835 q 174 772 174 808 q 134 718 163 734 l 109 718 q 68 781 68 745 q 109 835 79 818 m 355 835 l 380 835 q 420 772 420 808 q 380 718 409 734 l 355 718 q 314 781 314 745 q 355 835 326 818 m 601 835 l 626 835 q 667 772 667 808 q 626 718 655 734 l 601 718 q 560 781 560 745 q 601 835 571 818 m 109 691 l 134 691 q 174 628 174 664 q 134 574 163 591 l 109 574 q 68 637 68 602 q 109 691 79 674 m 232 691 l 256 691 q 298 628 298 664 q 256 574 286 591 l 232 574 q 191 637 191 602 q 232 691 202 674 m 478 691 l 503 691 q 544 628 544 664 q 503 574 532 591 l 478 574 q 437 637 437 602 q 478 691 448 674 m 601 691 l 626 691 q 667 628 667 664 q 626 574 655 591 l 601 574 q 560 637 560 602 q 601 691 571 674 m 109 547 l 134 547 q 174 485 174 521 q 134 431 163 448 l 109 431 q 68 494 68 458 q 109 547 79 530 m 232 547 l 256 547 q 298 485 298 521 q 256 431 286 448 l 232 431 q 191 494 191 458 q 232 547 202 530 m 601 547 l 626 547 q 667 485 667 521 q 626 431 655 448 l 601 431 q 560 494 560 458 q 601 547 571 530 m 109 404 l 134 404 q 174 341 174 377 q 134 287 163 304 l 109 287 q 68 350 68 314 q 109 404 79 387 m 232 404 l 256 404 q 298 341 298 377 q 256 287 286 304 l 232 287 q 191 350 191 314 q 232 404 202 387 m 478 404 l 503 404 q 544 341 544 377 q 503 287 532 304 l 478 287 q 437 350 437 314 q 478 404 448 387 m 601 404 l 626 404 q 667 341 667 377 q 626 287 655 304 l 601 287 q 560 350 560 314 q 601 404 571 387 m 109 260 l 134 260 q 174 197 174 233 q 134 144 163 161 l 109 144 q 68 206 68 170 q 109 260 79 243 m 355 260 l 380 260 q 420 197 420 233 q 380 144 409 161 l 355 144 q 314 206 314 170 q 355 260 326 243 m 601 260 l 626 260 q 667 197 667 233 q 626 144 655 161 l 601 144 q 560 206 560 170 q 601 260 571 243 m 232 117 l 256 117 q 298 54 298 90 q 256 0 286 17 l 232 0 q 191 63 191 27 q 232 117 202 100 m 355 117 l 380 117 q 420 54 420 90 q 380 0 409 17 l 355 0 q 314 63 314 27 q 355 117 326 100 m 478 117 l 503 117 q 544 54 544 90 q 503 0 532 17 l 478 0 q 437 63 437 27 q 478 117 448 100 z "},"":{"ha":531,"x_min":68,"x_max":463,"o":"m 176 978 l 192 978 q 220 941 220 962 q 192 908 212 918 l 176 908 q 149 946 149 924 q 176 978 157 968 m 257 978 l 274 978 q 300 941 300 962 q 274 908 293 918 l 257 908 q 231 946 231 924 q 257 978 238 968 m 338 978 l 355 978 q 382 941 382 962 q 355 908 374 918 l 338 908 q 311 946 311 924 q 338 978 319 968 m 95 892 l 111 892 q 138 854 138 876 q 111 822 131 832 l 95 822 q 68 859 68 838 q 95 892 75 882 m 420 892 l 436 892 q 463 854 463 876 q 436 822 456 832 l 420 822 q 393 859 393 838 q 420 892 400 882 m 95 806 l 111 806 q 138 768 138 789 q 111 736 131 746 l 95 736 q 68 774 68 752 q 95 806 75 795 m 420 806 l 436 806 q 463 768 463 789 q 436 736 456 746 l 420 736 q 393 774 393 752 q 420 806 400 795 m 95 720 l 111 720 q 138 682 138 704 q 111 650 131 660 l 95 650 q 68 688 68 666 q 95 720 75 709 m 176 720 l 192 720 q 220 682 220 704 q 192 650 212 660 l 176 650 q 149 688 149 666 q 176 720 157 709 m 257 720 l 274 720 q 300 682 300 704 q 274 650 293 660 l 257 650 q 231 688 231 666 q 257 720 238 709 m 338 720 l 355 720 q 382 682 382 704 q 355 650 374 660 l 338 650 q 311 688 311 666 q 338 720 319 709 m 420 720 l 436 720 q 463 682 463 704 q 436 650 456 660 l 420 650 q 393 688 393 666 q 420 720 400 709 m 95 633 l 111 633 q 138 596 138 617 q 111 564 131 574 l 95 564 q 68 601 68 580 q 95 633 75 623 m 420 633 l 436 633 q 463 596 463 617 q 436 564 456 574 l 420 564 q 393 601 393 580 q 420 633 400 623 m 95 547 l 111 547 q 138 509 138 531 q 111 477 131 488 l 95 477 q 68 515 68 493 q 95 547 75 537 m 420 547 l 436 547 q 463 509 463 531 q 436 477 456 488 l 420 477 q 393 515 393 493 q 420 547 400 537 m 95 461 l 111 461 q 138 423 138 445 q 111 391 131 401 l 95 391 q 68 429 68 408 q 95 461 75 451 m 420 461 l 436 461 q 463 423 463 445 q 436 391 456 401 l 420 391 q 393 429 393 408 q 420 461 400 451 z "},"":{"ha":1045,"x_min":191,"x_max":854,"o":"m 478 835 l 503 835 q 544 772 544 808 q 503 718 532 734 l 478 718 q 437 781 437 745 q 478 835 448 818 m 355 691 l 380 691 q 420 628 420 664 q 380 574 409 591 l 355 574 q 314 637 314 602 q 355 691 326 674 m 232 547 l 256 547 q 298 485 298 521 q 256 431 286 448 l 232 431 q 191 494 191 458 q 232 547 202 530 m 355 404 l 380 404 q 420 341 420 377 q 380 287 409 304 l 355 287 q 314 350 314 314 q 355 404 326 387 m 478 260 l 503 260 q 544 197 544 233 q 503 144 532 161 l 478 144 q 437 206 437 170 q 478 260 448 243 m 789 835 l 813 835 q 854 772 854 808 q 813 718 843 734 l 789 718 q 747 781 747 745 q 789 835 759 818 m 665 691 l 690 691 q 731 628 731 664 q 690 574 720 591 l 665 574 q 625 637 625 602 q 665 691 636 674 m 543 547 l 567 547 q 608 485 608 521 q 567 431 597 448 l 543 431 q 501 494 501 458 q 543 547 513 530 m 665 404 l 690 404 q 731 341 731 377 q 690 287 720 304 l 665 287 q 625 350 625 314 q 665 404 636 387 m 789 260 l 813 260 q 854 197 854 233 q 813 144 843 161 l 789 144 q 747 206 747 170 q 789 260 759 243 z "},"":{"ha":688,"x_min":59,"x_max":629,"o":"m 59 520 l 629 520 l 629 187 l 628 186 l 562 186 l 562 452 l 59 452 l 59 520 z "},"":{"ha":734,"x_min":68,"x_max":667,"o":"m 232 978 l 256 978 q 298 916 298 951 q 256 861 286 878 l 232 861 q 191 924 191 888 q 232 978 202 962 m 355 978 l 380 978 q 420 916 420 951 q 380 861 409 878 l 355 861 q 314 924 314 888 q 355 978 326 962 m 478 978 l 503 978 q 544 916 544 951 q 503 861 532 878 l 478 861 q 437 924 437 888 q 478 978 448 962 m 109 835 l 134 835 q 174 772 174 808 q 134 718 163 734 l 109 718 q 68 781 68 745 q 109 835 79 818 m 232 835 l 256 835 q 298 772 298 808 q 256 718 286 734 l 232 718 q 191 781 191 745 q 232 835 202 818 m 355 835 l 380 835 q 420 772 420 808 q 380 718 409 734 l 355 718 q 314 781 314 745 q 355 835 326 818 m 601 835 l 626 835 q 667 772 667 808 q 626 718 655 734 l 601 718 q 560 781 560 745 q 601 835 571 818 m 109 691 l 134 691 q 174 628 174 664 q 134 574 163 591 l 109 574 q 68 637 68 602 q 109 691 79 674 m 232 691 l 256 691 q 298 628 298 664 q 256 574 286 591 l 232 574 q 191 637 191 602 q 232 691 202 674 m 478 691 l 503 691 q 544 628 544 664 q 503 574 532 591 l 478 574 q 437 637 437 602 q 478 691 448 674 m 601 691 l 626 691 q 667 628 667 664 q 626 574 655 591 l 601 574 q 560 637 560 602 q 601 691 571 674 m 109 547 l 134 547 q 174 485 174 521 q 134 431 163 448 l 109 431 q 68 494 68 458 q 109 547 79 530 m 232 547 l 256 547 q 298 485 298 521 q 256 431 286 448 l 232 431 q 191 494 191 458 q 232 547 202 530 m 355 547 l 380 547 q 420 485 420 521 q 380 431 409 448 l 355 431 q 314 494 314 458 q 355 547 326 530 m 601 547 l 626 547 q 667 485 667 521 q 626 431 655 448 l 601 431 q 560 494 560 458 q 601 547 571 530 m 109 404 l 134 404 q 174 341 174 377 q 134 287 163 304 l 109 287 q 68 350 68 314 q 109 404 79 387 m 232 404 l 256 404 q 298 341 298 377 q 256 287 286 304 l 232 287 q 191 350 191 314 q 232 404 202 387 m 478 404 l 503 404 q 544 341 544 377 q 503 287 532 304 l 478 287 q 437 350 437 314 q 478 404 448 387 m 601 404 l 626 404 q 667 341 667 377 q 626 287 655 304 l 601 287 q 560 350 560 314 q 601 404 571 387 m 109 260 l 134 260 q 174 197 174 233 q 134 144 163 161 l 109 144 q 68 206 68 170 q 109 260 79 243 m 232 260 l 256 260 q 298 197 298 233 q 256 144 286 161 l 232 144 q 191 206 191 170 q 232 260 202 243 m 478 260 l 503 260 q 544 197 544 233 q 503 144 532 161 l 478 144 q 437 206 437 170 q 478 260 448 243 m 601 260 l 626 260 q 667 197 667 233 q 626 144 655 161 l 601 144 q 560 206 560 170 q 601 260 571 243 m 232 117 l 256 117 q 298 54 298 90 q 256 0 286 17 l 232 0 q 191 63 191 27 q 232 117 202 100 m 355 117 l 380 117 q 420 54 420 90 q 380 0 409 17 l 355 0 q 314 63 314 27 q 355 117 326 100 m 478 117 l 503 117 q 544 54 544 90 q 503 0 532 17 l 478 0 q 437 63 437 27 q 478 117 448 100 z "},"":{"ha":734,"x_min":191,"x_max":544,"o":"m 232 1123 l 256 1123 q 298 1060 298 1096 q 256 1006 286 1023 l 232 1006 q 191 1069 191 1033 q 232 1123 202 1106 m 355 1123 l 380 1123 q 420 1060 420 1096 q 380 1006 409 1023 l 355 1006 q 314 1069 314 1033 q 355 1123 326 1106 m 478 1123 l 503 1123 q 544 1060 544 1096 q 503 1006 532 1023 l 478 1006 q 437 1069 437 1033 q 478 1123 448 1106 z "},"":{"ha":457,"x_min":41,"x_max":418,"o":"m 230 930 q 130 889 172 930 q 88 789 88 848 q 130 689 88 730 q 230 648 171 648 q 330 689 289 648 q 370 789 370 730 q 329 889 370 848 q 230 930 288 930 m 230 978 q 363 923 308 978 q 418 789 418 867 q 362 656 418 712 q 229 601 307 601 q 95 656 149 601 q 41 789 41 711 q 96 923 41 868 q 230 978 151 978 z "},"":{"ha":734,"x_min":68,"x_max":667,"o":"m 355 835 l 380 835 q 420 772 420 808 q 380 718 409 734 l 355 718 q 314 781 314 745 q 355 835 326 818 m 355 691 l 380 691 q 420 628 420 664 q 380 574 409 591 l 355 574 q 314 637 314 602 q 355 691 326 674 m 109 547 l 134 547 q 174 485 174 521 q 134 431 163 448 l 109 431 q 68 494 68 458 q 109 547 79 530 m 232 547 l 256 547 q 298 485 298 521 q 256 431 286 448 l 232 431 q 191 494 191 458 q 232 547 202 530 m 355 547 l 380 547 q 420 485 420 521 q 380 431 409 448 l 355 431 q 314 494 314 458 q 355 547 326 530 m 478 547 l 503 547 q 544 485 544 521 q 503 431 532 448 l 478 431 q 437 494 437 458 q 478 547 448 530 m 601 547 l 626 547 q 667 485 667 521 q 626 431 655 448 l 601 431 q 560 494 560 458 q 601 547 571 530 m 355 404 l 380 404 q 420 341 420 377 q 380 287 409 304 l 355 287 q 314 350 314 314 q 355 404 326 387 m 355 260 l 380 260 q 420 197 420 233 q 380 144 409 161 l 355 144 q 314 206 314 170 q 355 260 326 243 m 109 117 l 134 117 q 174 54 174 90 q 134 0 163 17 l 109 0 q 68 63 68 27 q 109 117 79 100 m 232 117 l 256 117 q 298 54 298 90 q 256 0 286 17 l 232 0 q 191 63 191 27 q 232 117 202 100 m 355 117 l 380 117 q 420 54 420 90 q 380 0 409 17 l 355 0 q 314 63 314 27 q 355 117 326 100 m 478 117 l 503 117 q 544 54 544 90 q 503 0 532 17 l 478 0 q 437 63 437 27 q 478 117 448 100 m 601 117 l 626 117 q 667 54 667 90 q 626 0 655 17 l 601 0 q 560 63 560 27 q 601 117 571 100 z "},"":{"ha":610,"x_min":93,"x_max":517,"o":"m 132 978 l 159 978 q 197 926 197 955 q 159 881 189 897 l 131 881 q 93 934 93 904 q 132 978 102 963 m 212 978 l 239 978 q 277 925 277 955 q 238 881 268 897 l 212 881 q 173 934 173 904 q 212 978 182 963 m 292 978 l 319 978 q 357 925 357 955 q 319 881 348 897 l 291 881 q 253 934 253 904 q 292 978 262 963 m 372 978 l 399 978 q 437 925 437 955 q 398 881 428 897 l 372 881 q 333 934 333 904 q 372 978 342 963 m 452 892 l 479 892 q 517 839 517 869 q 479 795 508 810 l 451 795 q 413 848 413 818 q 452 892 422 876 m 452 806 l 479 806 q 517 753 517 783 q 479 709 508 724 l 451 709 q 413 762 413 732 q 452 806 422 790 m 212 720 l 239 720 q 277 667 277 696 q 238 623 268 638 l 212 623 q 173 675 173 646 q 212 720 182 704 m 292 720 l 319 720 q 357 667 357 696 q 319 623 348 638 l 291 623 q 253 675 253 646 q 292 720 262 704 m 372 720 l 399 720 q 437 667 437 696 q 398 623 428 638 l 372 623 q 333 675 333 646 q 372 720 342 704 m 132 633 l 159 633 q 197 581 197 610 q 159 536 189 552 l 131 536 q 93 589 93 559 q 132 633 102 618 m 132 547 l 159 547 q 197 494 197 524 q 159 450 188 466 l 131 450 q 93 503 93 473 q 132 547 102 532 m 132 461 l 159 461 q 197 408 197 437 q 159 364 188 380 l 131 364 q 93 417 93 387 q 132 461 102 446 m 212 461 l 239 461 q 277 408 277 438 q 238 364 268 380 l 212 364 q 173 417 173 387 q 212 461 182 446 m 292 461 l 319 461 q 357 408 357 437 q 319 364 348 380 l 291 364 q 253 417 253 387 q 292 461 262 446 m 372 461 l 399 461 q 437 408 437 438 q 398 364 428 380 l 372 364 q 333 417 333 387 q 372 461 342 446 m 452 461 l 479 461 q 517 408 517 437 q 479 364 508 380 l 451 364 q 413 417 413 387 q 452 461 422 446 z "},"":{"ha":610,"x_min":93,"x_max":517,"o":"m 132 978 l 159 978 q 197 926 197 955 q 159 881 189 897 l 131 881 q 93 934 93 904 q 132 978 102 963 m 212 978 l 239 978 q 277 925 277 955 q 238 881 268 897 l 212 881 q 173 934 173 904 q 212 978 182 963 m 292 978 l 319 978 q 357 925 357 955 q 319 881 348 897 l 291 881 q 253 934 253 904 q 292 978 262 963 m 372 978 l 399 978 q 437 925 437 955 q 398 881 428 897 l 372 881 q 333 934 333 904 q 372 978 342 963 m 452 892 l 479 892 q 517 839 517 869 q 479 795 508 810 l 451 795 q 413 848 413 818 q 452 892 422 876 m 452 806 l 479 806 q 517 753 517 783 q 479 709 508 724 l 451 709 q 413 762 413 732 q 452 806 422 790 m 132 720 l 159 720 q 197 667 197 696 q 159 623 189 638 l 131 623 q 93 675 93 646 q 132 720 102 704 m 212 720 l 239 720 q 277 667 277 696 q 238 623 268 638 l 212 623 q 173 675 173 646 q 212 720 182 704 m 292 720 l 319 720 q 357 667 357 696 q 319 623 348 638 l 291 623 q 253 675 253 646 q 292 720 262 704 m 372 720 l 399 720 q 437 667 437 696 q 398 623 428 638 l 372 623 q 333 675 333 646 q 372 720 342 704 m 452 633 l 479 633 q 517 581 517 610 q 479 536 508 552 l 451 536 q 413 589 413 559 q 452 633 422 618 m 452 547 l 479 547 q 517 494 517 524 q 479 450 508 466 l 451 450 q 413 503 413 473 q 452 547 422 532 m 132 461 l 159 461 q 197 408 197 437 q 159 364 188 380 l 131 364 q 93 417 93 387 q 132 461 102 446 m 212 461 l 239 461 q 277 408 277 438 q 238 364 268 380 l 212 364 q 173 417 173 387 q 212 461 182 446 m 292 461 l 319 461 q 357 408 357 437 q 319 364 348 380 l 291 364 q 253 417 253 387 q 292 461 262 446 m 372 461 l 399 461 q 437 408 437 438 q 398 364 428 380 l 372 364 q 333 417 333 387 q 372 461 342 446 z "},"":{"ha":734,"x_min":314,"x_max":544,"o":"m 478 1266 l 503 1266 q 544 1204 544 1240 q 503 1149 532 1166 l 478 1149 q 437 1213 437 1177 q 478 1266 448 1250 m 355 1123 l 380 1123 q 420 1060 420 1096 q 380 1006 409 1023 l 355 1006 q 314 1069 314 1033 q 355 1123 326 1106 z "},"":{"ha":734,"x_min":68,"x_max":667,"o":"m 626 691 q 667 637 655 674 q 626 574 667 602 l 601 574 q 560 628 571 591 q 601 691 560 664 l 626 691 m 134 691 q 174 637 163 674 q 134 574 174 602 l 109 574 q 68 628 79 591 q 109 691 68 664 l 134 691 m 626 547 q 667 494 655 530 q 626 431 667 458 l 601 431 q 560 485 571 448 q 601 547 560 521 l 626 547 m 134 547 q 174 494 163 530 q 134 431 174 458 l 109 431 q 68 485 79 448 q 109 547 68 521 l 134 547 m 626 404 q 667 350 655 387 q 626 287 667 314 l 601 287 q 560 341 571 304 q 601 404 560 377 l 626 404 m 134 404 q 174 350 163 387 q 134 287 174 314 l 109 287 q 68 341 79 304 q 109 404 68 377 l 134 404 m 626 260 q 667 206 655 243 q 626 144 667 170 l 601 144 q 560 197 571 161 q 601 260 560 233 l 626 260 m 134 260 q 174 206 163 243 q 134 144 174 170 l 109 144 q 68 197 79 161 q 109 260 68 233 l 134 260 m 503 117 q 544 63 532 100 q 503 0 544 27 l 478 0 q 437 54 448 17 q 478 117 437 90 l 503 117 m 380 117 q 420 63 409 100 q 380 0 420 27 l 355 0 q 314 54 326 17 q 355 117 314 90 l 380 117 m 256 117 q 298 63 286 100 q 256 0 298 27 l 232 0 q 191 54 202 17 q 232 117 191 90 l 256 117 m 113 115 l 138 115 q 179 53 179 89 q 138 -1 168 16 l 113 -1 q 73 62 73 26 q 113 115 84 99 m 111 -176 l 136 -176 q 176 -239 176 -203 q 136 -292 165 -276 l 111 -292 q 70 -230 70 -266 q 111 -176 81 -193 m 113 -28 l 137 -28 q 178 -91 178 -55 q 137 -144 167 -128 l 113 -144 q 71 -82 71 -118 q 113 -28 83 -45 z "},"":{"ha":694,"x_min":63,"x_max":630,"o":"m 630 973 l 630 926 l 544 926 l 544 0 l 488 0 l 488 926 l 376 926 l 376 0 l 319 0 l 319 500 q 132 570 201 506 q 63 736 63 634 q 136 908 63 843 q 330 973 209 973 l 630 973 z "},"":{"ha":734,"x_min":314,"x_max":420,"o":"m 355 547 l 380 547 q 420 485 420 521 q 380 431 409 448 l 355 431 q 314 494 314 458 q 355 547 326 530 z "},"":{"ha":734,"x_min":191,"x_max":420,"o":"m 355 -17 l 380 -17 q 420 -79 420 -43 q 380 -134 409 -117 l 355 -134 q 314 -71 314 -106 q 355 -17 326 -33 m 232 -160 l 256 -160 q 298 -223 298 -187 q 256 -277 286 -260 l 232 -277 q 191 -214 191 -250 q 232 -160 202 -177 z "},"":{"ha":610,"x_min":253,"x_max":357,"o":"m 292 978 l 319 978 q 357 925 357 955 q 319 881 348 897 l 291 881 q 253 934 253 904 q 292 978 262 963 m 292 892 l 319 892 q 357 839 357 869 q 319 795 348 810 l 291 795 q 253 848 253 818 q 292 892 262 876 m 292 806 l 319 806 q 357 753 357 783 q 319 709 348 724 l 291 709 q 253 762 253 732 q 292 806 262 790 m 292 720 l 319 720 q 357 667 357 696 q 319 623 348 638 l 291 623 q 253 675 253 646 q 292 720 262 704 m 292 633 l 319 633 q 357 581 357 610 q 319 536 348 552 l 291 536 q 253 589 253 559 q 292 633 262 618 m 292 547 l 319 547 q 357 494 357 524 q 319 450 348 466 l 291 450 q 253 503 253 473 q 292 547 262 532 m 292 461 l 319 461 q 357 408 357 437 q 319 364 348 380 l 291 364 q 253 417 253 387 q 292 461 262 446 z "},"":{"ha":531,"x_min":68,"x_max":463,"o":"m 176 978 l 192 978 q 220 941 220 962 q 192 908 212 918 l 176 908 q 149 946 149 924 q 176 978 157 968 m 257 978 l 274 978 q 300 941 300 962 q 274 908 293 918 l 257 908 q 231 946 231 924 q 257 978 238 968 m 338 978 l 355 978 q 382 941 382 962 q 355 908 374 918 l 338 908 q 311 946 311 924 q 338 978 319 968 m 95 892 l 111 892 q 138 854 138 876 q 111 822 131 832 l 95 822 q 68 859 68 838 q 95 892 75 882 m 420 892 l 436 892 q 463 854 463 876 q 436 822 456 832 l 420 822 q 393 859 393 838 q 420 892 400 882 m 95 806 l 111 806 q 138 768 138 789 q 111 736 131 746 l 95 736 q 68 774 68 752 q 95 806 75 795 m 420 806 l 436 806 q 463 768 463 789 q 436 736 456 746 l 420 736 q 393 774 393 752 q 420 806 400 795 m 95 720 l 111 720 q 138 682 138 704 q 111 650 131 660 l 95 650 q 68 688 68 666 q 95 720 75 709 m 420 720 l 436 720 q 463 682 463 704 q 436 650 456 660 l 420 650 q 393 688 393 666 q 420 720 400 709 m 95 633 l 111 633 q 138 596 138 617 q 111 564 131 574 l 95 564 q 68 601 68 580 q 95 633 75 623 m 420 633 l 436 633 q 463 596 463 617 q 436 564 456 574 l 420 564 q 393 601 393 580 q 420 633 400 623 m 95 547 l 111 547 q 138 509 138 531 q 111 477 131 488 l 95 477 q 68 515 68 493 q 95 547 75 537 m 420 547 l 436 547 q 463 509 463 531 q 436 477 456 488 l 420 477 q 393 515 393 493 q 420 547 400 537 m 176 461 l 192 461 q 220 423 220 445 q 192 391 212 401 l 176 391 q 149 429 149 408 q 176 461 157 451 m 257 461 l 274 461 q 300 423 300 445 q 274 391 293 401 l 257 391 q 231 429 231 408 q 257 461 238 451 m 338 461 l 355 461 q 382 423 382 445 q 355 391 374 401 l 338 391 q 311 429 311 408 q 338 461 319 451 z "},"":{"ha":1045,"x_min":191,"x_max":854,"o":"m 232 835 l 256 835 q 298 772 298 808 q 256 718 286 734 l 232 718 q 191 781 191 745 q 232 835 202 818 m 355 691 l 380 691 q 420 628 420 664 q 380 574 409 591 l 355 574 q 314 637 314 602 q 355 691 326 674 m 478 547 l 503 547 q 544 485 544 521 q 503 431 532 448 l 478 431 q 437 494 437 458 q 478 547 448 530 m 355 404 l 380 404 q 420 341 420 377 q 380 287 409 304 l 355 287 q 314 350 314 314 q 355 404 326 387 m 232 260 l 256 260 q 298 197 298 233 q 256 144 286 161 l 232 144 q 191 206 191 170 q 232 260 202 243 m 543 835 l 567 835 q 608 772 608 808 q 567 718 597 734 l 543 718 q 501 781 501 745 q 543 835 513 818 m 665 691 l 690 691 q 731 628 731 664 q 690 574 720 591 l 665 574 q 625 637 625 602 q 665 691 636 674 m 789 547 l 813 547 q 854 485 854 521 q 813 431 843 448 l 789 431 q 747 494 747 458 q 789 547 759 530 m 665 404 l 690 404 q 731 341 731 377 q 690 287 720 304 l 665 287 q 625 350 625 314 q 665 404 636 387 m 543 260 l 567 260 q 608 197 608 233 q 567 144 597 161 l 543 144 q 501 206 501 170 q 543 260 513 243 z "},"":{"ha":808,"x_min":22,"x_max":764,"o":"m 108 979 l 136 979 q 174 926 174 956 q 135 881 164 897 l 107 881 q 69 935 69 905 q 108 979 79 963 m 108 892 l 136 892 q 174 840 174 869 q 135 795 164 810 l 107 795 q 69 848 69 819 q 108 892 79 877 m 108 806 l 136 806 q 174 753 174 783 q 135 709 164 725 l 107 709 q 69 762 69 732 q 108 806 79 791 m 108 720 l 136 720 q 174 667 174 697 q 135 623 164 638 l 107 623 q 69 676 69 646 q 108 720 79 705 m 108 633 l 136 633 q 174 581 174 611 q 135 536 164 552 l 107 536 q 69 589 69 560 q 108 633 79 618 m 108 548 l 136 548 q 174 495 174 524 q 135 451 164 467 l 107 451 q 69 503 69 473 q 108 548 79 532 m 108 462 l 136 462 q 174 408 174 438 q 135 364 164 380 l 107 364 q 69 418 69 388 q 108 462 79 446 m 555 835 l 580 835 q 621 772 621 808 q 580 718 609 734 l 555 718 q 514 781 514 745 q 555 835 525 818 m 432 691 l 456 691 q 498 628 498 664 q 456 574 486 591 l 432 574 q 391 637 391 602 q 432 691 402 674 m 309 547 l 334 547 q 374 485 374 521 q 334 431 363 448 l 309 431 q 268 494 268 458 q 309 547 279 530 m 186 404 l 210 404 q 252 341 252 377 q 210 287 240 304 l 186 287 q 144 350 144 314 q 186 404 156 387 m 62 260 l 87 260 q 128 197 128 233 q 87 144 117 161 l 62 144 q 22 206 22 170 q 62 260 33 243 m 379 614 l 406 614 q 444 561 444 591 q 406 517 435 532 l 378 517 q 340 570 340 540 q 379 614 350 599 m 699 614 l 726 614 q 764 561 764 591 q 726 517 755 532 l 698 517 q 660 570 660 540 q 699 614 669 599 m 379 528 l 406 528 q 444 475 444 505 q 406 431 435 446 l 378 431 q 340 484 340 454 q 379 528 350 512 m 699 528 l 726 528 q 764 475 764 505 q 726 431 755 446 l 699 431 q 660 483 660 454 q 699 528 669 512 m 379 441 l 406 441 q 444 389 444 418 q 406 345 435 360 l 378 345 q 340 397 340 368 q 379 441 350 426 m 699 441 l 726 441 q 764 389 764 418 q 726 345 755 360 l 698 345 q 660 397 660 368 q 699 441 669 426 m 379 355 l 406 355 q 444 302 444 332 q 406 258 435 274 l 378 258 q 340 311 340 281 q 379 355 350 340 m 459 355 l 486 355 q 525 302 525 332 q 486 258 515 273 l 458 258 q 420 311 420 281 q 459 355 429 340 m 538 355 l 566 355 q 604 302 604 332 q 566 258 595 274 l 538 258 q 500 311 500 281 q 538 355 510 340 m 619 355 l 646 355 q 685 302 685 332 q 646 258 675 273 l 618 258 q 580 311 580 281 q 619 355 589 340 m 699 355 l 726 355 q 764 302 764 332 q 726 258 755 274 l 698 258 q 660 311 660 281 q 699 355 669 340 m 699 269 l 726 269 q 764 216 764 246 q 726 172 755 187 l 698 172 q 660 224 660 195 q 699 269 669 254 m 699 183 l 726 183 q 764 130 764 159 q 726 86 755 102 l 699 86 q 660 138 660 109 q 699 183 669 168 m 699 97 l 726 97 q 764 44 764 73 q 726 0 755 16 l 698 0 q 660 53 660 23 q 699 97 669 81 z "},"":{"ha":874,"x_min":61,"x_max":804,"o":"m 126 978 l 153 978 q 192 925 192 955 q 153 880 182 896 l 125 880 q 87 934 87 904 q 126 978 97 962 m 126 892 l 153 892 q 192 839 192 868 q 153 795 182 810 l 125 795 q 87 847 87 818 q 126 892 97 876 m 126 806 l 153 806 q 192 753 192 782 q 153 709 182 724 l 125 709 q 87 762 87 732 q 126 806 97 790 m 126 720 l 153 720 q 192 667 192 696 q 153 622 182 637 l 125 622 q 87 675 87 646 q 126 720 97 704 m 126 633 l 153 633 q 192 581 192 610 q 153 536 182 551 l 125 536 q 87 589 87 559 q 126 633 97 618 m 126 547 l 153 547 q 192 494 192 524 q 153 450 182 466 l 125 450 q 87 503 87 473 q 126 547 97 532 m 126 461 l 153 461 q 192 408 192 437 q 153 363 182 379 l 125 363 q 87 417 87 387 q 126 461 97 446 m 594 835 l 619 835 q 660 772 660 808 q 619 718 648 734 l 594 718 q 553 781 553 745 q 594 835 564 818 m 471 691 l 496 691 q 537 628 537 664 q 496 574 526 591 l 471 574 q 430 637 430 602 q 471 691 441 674 m 348 547 l 373 547 q 414 485 414 521 q 373 431 402 448 l 348 431 q 307 494 307 458 q 348 547 319 530 m 225 404 l 250 404 q 291 341 291 377 q 250 287 279 304 l 225 287 q 184 350 184 314 q 225 404 195 387 m 102 260 l 127 260 q 168 197 168 233 q 127 144 157 161 l 102 144 q 61 206 61 170 q 102 260 73 243 m 418 614 l 446 614 q 484 562 484 591 q 445 517 475 532 l 418 517 q 380 570 380 541 q 418 614 389 599 m 499 614 l 526 614 q 564 562 564 591 q 525 517 555 532 l 498 517 q 459 570 459 541 q 499 614 469 599 m 578 614 l 606 614 q 644 562 644 591 q 606 517 634 532 l 578 517 q 540 570 540 541 q 578 614 549 599 m 659 614 l 686 614 q 724 562 724 591 q 685 517 715 532 l 658 517 q 619 570 619 541 q 659 614 629 599 m 739 528 l 766 528 q 804 475 804 505 q 765 431 794 446 l 738 431 q 700 484 700 454 q 739 528 709 513 m 739 442 l 766 442 q 804 389 804 418 q 765 345 794 360 l 738 345 q 700 398 700 368 q 739 442 709 427 m 498 356 l 526 356 q 564 303 564 333 q 525 258 555 274 l 498 258 q 459 312 459 282 q 498 356 469 340 m 578 356 l 606 356 q 644 303 644 333 q 606 258 634 274 l 578 258 q 540 312 540 282 q 578 356 549 340 m 659 356 l 686 356 q 724 303 724 333 q 685 258 715 274 l 658 258 q 619 312 619 282 q 659 356 629 340 m 418 269 l 446 269 q 484 217 484 247 q 445 172 475 188 l 418 172 q 380 225 380 196 q 418 269 389 254 m 418 184 l 446 184 q 484 131 484 160 q 445 87 475 102 l 418 87 q 380 139 380 109 q 418 184 389 168 m 418 98 l 446 98 q 484 44 484 74 q 445 0 475 16 l 418 0 q 380 54 380 24 q 418 98 389 82 m 498 98 l 526 98 q 564 44 564 74 q 525 0 555 16 l 498 0 q 459 54 459 24 q 498 98 469 82 m 578 98 l 606 98 q 644 44 644 74 q 606 0 634 16 l 578 0 q 540 54 540 24 q 578 98 549 82 m 659 98 l 686 98 q 724 44 724 74 q 685 0 715 16 l 658 0 q 619 54 619 24 q 659 98 629 82 m 739 98 l 766 98 q 804 44 804 74 q 765 0 794 16 l 738 0 q 700 53 700 24 q 739 98 709 82 z "},"":{"ha":985,"x_min":56,"x_max":920,"o":"m 95 978 l 123 978 q 161 926 161 956 q 122 881 152 897 l 94 881 q 56 934 56 905 q 95 978 66 963 m 176 978 l 202 978 q 241 926 241 956 q 201 881 231 897 l 175 881 q 136 934 136 905 q 176 978 146 963 m 255 978 l 283 978 q 321 926 321 956 q 282 881 311 897 l 254 881 q 216 934 216 905 q 255 978 226 963 m 336 978 l 362 978 q 401 926 401 956 q 361 881 391 897 l 335 881 q 296 934 296 905 q 336 978 306 963 m 415 892 l 443 892 q 481 840 481 869 q 442 795 471 810 l 414 795 q 376 848 376 818 q 415 892 385 877 m 415 806 l 443 806 q 481 753 481 783 q 442 709 471 724 l 414 709 q 376 762 376 732 q 415 806 385 791 m 95 720 l 123 720 q 161 667 161 697 q 122 623 152 638 l 94 623 q 56 675 56 646 q 95 720 66 704 m 176 720 l 202 720 q 241 667 241 697 q 201 623 231 638 l 175 623 q 136 675 136 646 q 176 720 146 705 m 255 720 l 283 720 q 321 667 321 697 q 282 623 311 638 l 254 623 q 216 675 216 646 q 255 720 226 704 m 336 720 l 362 720 q 401 667 401 697 q 361 623 391 638 l 335 623 q 296 675 296 646 q 336 720 306 705 m 415 633 l 443 633 q 481 581 481 610 q 442 536 471 552 l 414 536 q 376 589 376 560 q 415 633 385 618 m 415 548 l 443 548 q 481 494 481 524 q 442 450 471 466 l 414 450 q 376 503 376 473 q 415 548 385 532 m 95 461 l 123 461 q 161 408 161 438 q 122 364 151 380 l 94 364 q 56 417 56 388 q 95 461 66 446 m 176 461 l 202 461 q 241 408 241 438 q 201 364 231 380 l 175 364 q 136 417 136 388 q 176 461 146 446 m 255 461 l 283 461 q 321 408 321 438 q 282 364 311 380 l 254 364 q 216 417 216 388 q 255 461 226 446 m 336 461 l 362 461 q 401 408 401 438 q 361 364 391 380 l 335 364 q 296 417 296 388 q 336 461 306 446 m 720 835 l 745 835 q 785 772 785 808 q 745 718 774 734 l 720 718 q 679 781 679 745 q 720 835 690 818 m 597 691 l 621 691 q 663 628 663 664 q 621 574 651 591 l 597 574 q 555 637 555 602 q 597 691 567 674 m 473 547 l 498 547 q 539 485 539 521 q 498 431 528 448 l 473 431 q 433 494 433 458 q 473 547 444 530 m 351 404 l 375 404 q 416 341 416 377 q 375 287 405 304 l 351 287 q 309 350 309 314 q 351 404 321 387 m 227 260 l 252 260 q 293 197 293 233 q 252 144 282 161 l 227 144 q 186 206 186 170 q 227 260 198 243 m 535 614 l 562 614 q 600 562 600 591 q 562 517 591 532 l 534 517 q 496 570 496 541 q 535 614 506 599 m 855 614 l 882 614 q 920 562 920 591 q 882 517 911 532 l 854 517 q 816 570 816 541 q 855 614 825 599 m 534 528 l 562 528 q 600 475 600 505 q 562 431 591 446 l 534 431 q 496 484 496 454 q 534 528 506 513 m 854 528 l 882 528 q 920 475 920 505 q 882 431 911 446 l 854 431 q 816 484 816 454 q 854 528 825 513 m 534 442 l 562 442 q 600 389 600 418 q 562 345 591 360 l 534 345 q 496 397 496 368 q 534 442 506 427 m 854 442 l 882 442 q 920 389 920 418 q 882 345 911 360 l 854 345 q 816 397 816 368 q 854 442 825 427 m 534 355 l 562 355 q 600 303 600 332 q 562 258 591 274 l 534 258 q 496 311 496 282 q 534 355 506 340 m 615 355 l 642 355 q 681 303 681 333 q 642 258 671 274 l 614 258 q 576 311 576 282 q 615 355 585 340 m 694 355 l 722 355 q 760 303 760 332 q 722 258 751 274 l 694 258 q 656 311 656 282 q 694 355 666 340 m 775 355 l 802 355 q 841 303 841 333 q 802 258 831 274 l 774 258 q 736 311 736 282 q 775 355 745 340 m 854 355 l 882 355 q 920 303 920 332 q 882 258 911 274 l 854 258 q 816 311 816 282 q 854 355 825 340 m 855 269 l 882 269 q 920 217 920 246 q 882 172 911 188 l 854 172 q 816 225 816 195 q 855 269 825 254 m 854 184 l 882 184 q 920 130 920 160 q 882 86 911 102 l 854 86 q 816 139 816 109 q 854 184 825 168 m 854 97 l 882 97 q 920 44 920 74 q 882 0 911 16 l 854 0 q 816 53 816 24 q 854 97 825 81 z "},"":{"ha":734,"x_min":68,"x_max":667,"o":"m 355 978 l 380 978 q 420 916 420 951 q 380 861 409 878 l 355 861 q 314 924 314 888 q 355 978 326 962 m 355 691 l 380 691 q 420 628 420 664 q 380 574 409 591 l 355 574 q 314 637 314 602 q 355 691 326 674 m 232 547 l 256 547 q 298 485 298 521 q 256 431 286 448 l 232 431 q 191 494 191 458 q 232 547 202 530 m 109 404 l 134 404 q 174 341 174 377 q 134 287 163 304 l 109 287 q 68 350 68 314 q 109 404 79 387 m 109 260 l 134 260 q 174 197 174 233 q 134 144 163 161 l 109 144 q 68 206 68 170 q 109 260 79 243 m 601 260 l 626 260 q 667 197 667 233 q 626 144 655 161 l 601 144 q 560 206 560 170 q 601 260 571 243 m 232 117 l 256 117 q 298 54 298 90 q 256 0 286 17 l 232 0 q 191 63 191 27 q 232 117 202 100 m 355 117 l 380 117 q 420 54 420 90 q 380 0 409 17 l 355 0 q 314 63 314 27 q 355 117 326 100 m 478 117 l 503 117 q 544 54 544 90 q 503 0 532 17 l 478 0 q 437 63 437 27 q 478 117 448 100 z "},"":{"ha":734,"x_min":68,"x_max":667,"o":"m 232 978 l 256 978 q 298 916 298 951 q 256 861 286 878 l 232 861 q 191 924 191 888 q 232 978 202 962 m 355 978 l 380 978 q 420 916 420 951 q 380 861 409 878 l 355 861 q 314 924 314 888 q 355 978 326 962 m 478 978 l 503 978 q 544 916 544 951 q 503 861 532 878 l 478 861 q 437 924 437 888 q 478 978 448 962 m 109 835 l 134 835 q 174 772 174 808 q 134 718 163 734 l 109 718 q 68 781 68 745 q 109 835 79 818 m 601 835 l 626 835 q 667 772 667 808 q 626 718 655 734 l 601 718 q 560 781 560 745 q 601 835 571 818 m 109 691 l 134 691 q 174 628 174 664 q 134 574 163 591 l 109 574 q 68 637 68 602 q 109 691 79 674 m 601 691 l 626 691 q 667 628 667 664 q 626 574 655 591 l 601 574 q 560 637 560 602 q 601 691 571 674 m 109 547 l 134 547 q 174 485 174 521 q 134 431 163 448 l 109 431 q 68 494 68 458 q 109 547 79 530 m 232 547 l 256 547 q 298 485 298 521 q 256 431 286 448 l 232 431 q 191 494 191 458 q 232 547 202 530 m 355 547 l 380 547 q 420 485 420 521 q 380 431 409 448 l 355 431 q 314 494 314 458 q 355 547 326 530 m 478 547 l 503 547 q 544 485 544 521 q 503 431 532 448 l 478 431 q 437 494 437 458 q 478 547 448 530 m 601 547 l 626 547 q 667 485 667 521 q 626 431 655 448 l 601 431 q 560 494 560 458 q 601 547 571 530 m 109 404 l 134 404 q 174 341 174 377 q 134 287 163 304 l 109 287 q 68 350 68 314 q 109 404 79 387 m 601 404 l 626 404 q 667 341 667 377 q 626 287 655 304 l 601 287 q 560 350 560 314 q 601 404 571 387 m 109 260 l 134 260 q 174 197 174 233 q 134 144 163 161 l 109 144 q 68 206 68 170 q 109 260 79 243 m 601 260 l 626 260 q 667 197 667 233 q 626 144 655 161 l 601 144 q 560 206 560 170 q 601 260 571 243 m 109 117 l 134 117 q 174 54 174 90 q 134 0 163 17 l 109 0 q 68 63 68 27 q 109 117 79 100 m 601 117 l 626 117 q 667 54 667 90 q 626 0 655 17 l 601 0 q 560 63 560 27 q 601 117 571 100 m 232 1266 l 256 1266 q 298 1204 298 1240 q 256 1149 286 1166 l 232 1149 q 191 1213 191 1177 q 232 1266 202 1250 m 355 1123 l 380 1123 q 420 1060 420 1096 q 380 1006 409 1023 l 355 1006 q 314 1069 314 1033 q 355 1123 326 1106 z "},"":{"ha":734,"x_min":68,"x_max":667,"o":"m 232 978 l 256 978 q 298 916 298 951 q 256 861 286 878 l 232 861 q 191 924 191 888 q 232 978 202 962 m 355 978 l 380 978 q 420 916 420 951 q 380 861 409 878 l 355 861 q 314 924 314 888 q 355 978 326 962 m 478 978 l 503 978 q 544 916 544 951 q 503 861 532 878 l 478 861 q 437 924 437 888 q 478 978 448 962 m 109 835 l 134 835 q 174 772 174 808 q 134 718 163 734 l 109 718 q 68 781 68 745 q 109 835 79 818 m 601 835 l 626 835 q 667 772 667 808 q 626 718 655 734 l 601 718 q 560 781 560 745 q 601 835 571 818 m 109 691 l 134 691 q 174 628 174 664 q 134 574 163 591 l 109 574 q 68 637 68 602 q 109 691 79 674 m 601 691 l 626 691 q 667 628 667 664 q 626 574 655 591 l 601 574 q 560 637 560 602 q 601 691 571 674 m 109 547 l 134 547 q 174 485 174 521 q 134 431 163 448 l 109 431 q 68 494 68 458 q 109 547 79 530 m 232 547 l 256 547 q 298 485 298 521 q 256 431 286 448 l 232 431 q 191 494 191 458 q 232 547 202 530 m 355 547 l 380 547 q 420 485 420 521 q 380 431 409 448 l 355 431 q 314 494 314 458 q 355 547 326 530 m 478 547 l 503 547 q 544 485 544 521 q 503 431 532 448 l 478 431 q 437 494 437 458 q 478 547 448 530 m 601 547 l 626 547 q 667 485 667 521 q 626 431 655 448 l 601 431 q 560 494 560 458 q 601 547 571 530 m 109 404 l 134 404 q 174 341 174 377 q 134 287 163 304 l 109 287 q 68 350 68 314 q 109 404 79 387 m 601 404 l 626 404 q 667 341 667 377 q 626 287 655 304 l 601 287 q 560 350 560 314 q 601 404 571 387 m 109 260 l 134 260 q 174 197 174 233 q 134 144 163 161 l 109 144 q 68 206 68 170 q 109 260 79 243 m 601 260 l 626 260 q 667 197 667 233 q 626 144 655 161 l 601 144 q 560 206 560 170 q 601 260 571 243 m 109 117 l 134 117 q 174 54 174 90 q 134 0 163 17 l 109 0 q 68 63 68 27 q 109 117 79 100 m 601 117 l 626 117 q 667 54 667 90 q 626 0 655 17 l 601 0 q 560 63 560 27 q 601 117 571 100 m 478 1266 l 503 1266 q 544 1204 544 1240 q 503 1149 532 1166 l 478 1149 q 437 1213 437 1177 q 478 1266 448 1250 m 355 1123 l 380 1123 q 420 1060 420 1096 q 380 1006 409 1023 l 355 1006 q 314 1069 314 1033 q 355 1123 326 1106 z "},"":{"ha":734,"x_min":68,"x_max":667,"o":"m 232 978 l 256 978 q 298 916 298 951 q 256 861 286 878 l 232 861 q 191 924 191 888 q 232 978 202 962 m 355 978 l 380 978 q 420 916 420 951 q 380 861 409 878 l 355 861 q 314 924 314 888 q 355 978 326 962 m 478 978 l 503 978 q 544 916 544 951 q 503 861 532 878 l 478 861 q 437 924 437 888 q 478 978 448 962 m 109 835 l 134 835 q 174 772 174 808 q 134 718 163 734 l 109 718 q 68 781 68 745 q 109 835 79 818 m 601 835 l 626 835 q 667 772 667 808 q 626 718 655 734 l 601 718 q 560 781 560 745 q 601 835 571 818 m 109 691 l 134 691 q 174 628 174 664 q 134 574 163 591 l 109 574 q 68 637 68 602 q 109 691 79 674 m 601 691 l 626 691 q 667 628 667 664 q 626 574 655 591 l 601 574 q 560 637 560 602 q 601 691 571 674 m 109 547 l 134 547 q 174 485 174 521 q 134 431 163 448 l 109 431 q 68 494 68 458 q 109 547 79 530 m 232 547 l 256 547 q 298 485 298 521 q 256 431 286 448 l 232 431 q 191 494 191 458 q 232 547 202 530 m 355 547 l 380 547 q 420 485 420 521 q 380 431 409 448 l 355 431 q 314 494 314 458 q 355 547 326 530 m 478 547 l 503 547 q 544 485 544 521 q 503 431 532 448 l 478 431 q 437 494 437 458 q 478 547 448 530 m 601 547 l 626 547 q 667 485 667 521 q 626 431 655 448 l 601 431 q 560 494 560 458 q 601 547 571 530 m 109 404 l 134 404 q 174 341 174 377 q 134 287 163 304 l 109 287 q 68 350 68 314 q 109 404 79 387 m 601 404 l 626 404 q 667 341 667 377 q 626 287 655 304 l 601 287 q 560 350 560 314 q 601 404 571 387 m 109 260 l 134 260 q 174 197 174 233 q 134 144 163 161 l 109 144 q 68 206 68 170 q 109 260 79 243 m 601 260 l 626 260 q 667 197 667 233 q 626 144 655 161 l 601 144 q 560 206 560 170 q 601 260 571 243 m 109 117 l 134 117 q 174 54 174 90 q 134 0 163 17 l 109 0 q 68 63 68 27 q 109 117 79 100 m 601 117 l 626 117 q 667 54 667 90 q 626 0 655 17 l 601 0 q 560 63 560 27 q 601 117 571 100 m 355 1266 l 380 1266 q 420 1204 420 1240 q 380 1149 409 1166 l 355 1149 q 314 1213 314 1177 q 355 1266 326 1250 m 232 1123 l 256 1123 q 298 1060 298 1096 q 256 1006 286 1023 l 232 1006 q 191 1069 191 1033 q 232 1123 202 1106 m 478 1123 l 503 1123 q 544 1060 544 1096 q 503 1006 532 1023 l 478 1006 q 437 1069 437 1033 q 478 1123 448 1106 z "},"":{"ha":734,"x_min":68,"x_max":667,"o":"m 232 978 l 256 978 q 298 916 298 951 q 256 861 286 878 l 232 861 q 191 924 191 888 q 232 978 202 962 m 355 978 l 380 978 q 420 916 420 951 q 380 861 409 878 l 355 861 q 314 924 314 888 q 355 978 326 962 m 478 978 l 503 978 q 544 916 544 951 q 503 861 532 878 l 478 861 q 437 924 437 888 q 478 978 448 962 m 109 835 l 134 835 q 174 772 174 808 q 134 718 163 734 l 109 718 q 68 781 68 745 q 109 835 79 818 m 601 835 l 626 835 q 667 772 667 808 q 626 718 655 734 l 601 718 q 560 781 560 745 q 601 835 571 818 m 109 691 l 134 691 q 174 628 174 664 q 134 574 163 591 l 109 574 q 68 637 68 602 q 109 691 79 674 m 601 691 l 626 691 q 667 628 667 664 q 626 574 655 591 l 601 574 q 560 637 560 602 q 601 691 571 674 m 109 547 l 134 547 q 174 485 174 521 q 134 431 163 448 l 109 431 q 68 494 68 458 q 109 547 79 530 m 232 547 l 256 547 q 298 485 298 521 q 256 431 286 448 l 232 431 q 191 494 191 458 q 232 547 202 530 m 355 547 l 380 547 q 420 485 420 521 q 380 431 409 448 l 355 431 q 314 494 314 458 q 355 547 326 530 m 478 547 l 503 547 q 544 485 544 521 q 503 431 532 448 l 478 431 q 437 494 437 458 q 478 547 448 530 m 601 547 l 626 547 q 667 485 667 521 q 626 431 655 448 l 601 431 q 560 494 560 458 q 601 547 571 530 m 109 404 l 134 404 q 174 341 174 377 q 134 287 163 304 l 109 287 q 68 350 68 314 q 109 404 79 387 m 601 404 l 626 404 q 667 341 667 377 q 626 287 655 304 l 601 287 q 560 350 560 314 q 601 404 571 387 m 109 260 l 134 260 q 174 197 174 233 q 134 144 163 161 l 109 144 q 68 206 68 170 q 109 260 79 243 m 601 260 l 626 260 q 667 197 667 233 q 626 144 655 161 l 601 144 q 560 206 560 170 q 601 260 571 243 m 109 117 l 134 117 q 174 54 174 90 q 134 0 163 17 l 109 0 q 68 63 68 27 q 109 117 79 100 m 601 117 l 626 117 q 667 54 667 90 q 626 0 655 17 l 601 0 q 560 63 560 27 q 601 117 571 100 m 355 1266 l 380 1266 q 420 1204 420 1240 q 380 1149 409 1166 l 355 1149 q 314 1213 314 1177 q 355 1266 326 1250 m 601 1266 l 626 1266 q 667 1204 667 1240 q 626 1149 655 1166 l 601 1149 q 560 1213 560 1177 q 601 1266 571 1250 m 232 1123 l 256 1123 q 298 1060 298 1096 q 256 1006 286 1023 l 232 1006 q 191 1069 191 1033 q 232 1123 202 1106 m 478 1123 l 503 1123 q 544 1060 544 1096 q 503 1006 532 1023 l 478 1006 q 437 1069 437 1033 q 478 1123 448 1106 z "},"":{"ha":734,"x_min":68,"x_max":667,"o":"m 232 978 l 256 978 q 298 916 298 951 q 256 861 286 878 l 232 861 q 191 924 191 888 q 232 978 202 962 m 355 978 l 380 978 q 420 916 420 951 q 380 861 409 878 l 355 861 q 314 924 314 888 q 355 978 326 962 m 478 978 l 503 978 q 544 916 544 951 q 503 861 532 878 l 478 861 q 437 924 437 888 q 478 978 448 962 m 109 835 l 134 835 q 174 772 174 808 q 134 718 163 734 l 109 718 q 68 781 68 745 q 109 835 79 818 m 601 835 l 626 835 q 667 772 667 808 q 626 718 655 734 l 601 718 q 560 781 560 745 q 601 835 571 818 m 109 691 l 134 691 q 174 628 174 664 q 134 574 163 591 l 109 574 q 68 637 68 602 q 109 691 79 674 m 601 691 l 626 691 q 667 628 667 664 q 626 574 655 591 l 601 574 q 560 637 560 602 q 601 691 571 674 m 109 547 l 134 547 q 174 485 174 521 q 134 431 163 448 l 109 431 q 68 494 68 458 q 109 547 79 530 m 232 547 l 256 547 q 298 485 298 521 q 256 431 286 448 l 232 431 q 191 494 191 458 q 232 547 202 530 m 355 547 l 380 547 q 420 485 420 521 q 380 431 409 448 l 355 431 q 314 494 314 458 q 355 547 326 530 m 478 547 l 503 547 q 544 485 544 521 q 503 431 532 448 l 478 431 q 437 494 437 458 q 478 547 448 530 m 601 547 l 626 547 q 667 485 667 521 q 626 431 655 448 l 601 431 q 560 494 560 458 q 601 547 571 530 m 109 404 l 134 404 q 174 341 174 377 q 134 287 163 304 l 109 287 q 68 350 68 314 q 109 404 79 387 m 601 404 l 626 404 q 667 341 667 377 q 626 287 655 304 l 601 287 q 560 350 560 314 q 601 404 571 387 m 109 260 l 134 260 q 174 197 174 233 q 134 144 163 161 l 109 144 q 68 206 68 170 q 109 260 79 243 m 601 260 l 626 260 q 667 197 667 233 q 626 144 655 161 l 601 144 q 560 206 560 170 q 601 260 571 243 m 109 117 l 134 117 q 174 54 174 90 q 134 0 163 17 l 109 0 q 68 63 68 27 q 109 117 79 100 m 601 117 l 626 117 q 667 54 667 90 q 626 0 655 17 l 601 0 q 560 63 560 27 q 601 117 571 100 m 232 1266 l 256 1266 q 298 1204 298 1240 q 256 1149 286 1166 l 232 1149 q 191 1213 191 1177 q 232 1266 202 1250 m 478 1266 l 503 1266 q 544 1204 544 1240 q 503 1149 532 1166 l 478 1149 q 437 1213 437 1177 q 478 1266 448 1250 z "},"":{"ha":734,"x_min":68,"x_max":667,"o":"m 232 978 l 256 978 q 298 916 298 951 q 256 861 286 878 l 232 861 q 191 924 191 888 q 232 978 202 962 m 355 978 l 380 978 q 420 916 420 951 q 380 861 409 878 l 355 861 q 314 924 314 888 q 355 978 326 962 m 478 978 l 503 978 q 544 916 544 951 q 503 861 532 878 l 478 861 q 437 924 437 888 q 478 978 448 962 m 109 835 l 134 835 q 174 772 174 808 q 134 718 163 734 l 109 718 q 68 781 68 745 q 109 835 79 818 m 601 835 l 626 835 q 667 772 667 808 q 626 718 655 734 l 601 718 q 560 781 560 745 q 601 835 571 818 m 109 691 l 134 691 q 174 628 174 664 q 134 574 163 591 l 109 574 q 68 637 68 602 q 109 691 79 674 m 601 691 l 626 691 q 667 628 667 664 q 626 574 655 591 l 601 574 q 560 637 560 602 q 601 691 571 674 m 109 547 l 134 547 q 174 485 174 521 q 134 431 163 448 l 109 431 q 68 494 68 458 q 109 547 79 530 m 232 547 l 256 547 q 298 485 298 521 q 256 431 286 448 l 232 431 q 191 494 191 458 q 232 547 202 530 m 355 547 l 380 547 q 420 485 420 521 q 380 431 409 448 l 355 431 q 314 494 314 458 q 355 547 326 530 m 478 547 l 503 547 q 544 485 544 521 q 503 431 532 448 l 478 431 q 437 494 437 458 q 478 547 448 530 m 601 547 l 626 547 q 667 485 667 521 q 626 431 655 448 l 601 431 q 560 494 560 458 q 601 547 571 530 m 109 404 l 134 404 q 174 341 174 377 q 134 287 163 304 l 109 287 q 68 350 68 314 q 109 404 79 387 m 601 404 l 626 404 q 667 341 667 377 q 626 287 655 304 l 601 287 q 560 350 560 314 q 601 404 571 387 m 109 260 l 134 260 q 174 197 174 233 q 134 144 163 161 l 109 144 q 68 206 68 170 q 109 260 79 243 m 601 260 l 626 260 q 667 197 667 233 q 626 144 655 161 l 601 144 q 560 206 560 170 q 601 260 571 243 m 109 117 l 134 117 q 174 54 174 90 q 134 0 163 17 l 109 0 q 68 63 68 27 q 109 117 79 100 m 601 117 l 626 117 q 667 54 667 90 q 626 0 655 17 l 601 0 q 560 63 560 27 q 601 117 571 100 m 232 1266 l 256 1266 q 298 1204 298 1240 q 256 1149 286 1166 l 232 1149 q 191 1213 191 1177 q 232 1266 202 1250 m 355 1266 l 380 1266 q 420 1204 420 1240 q 380 1149 409 1166 l 355 1149 q 314 1213 314 1177 q 355 1266 326 1250 m 478 1266 l 503 1266 q 544 1204 544 1240 q 503 1149 532 1166 l 478 1149 q 437 1213 437 1177 q 478 1266 448 1250 m 109 1123 l 134 1123 q 174 1060 174 1096 q 134 1006 163 1023 l 109 1006 q 68 1069 68 1033 q 109 1123 79 1106 m 601 1123 l 626 1123 q 667 1060 667 1096 q 626 1006 655 1023 l 601 1006 q 560 1069 560 1033 q 601 1123 571 1106 z "},"":{"ha":734,"x_min":68,"x_max":667,"o":"m 232 978 l 256 978 q 298 916 298 951 q 256 861 286 878 l 232 861 q 191 924 191 888 q 232 978 202 962 m 355 978 l 380 978 q 420 916 420 951 q 380 861 409 878 l 355 861 q 314 924 314 888 q 355 978 326 962 m 478 978 l 503 978 q 544 916 544 951 q 503 861 532 878 l 478 861 q 437 924 437 888 q 478 978 448 962 m 601 978 l 626 978 q 667 916 667 951 q 626 861 655 878 l 601 861 q 560 924 560 888 q 601 978 571 962 m 109 835 l 134 835 q 174 772 174 808 q 134 718 163 734 l 109 718 q 68 781 68 745 q 109 835 79 818 m 355 835 l 380 835 q 420 772 420 808 q 380 718 409 734 l 355 718 q 314 781 314 745 q 355 835 326 818 m 109 691 l 134 691 q 174 628 174 664 q 134 574 163 591 l 109 574 q 68 637 68 602 q 109 691 79 674 m 355 691 l 380 691 q 420 628 420 664 q 380 574 409 591 l 355 574 q 314 637 314 602 q 355 691 326 674 m 109 547 l 134 547 q 174 485 174 521 q 134 431 163 448 l 109 431 q 68 494 68 458 q 109 547 79 530 m 232 547 l 256 547 q 298 485 298 521 q 256 431 286 448 l 232 431 q 191 494 191 458 q 232 547 202 530 m 355 547 l 380 547 q 420 485 420 521 q 380 431 409 448 l 355 431 q 314 494 314 458 q 355 547 326 530 m 478 547 l 503 547 q 544 485 544 521 q 503 431 532 448 l 478 431 q 437 494 437 458 q 478 547 448 530 m 601 547 l 626 547 q 667 485 667 521 q 626 431 655 448 l 601 431 q 560 494 560 458 q 601 547 571 530 m 109 404 l 134 404 q 174 341 174 377 q 134 287 163 304 l 109 287 q 68 350 68 314 q 109 404 79 387 m 355 404 l 380 404 q 420 341 420 377 q 380 287 409 304 l 355 287 q 314 350 314 314 q 355 404 326 387 m 109 260 l 134 260 q 174 197 174 233 q 134 144 163 161 l 109 144 q 68 206 68 170 q 109 260 79 243 m 355 260 l 380 260 q 420 197 420 233 q 380 144 409 161 l 355 144 q 314 206 314 170 q 355 260 326 243 m 109 117 l 134 117 q 174 54 174 90 q 134 0 163 17 l 109 0 q 68 63 68 27 q 109 117 79 100 m 355 117 l 380 117 q 420 54 420 90 q 380 0 409 17 l 355 0 q 314 63 314 27 q 355 117 326 100 m 478 117 l 503 117 q 544 54 544 90 q 503 0 532 17 l 478 0 q 437 63 437 27 q 478 117 448 100 m 601 117 l 626 117 q 667 54 667 90 q 626 0 655 17 l 601 0 q 560 63 560 27 q 601 117 571 100 z "},"":{"ha":734,"x_min":68,"x_max":667,"o":"m 232 978 l 256 978 q 298 916 298 951 q 256 861 286 878 l 232 861 q 191 924 191 888 q 232 978 202 962 m 355 978 l 380 978 q 420 916 420 951 q 380 861 409 878 l 355 861 q 314 924 314 888 q 355 978 326 962 m 478 978 l 503 978 q 544 916 544 951 q 503 861 532 878 l 478 861 q 437 924 437 888 q 478 978 448 962 m 109 835 l 134 835 q 174 772 174 808 q 134 718 163 734 l 109 718 q 68 781 68 745 q 109 835 79 818 m 601 835 l 626 835 q 667 772 667 808 q 626 718 655 734 l 601 718 q 560 781 560 745 q 601 835 571 818 m 109 691 l 134 691 q 174 628 174 664 q 134 574 163 591 l 109 574 q 68 637 68 602 q 109 691 79 674 m 109 547 l 134 547 q 174 485 174 521 q 134 431 163 448 l 109 431 q 68 494 68 458 q 109 547 79 530 m 109 404 l 134 404 q 174 341 174 377 q 134 287 163 304 l 109 287 q 68 350 68 314 q 109 404 79 387 m 109 260 l 134 260 q 174 197 174 233 q 134 144 163 161 l 109 144 q 68 206 68 170 q 109 260 79 243 m 601 260 l 626 260 q 667 197 667 233 q 626 144 655 161 l 601 144 q 560 206 560 170 q 601 260 571 243 m 232 117 l 256 117 q 298 54 298 90 q 256 0 286 17 l 232 0 q 191 63 191 27 q 232 117 202 100 m 355 117 l 380 117 q 420 54 420 90 q 380 0 409 17 l 355 0 q 314 63 314 27 q 355 117 326 100 m 478 117 l 503 117 q 544 54 544 90 q 503 0 532 17 l 478 0 q 437 63 437 27 q 478 117 448 100 m 355 -17 l 380 -17 q 420 -79 420 -43 q 380 -134 409 -117 l 355 -134 q 314 -71 314 -106 q 355 -17 326 -33 m 232 -160 l 256 -160 q 298 -223 298 -187 q 256 -277 286 -260 l 232 -277 q 191 -214 191 -250 q 232 -160 202 -177 z "},"":{"ha":734,"x_min":68,"x_max":667,"o":"m 109 978 l 134 978 q 174 916 174 951 q 134 861 163 878 l 109 861 q 68 924 68 888 q 109 978 79 962 m 232 978 l 256 978 q 298 916 298 951 q 256 861 286 878 l 232 861 q 191 924 191 888 q 232 978 202 962 m 355 978 l 380 978 q 420 916 420 951 q 380 861 409 878 l 355 861 q 314 924 314 888 q 355 978 326 962 m 478 978 l 503 978 q 544 916 544 951 q 503 861 532 878 l 478 861 q 437 924 437 888 q 478 978 448 962 m 601 978 l 626 978 q 667 916 667 951 q 626 861 655 878 l 601 861 q 560 924 560 888 q 601 978 571 962 m 109 835 l 134 835 q 174 772 174 808 q 134 718 163 734 l 109 718 q 68 781 68 745 q 109 835 79 818 m 109 691 l 134 691 q 174 628 174 664 q 134 574 163 591 l 109 574 q 68 637 68 602 q 109 691 79 674 m 109 547 l 134 547 q 174 485 174 521 q 134 431 163 448 l 109 431 q 68 494 68 458 q 109 547 79 530 m 232 547 l 256 547 q 298 485 298 521 q 256 431 286 448 l 232 431 q 191 494 191 458 q 232 547 202 530 m 355 547 l 380 547 q 420 485 420 521 q 380 431 409 448 l 355 431 q 314 494 314 458 q 355 547 326 530 m 478 547 l 503 547 q 544 485 544 521 q 503 431 532 448 l 478 431 q 437 494 437 458 q 478 547 448 530 m 109 404 l 134 404 q 174 341 174 377 q 134 287 163 304 l 109 287 q 68 350 68 314 q 109 404 79 387 m 109 260 l 134 260 q 174 197 174 233 q 134 144 163 161 l 109 144 q 68 206 68 170 q 109 260 79 243 m 109 117 l 134 117 q 174 54 174 90 q 134 0 163 17 l 109 0 q 68 63 68 27 q 109 117 79 100 m 232 117 l 256 117 q 298 54 298 90 q 256 0 286 17 l 232 0 q 191 63 191 27 q 232 117 202 100 m 355 117 l 380 117 q 420 54 420 90 q 380 0 409 17 l 355 0 q 314 63 314 27 q 355 117 326 100 m 478 117 l 503 117 q 544 54 544 90 q 503 0 532 17 l 478 0 q 437 63 437 27 q 478 117 448 100 m 601 117 l 626 117 q 667 54 667 90 q 626 0 655 17 l 601 0 q 560 63 560 27 q 601 117 571 100 m 232 1266 l 256 1266 q 298 1204 298 1240 q 256 1149 286 1166 l 232 1149 q 191 1213 191 1177 q 232 1266 202 1250 m 355 1123 l 380 1123 q 420 1060 420 1096 q 380 1006 409 1023 l 355 1006 q 314 1069 314 1033 q 355 1123 326 1106 z "},"":{"ha":734,"x_min":68,"x_max":667,"o":"m 109 978 l 134 978 q 174 916 174 951 q 134 861 163 878 l 109 861 q 68 924 68 888 q 109 978 79 962 m 232 978 l 256 978 q 298 916 298 951 q 256 861 286 878 l 232 861 q 191 924 191 888 q 232 978 202 962 m 355 978 l 380 978 q 420 916 420 951 q 380 861 409 878 l 355 861 q 314 924 314 888 q 355 978 326 962 m 478 978 l 503 978 q 544 916 544 951 q 503 861 532 878 l 478 861 q 437 924 437 888 q 478 978 448 962 m 601 978 l 626 978 q 667 916 667 951 q 626 861 655 878 l 601 861 q 560 924 560 888 q 601 978 571 962 m 109 835 l 134 835 q 174 772 174 808 q 134 718 163 734 l 109 718 q 68 781 68 745 q 109 835 79 818 m 109 691 l 134 691 q 174 628 174 664 q 134 574 163 591 l 109 574 q 68 637 68 602 q 109 691 79 674 m 109 547 l 134 547 q 174 485 174 521 q 134 431 163 448 l 109 431 q 68 494 68 458 q 109 547 79 530 m 232 547 l 256 547 q 298 485 298 521 q 256 431 286 448 l 232 431 q 191 494 191 458 q 232 547 202 530 m 355 547 l 380 547 q 420 485 420 521 q 380 431 409 448 l 355 431 q 314 494 314 458 q 355 547 326 530 m 478 547 l 503 547 q 544 485 544 521 q 503 431 532 448 l 478 431 q 437 494 437 458 q 478 547 448 530 m 109 404 l 134 404 q 174 341 174 377 q 134 287 163 304 l 109 287 q 68 350 68 314 q 109 404 79 387 m 109 260 l 134 260 q 174 197 174 233 q 134 144 163 161 l 109 144 q 68 206 68 170 q 109 260 79 243 m 109 117 l 134 117 q 174 54 174 90 q 134 0 163 17 l 109 0 q 68 63 68 27 q 109 117 79 100 m 232 117 l 256 117 q 298 54 298 90 q 256 0 286 17 l 232 0 q 191 63 191 27 q 232 117 202 100 m 355 117 l 380 117 q 420 54 420 90 q 380 0 409 17 l 355 0 q 314 63 314 27 q 355 117 326 100 m 478 117 l 503 117 q 544 54 544 90 q 503 0 532 17 l 478 0 q 437 63 437 27 q 478 117 448 100 m 601 117 l 626 117 q 667 54 667 90 q 626 0 655 17 l 601 0 q 560 63 560 27 q 601 117 571 100 m 478 1266 l 503 1266 q 544 1204 544 1240 q 503 1149 532 1166 l 478 1149 q 437 1213 437 1177 q 478 1266 448 1250 m 355 1123 l 380 1123 q 420 1060 420 1096 q 380 1006 409 1023 l 355 1006 q 314 1069 314 1033 q 355 1123 326 1106 z "},"":{"ha":734,"x_min":68,"x_max":667,"o":"m 109 978 l 134 978 q 174 916 174 951 q 134 861 163 878 l 109 861 q 68 924 68 888 q 109 978 79 962 m 232 978 l 256 978 q 298 916 298 951 q 256 861 286 878 l 232 861 q 191 924 191 888 q 232 978 202 962 m 355 978 l 380 978 q 420 916 420 951 q 380 861 409 878 l 355 861 q 314 924 314 888 q 355 978 326 962 m 478 978 l 503 978 q 544 916 544 951 q 503 861 532 878 l 478 861 q 437 924 437 888 q 478 978 448 962 m 601 978 l 626 978 q 667 916 667 951 q 626 861 655 878 l 601 861 q 560 924 560 888 q 601 978 571 962 m 109 835 l 134 835 q 174 772 174 808 q 134 718 163 734 l 109 718 q 68 781 68 745 q 109 835 79 818 m 109 691 l 134 691 q 174 628 174 664 q 134 574 163 591 l 109 574 q 68 637 68 602 q 109 691 79 674 m 109 547 l 134 547 q 174 485 174 521 q 134 431 163 448 l 109 431 q 68 494 68 458 q 109 547 79 530 m 232 547 l 256 547 q 298 485 298 521 q 256 431 286 448 l 232 431 q 191 494 191 458 q 232 547 202 530 m 355 547 l 380 547 q 420 485 420 521 q 380 431 409 448 l 355 431 q 314 494 314 458 q 355 547 326 530 m 478 547 l 503 547 q 544 485 544 521 q 503 431 532 448 l 478 431 q 437 494 437 458 q 478 547 448 530 m 109 404 l 134 404 q 174 341 174 377 q 134 287 163 304 l 109 287 q 68 350 68 314 q 109 404 79 387 m 109 260 l 134 260 q 174 197 174 233 q 134 144 163 161 l 109 144 q 68 206 68 170 q 109 260 79 243 m 109 117 l 134 117 q 174 54 174 90 q 134 0 163 17 l 109 0 q 68 63 68 27 q 109 117 79 100 m 232 117 l 256 117 q 298 54 298 90 q 256 0 286 17 l 232 0 q 191 63 191 27 q 232 117 202 100 m 355 117 l 380 117 q 420 54 420 90 q 380 0 409 17 l 355 0 q 314 63 314 27 q 355 117 326 100 m 478 117 l 503 117 q 544 54 544 90 q 503 0 532 17 l 478 0 q 437 63 437 27 q 478 117 448 100 m 601 117 l 626 117 q 667 54 667 90 q 626 0 655 17 l 601 0 q 560 63 560 27 q 601 117 571 100 m 355 1266 l 380 1266 q 420 1204 420 1240 q 380 1149 409 1166 l 355 1149 q 314 1213 314 1177 q 355 1266 326 1250 m 232 1123 l 256 1123 q 298 1060 298 1096 q 256 1006 286 1023 l 232 1006 q 191 1069 191 1033 q 232 1123 202 1106 m 478 1123 l 503 1123 q 544 1060 544 1096 q 503 1006 532 1023 l 478 1006 q 437 1069 437 1033 q 478 1123 448 1106 z "},"":{"ha":734,"x_min":68,"x_max":667,"o":"m 109 978 l 134 978 q 174 916 174 951 q 134 861 163 878 l 109 861 q 68 924 68 888 q 109 978 79 962 m 232 978 l 256 978 q 298 916 298 951 q 256 861 286 878 l 232 861 q 191 924 191 888 q 232 978 202 962 m 355 978 l 380 978 q 420 916 420 951 q 380 861 409 878 l 355 861 q 314 924 314 888 q 355 978 326 962 m 478 978 l 503 978 q 544 916 544 951 q 503 861 532 878 l 478 861 q 437 924 437 888 q 478 978 448 962 m 601 978 l 626 978 q 667 916 667 951 q 626 861 655 878 l 601 861 q 560 924 560 888 q 601 978 571 962 m 109 835 l 134 835 q 174 772 174 808 q 134 718 163 734 l 109 718 q 68 781 68 745 q 109 835 79 818 m 109 691 l 134 691 q 174 628 174 664 q 134 574 163 591 l 109 574 q 68 637 68 602 q 109 691 79 674 m 109 547 l 134 547 q 174 485 174 521 q 134 431 163 448 l 109 431 q 68 494 68 458 q 109 547 79 530 m 232 547 l 256 547 q 298 485 298 521 q 256 431 286 448 l 232 431 q 191 494 191 458 q 232 547 202 530 m 355 547 l 380 547 q 420 485 420 521 q 380 431 409 448 l 355 431 q 314 494 314 458 q 355 547 326 530 m 478 547 l 503 547 q 544 485 544 521 q 503 431 532 448 l 478 431 q 437 494 437 458 q 478 547 448 530 m 109 404 l 134 404 q 174 341 174 377 q 134 287 163 304 l 109 287 q 68 350 68 314 q 109 404 79 387 m 109 260 l 134 260 q 174 197 174 233 q 134 144 163 161 l 109 144 q 68 206 68 170 q 109 260 79 243 m 109 117 l 134 117 q 174 54 174 90 q 134 0 163 17 l 109 0 q 68 63 68 27 q 109 117 79 100 m 232 117 l 256 117 q 298 54 298 90 q 256 0 286 17 l 232 0 q 191 63 191 27 q 232 117 202 100 m 355 117 l 380 117 q 420 54 420 90 q 380 0 409 17 l 355 0 q 314 63 314 27 q 355 117 326 100 m 478 117 l 503 117 q 544 54 544 90 q 503 0 532 17 l 478 0 q 437 63 437 27 q 478 117 448 100 m 601 117 l 626 117 q 667 54 667 90 q 626 0 655 17 l 601 0 q 560 63 560 27 q 601 117 571 100 m 232 1266 l 256 1266 q 298 1204 298 1240 q 256 1149 286 1166 l 232 1149 q 191 1213 191 1177 q 232 1266 202 1250 m 478 1266 l 503 1266 q 544 1204 544 1240 q 503 1149 532 1166 l 478 1149 q 437 1213 437 1177 q 478 1266 448 1250 z "},"":{"ha":734,"x_min":191,"x_max":420,"o":"m 355 978 l 380 978 q 420 916 420 951 q 380 861 409 878 l 355 861 q 314 924 314 888 q 355 978 326 962 m 355 835 l 380 835 q 420 772 420 808 q 380 718 409 734 l 355 718 q 314 781 314 745 q 355 835 326 818 m 355 691 l 380 691 q 420 628 420 664 q 380 574 409 591 l 355 574 q 314 637 314 602 q 355 691 326 674 m 355 547 l 380 547 q 420 485 420 521 q 380 431 409 448 l 355 431 q 314 494 314 458 q 355 547 326 530 m 355 404 l 380 404 q 420 341 420 377 q 380 287 409 304 l 355 287 q 314 350 314 314 q 355 404 326 387 m 355 260 l 380 260 q 420 197 420 233 q 380 144 409 161 l 355 144 q 314 206 314 170 q 355 260 326 243 m 355 117 l 380 117 q 420 54 420 90 q 380 0 409 17 l 355 0 q 314 63 314 27 q 355 117 326 100 m 232 1266 l 256 1266 q 298 1204 298 1240 q 256 1149 286 1166 l 232 1149 q 191 1213 191 1177 q 232 1266 202 1250 m 355 1123 l 380 1123 q 420 1060 420 1096 q 380 1006 409 1023 l 355 1006 q 314 1069 314 1033 q 355 1123 326 1106 z "},"":{"ha":734,"x_min":314,"x_max":544,"o":"m 355 978 l 380 978 q 420 916 420 951 q 380 861 409 878 l 355 861 q 314 924 314 888 q 355 978 326 962 m 355 835 l 380 835 q 420 772 420 808 q 380 718 409 734 l 355 718 q 314 781 314 745 q 355 835 326 818 m 355 691 l 380 691 q 420 628 420 664 q 380 574 409 591 l 355 574 q 314 637 314 602 q 355 691 326 674 m 355 547 l 380 547 q 420 485 420 521 q 380 431 409 448 l 355 431 q 314 494 314 458 q 355 547 326 530 m 355 404 l 380 404 q 420 341 420 377 q 380 287 409 304 l 355 287 q 314 350 314 314 q 355 404 326 387 m 355 260 l 380 260 q 420 197 420 233 q 380 144 409 161 l 355 144 q 314 206 314 170 q 355 260 326 243 m 355 117 l 380 117 q 420 54 420 90 q 380 0 409 17 l 355 0 q 314 63 314 27 q 355 117 326 100 m 478 1266 l 503 1266 q 544 1204 544 1240 q 503 1149 532 1166 l 478 1149 q 437 1213 437 1177 q 478 1266 448 1250 m 355 1123 l 380 1123 q 420 1060 420 1096 q 380 1006 409 1023 l 355 1006 q 314 1069 314 1033 q 355 1123 326 1106 z "},"":{"ha":734,"x_min":191,"x_max":544,"o":"m 355 978 l 380 978 q 420 916 420 951 q 380 861 409 878 l 355 861 q 314 924 314 888 q 355 978 326 962 m 355 835 l 380 835 q 420 772 420 808 q 380 718 409 734 l 355 718 q 314 781 314 745 q 355 835 326 818 m 355 691 l 380 691 q 420 628 420 664 q 380 574 409 591 l 355 574 q 314 637 314 602 q 355 691 326 674 m 355 547 l 380 547 q 420 485 420 521 q 380 431 409 448 l 355 431 q 314 494 314 458 q 355 547 326 530 m 355 404 l 380 404 q 420 341 420 377 q 380 287 409 304 l 355 287 q 314 350 314 314 q 355 404 326 387 m 355 260 l 380 260 q 420 197 420 233 q 380 144 409 161 l 355 144 q 314 206 314 170 q 355 260 326 243 m 355 117 l 380 117 q 420 54 420 90 q 380 0 409 17 l 355 0 q 314 63 314 27 q 355 117 326 100 m 355 1266 l 380 1266 q 420 1204 420 1240 q 380 1149 409 1166 l 355 1149 q 314 1213 314 1177 q 355 1266 326 1250 m 232 1123 l 256 1123 q 298 1060 298 1096 q 256 1006 286 1023 l 232 1006 q 191 1069 191 1033 q 232 1123 202 1106 m 478 1123 l 503 1123 q 544 1060 544 1096 q 503 1006 532 1023 l 478 1006 q 437 1069 437 1033 q 478 1123 448 1106 z "},"":{"ha":734,"x_min":191,"x_max":544,"o":"m 355 978 l 380 978 q 420 916 420 951 q 380 861 409 878 l 355 861 q 314 924 314 888 q 355 978 326 962 m 355 835 l 380 835 q 420 772 420 808 q 380 718 409 734 l 355 718 q 314 781 314 745 q 355 835 326 818 m 355 691 l 380 691 q 420 628 420 664 q 380 574 409 591 l 355 574 q 314 637 314 602 q 355 691 326 674 m 355 547 l 380 547 q 420 485 420 521 q 380 431 409 448 l 355 431 q 314 494 314 458 q 355 547 326 530 m 355 404 l 380 404 q 420 341 420 377 q 380 287 409 304 l 355 287 q 314 350 314 314 q 355 404 326 387 m 355 260 l 380 260 q 420 197 420 233 q 380 144 409 161 l 355 144 q 314 206 314 170 q 355 260 326 243 m 355 117 l 380 117 q 420 54 420 90 q 380 0 409 17 l 355 0 q 314 63 314 27 q 355 117 326 100 m 232 1266 l 256 1266 q 298 1204 298 1240 q 256 1149 286 1166 l 232 1149 q 191 1213 191 1177 q 232 1266 202 1250 m 478 1266 l 503 1266 q 544 1204 544 1240 q 503 1149 532 1166 l 478 1149 q 437 1213 437 1177 q 478 1266 448 1250 z "},"":{"ha":822,"x_min":30,"x_max":754,"o":"m 196 978 l 221 978 q 262 916 262 951 q 221 861 251 878 l 196 861 q 155 924 155 888 q 196 978 167 962 m 319 978 l 344 978 q 385 916 385 951 q 344 861 374 878 l 319 861 q 278 924 278 888 q 319 978 290 962 m 442 978 l 467 978 q 508 916 508 951 q 467 861 496 878 l 442 861 q 401 924 401 888 q 442 978 413 962 m 566 978 l 590 978 q 631 916 631 951 q 590 861 620 878 l 566 861 q 524 924 524 888 q 566 978 536 962 m 196 835 l 221 835 q 262 772 262 808 q 221 718 251 734 l 196 718 q 155 781 155 745 q 196 835 167 818 m 688 835 l 713 835 q 754 772 754 808 q 713 718 743 734 l 688 718 q 648 781 648 745 q 688 835 659 818 m 196 691 l 221 691 q 262 628 262 664 q 221 574 251 591 l 196 574 q 155 637 155 602 q 196 691 167 674 m 688 691 l 713 691 q 754 628 754 664 q 713 574 743 591 l 688 574 q 648 637 648 602 q 688 691 659 674 m 196 547 l 221 547 q 262 485 262 521 q 221 431 251 448 l 196 431 q 155 494 155 458 q 196 547 167 530 m 688 547 l 713 547 q 754 485 754 521 q 713 431 743 448 l 688 431 q 648 494 648 458 q 688 547 659 530 m 196 404 l 221 404 q 262 341 262 377 q 221 287 251 304 l 196 287 q 155 350 155 314 q 196 404 167 387 m 688 404 l 713 404 q 754 341 754 377 q 713 287 743 304 l 688 287 q 648 350 648 314 q 688 404 659 387 m 196 260 l 221 260 q 262 197 262 233 q 221 144 251 161 l 196 144 q 155 206 155 170 q 196 260 167 243 m 688 260 l 713 260 q 754 197 754 233 q 713 144 743 161 l 688 144 q 648 206 648 170 q 688 260 659 243 m 196 117 l 221 117 q 262 54 262 90 q 221 0 251 17 l 196 0 q 155 63 155 27 q 196 117 167 100 m 319 117 l 344 117 q 385 54 385 90 q 344 0 374 17 l 319 0 q 278 63 278 27 q 319 117 290 100 m 442 117 l 467 117 q 508 54 508 90 q 467 0 496 17 l 442 0 q 401 63 401 27 q 442 117 413 100 m 566 117 l 590 117 q 631 54 631 90 q 590 0 620 17 l 566 0 q 524 63 524 27 q 566 117 536 100 m 71 547 l 96 547 q 137 485 137 521 q 96 431 125 448 l 71 431 q 30 494 30 458 q 71 547 41 530 m 317 547 l 342 547 q 383 485 383 521 q 342 431 372 448 l 317 431 q 276 494 276 458 q 317 547 288 530 z "},"":{"ha":734,"x_min":68,"x_max":667,"o":"m 109 978 l 134 978 q 174 916 174 951 q 134 861 163 878 l 109 861 q 68 924 68 888 q 109 978 79 962 m 601 978 l 626 978 q 667 916 667 951 q 626 861 655 878 l 601 861 q 560 924 560 888 q 601 978 571 962 m 109 835 l 134 835 q 174 772 174 808 q 134 718 163 734 l 109 718 q 68 781 68 745 q 109 835 79 818 m 232 835 l 256 835 q 298 772 298 808 q 256 718 286 734 l 232 718 q 191 781 191 745 q 232 835 202 818 m 601 835 l 626 835 q 667 772 667 808 q 626 718 655 734 l 601 718 q 560 781 560 745 q 601 835 571 818 m 109 691 l 134 691 q 174 628 174 664 q 134 574 163 591 l 109 574 q 68 637 68 602 q 109 691 79 674 m 355 691 l 380 691 q 420 628 420 664 q 380 574 409 591 l 355 574 q 314 637 314 602 q 355 691 326 674 m 601 691 l 626 691 q 667 628 667 664 q 626 574 655 591 l 601 574 q 560 637 560 602 q 601 691 571 674 m 109 547 l 134 547 q 174 485 174 521 q 134 431 163 448 l 109 431 q 68 494 68 458 q 109 547 79 530 m 478 547 l 503 547 q 544 485 544 521 q 503 431 532 448 l 478 431 q 437 494 437 458 q 478 547 448 530 m 601 547 l 626 547 q 667 485 667 521 q 626 431 655 448 l 601 431 q 560 494 560 458 q 601 547 571 530 m 109 404 l 134 404 q 174 341 174 377 q 134 287 163 304 l 109 287 q 68 350 68 314 q 109 404 79 387 m 601 404 l 626 404 q 667 341 667 377 q 626 287 655 304 l 601 287 q 560 350 560 314 q 601 404 571 387 m 109 260 l 134 260 q 174 197 174 233 q 134 144 163 161 l 109 144 q 68 206 68 170 q 109 260 79 243 m 601 260 l 626 260 q 667 197 667 233 q 626 144 655 161 l 601 144 q 560 206 560 170 q 601 260 571 243 m 109 117 l 134 117 q 174 54 174 90 q 134 0 163 17 l 109 0 q 68 63 68 27 q 109 117 79 100 m 601 117 l 626 117 q 667 54 667 90 q 626 0 655 17 l 601 0 q 560 63 560 27 q 601 117 571 100 m 355 1266 l 380 1266 q 420 1204 420 1240 q 380 1149 409 1166 l 355 1149 q 314 1213 314 1177 q 355 1266 326 1250 m 601 1266 l 626 1266 q 667 1204 667 1240 q 626 1149 655 1166 l 601 1149 q 560 1213 560 1177 q 601 1266 571 1250 m 232 1123 l 256 1123 q 298 1060 298 1096 q 256 1006 286 1023 l 232 1006 q 191 1069 191 1033 q 232 1123 202 1106 m 478 1123 l 503 1123 q 544 1060 544 1096 q 503 1006 532 1023 l 478 1006 q 437 1069 437 1033 q 478 1123 448 1106 z "},"":{"ha":734,"x_min":68,"x_max":667,"o":"m 232 978 l 256 978 q 298 916 298 951 q 256 861 286 878 l 232 861 q 191 924 191 888 q 232 978 202 962 m 355 978 l 380 978 q 420 916 420 951 q 380 861 409 878 l 355 861 q 314 924 314 888 q 355 978 326 962 m 478 978 l 503 978 q 544 916 544 951 q 503 861 532 878 l 478 861 q 437 924 437 888 q 478 978 448 962 m 109 835 l 134 835 q 174 772 174 808 q 134 718 163 734 l 109 718 q 68 781 68 745 q 109 835 79 818 m 601 835 l 626 835 q 667 772 667 808 q 626 718 655 734 l 601 718 q 560 781 560 745 q 601 835 571 818 m 109 691 l 134 691 q 174 628 174 664 q 134 574 163 591 l 109 574 q 68 637 68 602 q 109 691 79 674 m 601 691 l 626 691 q 667 628 667 664 q 626 574 655 591 l 601 574 q 560 637 560 602 q 601 691 571 674 m 109 547 l 134 547 q 174 485 174 521 q 134 431 163 448 l 109 431 q 68 494 68 458 q 109 547 79 530 m 601 547 l 626 547 q 667 485 667 521 q 626 431 655 448 l 601 431 q 560 494 560 458 q 601 547 571 530 m 109 404 l 134 404 q 174 341 174 377 q 134 287 163 304 l 109 287 q 68 350 68 314 q 109 404 79 387 m 601 404 l 626 404 q 667 341 667 377 q 626 287 655 304 l 601 287 q 560 350 560 314 q 601 404 571 387 m 109 260 l 134 260 q 174 197 174 233 q 134 144 163 161 l 109 144 q 68 206 68 170 q 109 260 79 243 m 601 260 l 626 260 q 667 197 667 233 q 626 144 655 161 l 601 144 q 560 206 560 170 q 601 260 571 243 m 232 117 l 256 117 q 298 54 298 90 q 256 0 286 17 l 232 0 q 191 63 191 27 q 232 117 202 100 m 355 117 l 380 117 q 420 54 420 90 q 380 0 409 17 l 355 0 q 314 63 314 27 q 355 117 326 100 m 478 117 l 503 117 q 544 54 544 90 q 503 0 532 17 l 478 0 q 437 63 437 27 q 478 117 448 100 m 232 1266 l 256 1266 q 298 1204 298 1240 q 256 1149 286 1166 l 232 1149 q 191 1213 191 1177 q 232 1266 202 1250 m 355 1123 l 380 1123 q 420 1060 420 1096 q 380 1006 409 1023 l 355 1006 q 314 1069 314 1033 q 355 1123 326 1106 z "},"":{"ha":734,"x_min":68,"x_max":667,"o":"m 232 978 l 256 978 q 298 916 298 951 q 256 861 286 878 l 232 861 q 191 924 191 888 q 232 978 202 962 m 355 978 l 380 978 q 420 916 420 951 q 380 861 409 878 l 355 861 q 314 924 314 888 q 355 978 326 962 m 478 978 l 503 978 q 544 916 544 951 q 503 861 532 878 l 478 861 q 437 924 437 888 q 478 978 448 962 m 109 835 l 134 835 q 174 772 174 808 q 134 718 163 734 l 109 718 q 68 781 68 745 q 109 835 79 818 m 601 835 l 626 835 q 667 772 667 808 q 626 718 655 734 l 601 718 q 560 781 560 745 q 601 835 571 818 m 109 691 l 134 691 q 174 628 174 664 q 134 574 163 591 l 109 574 q 68 637 68 602 q 109 691 79 674 m 601 691 l 626 691 q 667 628 667 664 q 626 574 655 591 l 601 574 q 560 637 560 602 q 601 691 571 674 m 109 547 l 134 547 q 174 485 174 521 q 134 431 163 448 l 109 431 q 68 494 68 458 q 109 547 79 530 m 601 547 l 626 547 q 667 485 667 521 q 626 431 655 448 l 601 431 q 560 494 560 458 q 601 547 571 530 m 109 404 l 134 404 q 174 341 174 377 q 134 287 163 304 l 109 287 q 68 350 68 314 q 109 404 79 387 m 601 404 l 626 404 q 667 341 667 377 q 626 287 655 304 l 601 287 q 560 350 560 314 q 601 404 571 387 m 109 260 l 134 260 q 174 197 174 233 q 134 144 163 161 l 109 144 q 68 206 68 170 q 109 260 79 243 m 601 260 l 626 260 q 667 197 667 233 q 626 144 655 161 l 601 144 q 560 206 560 170 q 601 260 571 243 m 232 117 l 256 117 q 298 54 298 90 q 256 0 286 17 l 232 0 q 191 63 191 27 q 232 117 202 100 m 355 117 l 380 117 q 420 54 420 90 q 380 0 409 17 l 355 0 q 314 63 314 27 q 355 117 326 100 m 478 117 l 503 117 q 544 54 544 90 q 503 0 532 17 l 478 0 q 437 63 437 27 q 478 117 448 100 m 478 1266 l 503 1266 q 544 1204 544 1240 q 503 1149 532 1166 l 478 1149 q 437 1213 437 1177 q 478 1266 448 1250 m 355 1123 l 380 1123 q 420 1060 420 1096 q 380 1006 409 1023 l 355 1006 q 314 1069 314 1033 q 355 1123 326 1106 z "},"":{"ha":734,"x_min":68,"x_max":667,"o":"m 232 978 l 256 978 q 298 916 298 951 q 256 861 286 878 l 232 861 q 191 924 191 888 q 232 978 202 962 m 355 978 l 380 978 q 420 916 420 951 q 380 861 409 878 l 355 861 q 314 924 314 888 q 355 978 326 962 m 478 978 l 503 978 q 544 916 544 951 q 503 861 532 878 l 478 861 q 437 924 437 888 q 478 978 448 962 m 109 835 l 134 835 q 174 772 174 808 q 134 718 163 734 l 109 718 q 68 781 68 745 q 109 835 79 818 m 601 835 l 626 835 q 667 772 667 808 q 626 718 655 734 l 601 718 q 560 781 560 745 q 601 835 571 818 m 109 691 l 134 691 q 174 628 174 664 q 134 574 163 591 l 109 574 q 68 637 68 602 q 109 691 79 674 m 601 691 l 626 691 q 667 628 667 664 q 626 574 655 591 l 601 574 q 560 637 560 602 q 601 691 571 674 m 109 547 l 134 547 q 174 485 174 521 q 134 431 163 448 l 109 431 q 68 494 68 458 q 109 547 79 530 m 601 547 l 626 547 q 667 485 667 521 q 626 431 655 448 l 601 431 q 560 494 560 458 q 601 547 571 530 m 109 404 l 134 404 q 174 341 174 377 q 134 287 163 304 l 109 287 q 68 350 68 314 q 109 404 79 387 m 601 404 l 626 404 q 667 341 667 377 q 626 287 655 304 l 601 287 q 560 350 560 314 q 601 404 571 387 m 109 260 l 134 260 q 174 197 174 233 q 134 144 163 161 l 109 144 q 68 206 68 170 q 109 260 79 243 m 601 260 l 626 260 q 667 197 667 233 q 626 144 655 161 l 601 144 q 560 206 560 170 q 601 260 571 243 m 232 117 l 256 117 q 298 54 298 90 q 256 0 286 17 l 232 0 q 191 63 191 27 q 232 117 202 100 m 355 117 l 380 117 q 420 54 420 90 q 380 0 409 17 l 355 0 q 314 63 314 27 q 355 117 326 100 m 478 117 l 503 117 q 544 54 544 90 q 503 0 532 17 l 478 0 q 437 63 437 27 q 478 117 448 100 m 355 1266 l 380 1266 q 420 1204 420 1240 q 380 1149 409 1166 l 355 1149 q 314 1213 314 1177 q 355 1266 326 1250 m 232 1123 l 256 1123 q 298 1060 298 1096 q 256 1006 286 1023 l 232 1006 q 191 1069 191 1033 q 232 1123 202 1106 m 478 1123 l 503 1123 q 544 1060 544 1096 q 503 1006 532 1023 l 478 1006 q 437 1069 437 1033 q 478 1123 448 1106 z "},"":{"ha":734,"x_min":68,"x_max":667,"o":"m 232 978 l 256 978 q 298 916 298 951 q 256 861 286 878 l 232 861 q 191 924 191 888 q 232 978 202 962 m 355 978 l 380 978 q 420 916 420 951 q 380 861 409 878 l 355 861 q 314 924 314 888 q 355 978 326 962 m 478 978 l 503 978 q 544 916 544 951 q 503 861 532 878 l 478 861 q 437 924 437 888 q 478 978 448 962 m 109 835 l 134 835 q 174 772 174 808 q 134 718 163 734 l 109 718 q 68 781 68 745 q 109 835 79 818 m 601 835 l 626 835 q 667 772 667 808 q 626 718 655 734 l 601 718 q 560 781 560 745 q 601 835 571 818 m 109 691 l 134 691 q 174 628 174 664 q 134 574 163 591 l 109 574 q 68 637 68 602 q 109 691 79 674 m 601 691 l 626 691 q 667 628 667 664 q 626 574 655 591 l 601 574 q 560 637 560 602 q 601 691 571 674 m 109 547 l 134 547 q 174 485 174 521 q 134 431 163 448 l 109 431 q 68 494 68 458 q 109 547 79 530 m 601 547 l 626 547 q 667 485 667 521 q 626 431 655 448 l 601 431 q 560 494 560 458 q 601 547 571 530 m 109 404 l 134 404 q 174 341 174 377 q 134 287 163 304 l 109 287 q 68 350 68 314 q 109 404 79 387 m 601 404 l 626 404 q 667 341 667 377 q 626 287 655 304 l 601 287 q 560 350 560 314 q 601 404 571 387 m 109 260 l 134 260 q 174 197 174 233 q 134 144 163 161 l 109 144 q 68 206 68 170 q 109 260 79 243 m 601 260 l 626 260 q 667 197 667 233 q 626 144 655 161 l 601 144 q 560 206 560 170 q 601 260 571 243 m 232 117 l 256 117 q 298 54 298 90 q 256 0 286 17 l 232 0 q 191 63 191 27 q 232 117 202 100 m 355 117 l 380 117 q 420 54 420 90 q 380 0 409 17 l 355 0 q 314 63 314 27 q 355 117 326 100 m 478 117 l 503 117 q 544 54 544 90 q 503 0 532 17 l 478 0 q 437 63 437 27 q 478 117 448 100 m 355 1266 l 380 1266 q 420 1204 420 1240 q 380 1149 409 1166 l 355 1149 q 314 1213 314 1177 q 355 1266 326 1250 m 601 1266 l 626 1266 q 667 1204 667 1240 q 626 1149 655 1166 l 601 1149 q 560 1213 560 1177 q 601 1266 571 1250 m 232 1123 l 256 1123 q 298 1060 298 1096 q 256 1006 286 1023 l 232 1006 q 191 1069 191 1033 q 232 1123 202 1106 m 478 1123 l 503 1123 q 544 1060 544 1096 q 503 1006 532 1023 l 478 1006 q 437 1069 437 1033 q 478 1123 448 1106 z "}}}
